{"glyphs":{"0":{"ha":767,"x_min":53,"x_max":715,"o":"m 715 593 q 618 254 715 415 q 338 68 507 68 q 189 121 258 68 q 90 247 123 170 q 53 449 53 331 q 145 787 53 624 q 417 979 254 979 q 644 853 561 979 q 715 593 715 745 m 616 488 q 481 852 616 743 q 357 905 414 905 q 186 779 241 905 q 146 553 146 686 q 209 295 146 416 q 410 147 285 147 q 576 269 523 147 q 616 488 616 359 z "},"1":{"ha":767,"x_min":195,"x_max":594,"o":"m 594 87 l 236 87 l 236 120 l 269 120 q 359 206 359 120 l 359 810 q 308 869 359 869 q 195 838 284 869 l 195 871 l 526 986 l 526 959 q 469 880 469 943 l 469 218 q 561 120 469 120 l 594 120 l 594 87 z "},"2":{"ha":767,"x_min":66,"x_max":701,"o":"m 701 296 l 652 56 l 621 56 l 621 64 q 596 87 621 87 l 66 87 l 66 120 l 264 359 q 510 709 467 604 q 535 814 535 772 q 501 904 535 867 q 414 940 467 940 q 258 846 321 940 q 195 667 203 767 l 149 667 l 149 873 q 454 975 311 975 q 600 934 541 975 q 667 804 667 887 q 593 623 667 718 q 455 477 563 585 l 167 193 l 549 193 q 669 296 651 193 l 701 296 z "},"3":{"ha":767,"x_min":111,"x_max":692,"o":"m 692 406 q 568 166 692 270 q 312 68 450 68 q 111 111 223 68 l 111 337 l 157 337 q 224 182 168 243 q 377 116 286 116 q 517 178 465 116 q 567 326 567 237 q 510 488 567 431 q 347 545 452 545 l 235 545 l 235 576 q 417 660 333 587 q 507 833 507 739 q 476 909 507 880 q 398 939 446 939 q 250 845 307 939 q 199 669 203 767 l 153 669 l 153 873 q 446 975 313 975 q 572 941 521 975 q 631 832 631 903 q 347 576 631 690 q 417 578 395 578 q 692 406 692 578 z "},"4":{"ha":767,"x_min":43,"x_max":683,"o":"m 683 335 l 545 335 l 545 206 q 630 120 545 120 l 650 120 l 650 87 l 309 87 l 309 120 l 338 120 q 433 206 433 120 l 433 335 l 43 335 l 43 366 l 309 703 q 511 981 439 867 l 545 981 l 545 404 l 683 404 l 683 335 m 433 404 l 433 762 q 264 577 340 674 l 127 404 l 433 404 z "},"5":{"ha":767,"x_min":134,"x_max":695,"o":"m 695 432 q 581 179 695 290 q 323 68 467 68 q 134 113 227 68 l 134 337 l 182 337 q 242 187 195 245 q 383 119 297 119 q 525 193 475 119 q 567 353 567 256 q 520 528 567 455 q 369 611 466 611 q 195 503 262 611 l 155 503 l 176 955 l 579 955 q 621 989 620 955 l 652 989 l 652 751 l 621 751 q 598 829 621 806 q 522 853 576 853 l 214 853 l 201 583 q 427 653 290 653 q 612 599 538 653 q 695 432 695 538 z "},"6":{"ha":767,"x_min":85,"x_max":708,"o":"m 708 351 q 607 147 708 232 q 391 68 512 68 q 157 191 241 68 q 85 454 85 297 q 188 802 85 648 q 490 975 304 975 q 649 941 566 975 l 649 708 l 599 708 q 566 858 597 795 q 446 938 524 938 q 307 859 368 938 q 234 709 258 797 q 205 517 205 604 q 211 431 205 488 q 466 564 324 564 q 637 511 572 564 q 708 351 708 454 m 578 311 q 540 447 578 391 q 418 511 495 511 q 291 449 338 511 q 249 309 249 393 q 290 170 249 228 q 413 104 335 104 q 538 170 492 104 q 578 311 578 229 z "},"7":{"ha":767,"x_min":129,"x_max":711,"o":"m 711 913 q 480 527 552 710 q 395 87 402 330 l 273 87 q 311 347 280 241 q 426 584 346 465 q 536 741 504 700 l 625 852 l 266 852 q 184 830 207 852 q 161 749 162 808 l 129 749 l 129 986 l 161 986 l 161 981 q 198 955 161 955 l 711 955 l 711 913 z "},"8":{"ha":767,"x_min":63,"x_max":724,"o":"m 724 332 q 541 111 724 201 q 345 68 456 68 q 159 111 237 68 q 63 265 63 165 q 136 409 63 341 q 273 505 177 448 q 323 534 300 521 q 283 555 309 543 q 171 628 201 598 q 122 747 122 675 q 235 916 122 848 q 440 975 332 975 q 583 943 522 975 q 661 829 661 903 q 583 690 661 764 q 452 589 549 658 q 517 554 474 576 q 654 469 616 503 q 724 332 724 410 m 549 806 q 500 905 549 871 q 389 937 456 937 q 276 902 323 937 q 224 800 224 864 q 294 679 224 733 q 422 606 331 650 q 549 806 549 718 m 606 292 q 496 441 606 385 q 355 518 444 467 q 240 425 275 465 q 186 292 186 364 q 250 156 186 206 q 395 109 307 109 q 540 157 478 109 q 606 292 606 210 z "},"9":{"ha":767,"x_min":77,"x_max":698,"o":"m 698 586 q 649 338 698 454 q 499 138 597 214 q 298 68 408 68 q 137 102 214 68 l 137 334 l 186 334 q 219 186 187 248 q 335 105 259 105 q 527 267 461 105 q 576 536 576 389 q 573 609 576 559 q 311 480 448 480 q 145 537 210 480 q 77 696 77 597 q 178 895 77 811 q 391 975 274 975 q 626 852 543 975 q 698 586 698 745 m 534 735 q 494 873 534 813 q 374 941 448 941 q 244 876 291 941 q 203 731 203 817 q 245 593 203 649 q 372 531 292 531 q 494 597 449 531 q 534 735 534 654 z "}," ":{"ha":339,"x_min":0,"x_max":0,"o":""},"!":{"ha":441,"x_min":122,"x_max":297,"o":"m 271 324 l 200 252 l 200 578 q 122 759 200 621 q 271 878 174 759 l 271 324 m 297 149 q 279 106 297 124 q 237 87 261 87 q 193 106 212 87 q 175 149 175 124 q 193 191 175 173 q 236 210 212 210 q 279 191 261 210 q 297 149 297 173 z "},"\"":{"ha":374,"x_min":47,"x_max":328,"o":"m 328 821 q 313 699 328 781 q 299 542 299 616 l 247 542 q 234 699 247 616 q 220 821 220 781 q 274 871 220 871 q 311 857 295 871 q 328 821 328 842 m 153 821 q 140 699 153 781 q 126 542 126 616 l 74 542 q 61 699 74 616 q 47 821 47 781 q 99 871 47 871 q 137 857 121 871 q 153 821 153 842 z "},"#":{"ha":926,"x_min":62,"x_max":863,"o":"m 863 323 l 642 323 l 583 46 l 512 46 l 571 323 l 271 323 l 213 46 l 142 46 l 200 323 l 62 323 l 62 394 l 215 394 l 271 658 l 62 658 l 62 728 l 285 728 l 345 1007 l 415 1007 l 355 728 l 654 728 l 712 1007 l 783 1007 l 724 728 l 863 728 l 863 658 l 711 658 l 656 394 l 863 394 l 863 323 m 640 658 l 341 658 l 286 395 l 585 395 l 640 658 z "},"$":{"ha":637,"x_min":79,"x_max":597,"o":"m 597 342 q 525 179 597 254 q 371 78 464 116 l 371 -36 l 322 -36 l 322 70 l 279 68 q 79 115 195 66 l 79 353 l 124 353 q 322 115 153 126 l 322 481 q 176 584 208 555 q 98 736 98 656 q 171 886 98 817 q 322 968 237 947 l 322 1079 l 371 1079 l 371 974 l 397 974 q 553 941 457 974 l 553 729 l 507 729 q 371 926 486 898 l 371 600 q 445 547 404 575 q 551 464 522 495 q 597 342 597 411 m 322 633 l 322 928 q 235 891 269 924 q 199 804 199 857 q 322 633 199 713 m 491 270 q 371 445 491 371 l 371 120 q 491 270 491 150 z "},"%":{"ha":998,"x_min":57,"x_max":942,"o":"m 942 335 q 881 157 942 233 q 716 74 815 74 q 581 134 633 74 q 532 276 532 191 q 592 457 532 379 q 758 542 658 542 q 895 479 843 542 q 942 335 942 422 m 829 993 l 227 46 l 170 46 l 771 993 l 829 993 m 467 758 q 404 581 467 657 q 238 499 337 499 q 104 560 155 499 q 57 703 57 618 q 119 881 57 803 q 283 966 185 966 q 420 903 368 966 q 467 758 467 846 m 863 267 q 829 413 863 345 q 717 497 787 497 q 636 451 663 497 q 613 355 613 412 q 646 208 613 277 q 755 121 686 121 q 863 267 863 121 m 387 696 q 353 839 387 772 q 242 921 311 921 q 159 873 187 921 q 137 775 137 835 q 170 627 137 695 q 284 543 212 543 q 387 696 387 543 z "},"&":{"ha":882,"x_min":49,"x_max":894,"o":"m 894 279 q 713 68 783 68 q 481 256 633 68 q 372 134 411 168 q 228 68 299 68 q 100 127 153 68 q 49 260 49 184 q 275 570 49 397 q 201 788 201 709 q 298 931 201 879 q 478 975 378 975 q 581 948 539 975 q 631 859 631 916 q 576 753 631 804 q 475 682 551 730 q 391 626 425 650 q 536 398 488 471 q 617 626 599 496 l 860 626 l 860 591 q 559 368 692 591 q 758 184 696 184 q 865 292 800 184 l 894 279 m 519 857 q 493 916 519 895 q 428 938 467 938 q 348 905 378 938 q 318 823 318 873 q 377 654 318 766 q 468 743 447 718 q 519 857 519 804 m 462 281 q 289 543 349 433 q 178 318 178 427 q 208 217 178 259 q 298 170 241 170 q 462 281 372 170 z "},"'":{"ha":217,"x_min":68,"x_max":181,"o":"m 181 910 q 173 833 181 881 l 136 615 l 110 615 l 77 836 q 68 910 68 890 q 126 975 68 975 q 181 910 181 975 z "},"(":{"ha":443,"x_min":97,"x_max":382,"o":"m 382 -360 l 361 -391 q 199 -154 244 -243 q 97 297 97 49 q 200 739 97 534 q 359 977 250 838 l 382 949 q 225 302 225 587 q 277 -102 225 73 q 382 -360 298 -172 z "},")":{"ha":443,"x_min":68,"x_max":353,"o":"m 353 288 q 250 -154 353 51 q 92 -391 203 -248 l 68 -363 q 223 284 223 7 q 172 689 223 515 q 69 945 149 768 l 89 977 q 250 739 207 825 q 353 288 353 536 z "},"*":{"ha":461,"x_min":27,"x_max":434,"o":"m 434 631 l 273 667 q 267 654 271 660 l 410 570 l 341 501 l 252 640 q 239 635 244 636 l 281 475 l 184 475 l 219 636 q 209 640 214 637 l 120 501 l 51 570 l 194 654 q 189 667 190 662 l 27 631 l 27 729 l 188 686 q 192 701 189 694 l 54 789 l 123 858 l 205 715 q 219 721 213 719 l 184 882 l 281 882 l 239 722 q 256 715 248 720 l 338 858 l 408 789 l 269 701 q 274 686 273 692 l 434 729 l 434 631 m 254 678 q 231 702 254 702 q 207 678 207 702 q 231 654 207 654 q 254 678 254 654 z "},"+":{"ha":642,"x_min":71,"x_max":566,"o":"m 566 307 l 349 307 l 349 87 l 292 87 l 292 307 l 71 307 l 71 363 l 292 363 l 292 585 l 349 585 l 349 363 l 566 363 l 566 307 z "},",":{"ha":281,"x_min":66,"x_max":204,"o":"m 204 138 q 168 35 204 90 q 85 -42 138 -9 q 66 44 85 34 q 92 57 75 47 q 116 96 116 77 q 81 150 81 109 q 98 192 81 175 q 140 210 115 210 q 186 190 168 210 q 204 138 204 170 z "},"-":{"ha":642,"x_min":71,"x_max":566,"o":"m 566 307 l 71 307 l 71 363 l 566 363 l 566 307 z "},".":{"ha":281,"x_min":79,"x_max":201,"o":"m 201 149 q 183 106 201 124 q 141 87 165 87 q 98 106 116 87 q 79 149 79 124 q 98 191 79 173 q 140 210 116 210 q 183 191 165 210 q 201 149 201 173 z "},"/":{"ha":386,"x_min":33,"x_max":347,"o":"m 347 966 l 90 -94 l 33 -94 l 288 966 l 347 966 z "},":":{"ha":281,"x_min":79,"x_max":201,"o":"m 201 332 q 183 290 201 308 q 141 271 165 271 q 98 290 116 271 q 79 332 79 308 q 98 375 79 357 q 140 393 116 393 q 183 375 165 393 q 201 332 201 357 m 201 149 q 183 106 201 124 q 141 87 165 87 q 98 106 116 87 q 79 149 79 124 q 98 191 79 173 q 140 210 116 210 q 183 191 165 210 q 201 149 201 173 z "},";":{"ha":333,"x_min":84,"x_max":311,"o":"m 250 644 q 226 586 250 610 q 168 562 202 562 q 110 586 134 562 q 86 644 86 610 q 110 701 86 677 q 167 726 134 726 q 226 702 201 726 q 250 644 250 678 m 311 111 q 84 -216 311 -69 l 84 -176 q 235 54 235 -68 q 214 120 235 84 q 151 87 192 87 q 103 106 122 87 q 85 154 85 125 q 118 216 85 193 q 188 237 147 237 q 278 202 245 237 q 311 111 311 168 z "},"<":{"ha":926,"x_min":96,"x_max":829,"o":"m 829 183 l 96 492 l 96 558 l 829 867 l 829 787 l 194 526 l 829 263 l 829 183 z "},"=":{"ha":642,"x_min":71,"x_max":567,"o":"m 567 366 l 71 366 l 71 424 l 567 424 l 567 366 m 567 245 l 71 245 l 71 304 l 567 304 l 567 245 z "},">":{"ha":926,"x_min":96,"x_max":829,"o":"m 829 491 l 96 183 l 96 262 l 732 524 l 96 787 l 96 867 l 829 557 l 829 491 z "},"?":{"ha":622,"x_min":64,"x_max":602,"o":"m 602 823 q 473 603 602 718 q 316 394 342 486 q 303 296 304 353 l 236 296 q 264 471 237 402 q 355 623 286 530 q 452 820 452 753 q 418 904 452 873 q 330 935 384 935 q 170 846 233 935 q 109 667 115 769 l 64 667 l 64 871 q 402 975 252 975 q 538 941 486 975 q 602 823 602 901 m 350 150 q 326 92 350 116 q 269 68 302 68 q 211 92 235 68 q 187 150 187 116 q 211 208 187 183 q 267 232 234 232 q 326 208 302 232 q 350 150 350 184 z "},"@":{"ha":1273,"x_min":69,"x_max":1246,"o":"m 1246 199 q 1020 -102 1181 12 q 661 -215 859 -215 q 357 -138 493 -215 q 141 87 214 -58 q 69 395 69 229 q 252 859 69 671 q 711 1050 437 1050 q 1056 926 924 1050 q 1190 587 1190 798 q 1000 161 1190 317 q 825 99 925 99 q 718 194 718 99 q 735 299 718 221 q 623 176 663 211 q 476 106 545 106 q 376 154 412 106 q 345 262 345 196 q 410 486 345 372 q 563 667 470 590 q 722 737 648 737 q 837 642 810 737 l 858 720 l 947 732 l 852 414 q 802 200 802 245 q 865 144 802 144 q 1079 308 989 144 q 1155 583 1155 448 q 1031 898 1155 780 q 710 1016 907 1016 q 405 926 541 1016 q 199 684 271 838 q 124 357 124 523 q 194 85 124 212 q 391 -113 267 -47 q 662 -179 515 -179 q 996 -76 844 -179 q 1209 199 1147 28 l 1246 199 m 812 601 q 719 706 812 706 q 522 538 616 706 q 439 275 439 389 q 525 179 439 179 q 673 270 595 179 q 769 423 735 342 q 812 601 812 527 z "},"A":{"ha":839,"x_min":6,"x_max":838,"o":"m 838 87 l 594 87 l 594 120 l 610 120 q 621 142 621 120 q 618 157 621 149 l 537 393 l 241 393 q 194 197 194 262 q 216 141 194 162 q 274 120 239 120 l 310 120 l 310 87 l 6 87 l 6 120 q 144 282 83 124 l 422 991 l 463 991 l 703 298 q 749 188 728 224 q 838 120 789 122 l 838 87 m 522 435 l 399 795 l 256 435 l 522 435 z "},"B":{"ha":752,"x_min":39,"x_max":705,"o":"m 705 393 q 593 173 705 264 q 357 87 488 87 l 39 87 l 39 120 q 121 144 100 121 q 142 228 142 167 l 142 815 q 121 899 142 876 q 39 922 100 921 l 39 955 l 450 955 q 599 928 549 955 q 665 802 665 892 q 473 549 665 662 q 631 523 581 547 q 705 393 705 487 m 543 711 q 502 854 543 794 q 375 923 455 923 q 268 890 308 923 l 268 575 l 400 575 q 543 711 543 575 m 574 310 q 509 480 574 416 q 337 544 444 544 l 268 544 l 268 186 q 414 132 338 132 q 534 184 490 132 q 574 310 574 232 z "},"C":{"ha":854,"x_min":52,"x_max":818,"o":"m 818 253 q 426 68 603 68 q 152 193 258 68 q 52 481 52 311 q 281 902 52 750 q 544 975 390 975 q 798 932 678 975 l 798 728 l 749 728 q 660 882 741 826 q 484 932 587 932 q 247 818 334 932 q 168 559 168 714 q 256 286 168 397 q 509 166 351 166 q 818 294 659 166 l 818 253 z "},"D":{"ha":984,"x_min":43,"x_max":934,"o":"m 934 612 q 783 234 934 380 q 399 87 632 87 l 43 87 l 43 120 q 125 144 104 121 q 146 228 146 167 l 146 815 q 125 899 146 876 q 43 922 104 921 l 43 955 l 576 955 q 934 612 934 955 m 806 524 q 469 924 806 924 q 272 872 350 924 l 272 195 q 484 132 380 132 q 728 254 640 132 q 806 524 806 362 z "},"E":{"ha":665,"x_min":43,"x_max":653,"o":"m 653 337 l 597 58 l 564 58 q 538 87 563 87 l 43 87 l 43 120 q 125 143 104 121 q 146 228 146 166 l 146 814 q 125 898 146 876 q 43 922 104 921 l 43 955 l 528 955 q 573 989 572 955 l 605 989 l 605 730 l 555 730 q 323 922 553 922 l 272 922 q 264 790 264 848 q 454 564 264 564 l 521 564 l 521 517 l 272 510 l 272 120 l 344 120 q 605 337 572 120 l 653 337 z "},"F":{"ha":593,"x_min":41,"x_max":604,"o":"m 604 727 l 555 727 q 490 882 555 835 q 321 922 435 922 l 270 922 q 262 789 262 848 q 301 612 262 667 q 463 547 347 547 l 519 547 l 519 500 l 270 495 l 270 228 q 373 120 270 123 l 373 87 l 41 87 l 41 120 q 123 144 102 121 q 144 228 144 167 l 144 815 q 123 899 144 876 q 41 922 102 921 l 41 955 l 555 955 q 574 985 570 955 l 604 985 l 604 727 z "},"G":{"ha":926,"x_min":55,"x_max":889,"o":"m 889 429 q 837 397 855 428 q 821 336 821 372 l 821 56 l 787 56 q 696 176 783 176 q 602 138 658 176 q 575 120 584 125 q 403 68 485 68 q 224 126 309 68 q 100 268 142 182 q 55 473 55 359 q 120 726 55 609 q 302 911 185 844 q 553 975 413 975 q 799 933 661 975 l 799 728 l 749 728 q 661 880 738 825 q 490 930 591 930 q 253 823 341 930 q 170 571 170 722 q 251 292 170 412 q 495 155 343 155 q 636 199 576 155 q 703 326 703 248 q 575 429 703 429 l 551 429 l 551 460 l 889 460 l 889 429 z "},"H":{"ha":955,"x_min":41,"x_max":912,"o":"m 912 87 l 581 87 l 581 120 q 662 144 640 121 q 684 228 684 168 l 684 541 l 270 541 l 270 228 q 373 120 270 123 l 373 87 l 41 87 l 41 120 q 123 144 102 121 q 144 228 144 167 l 144 815 q 123 899 144 876 q 41 922 102 921 l 41 955 l 373 955 l 373 922 q 291 899 313 921 q 270 815 270 876 l 270 583 l 684 583 l 684 815 q 662 899 684 876 q 581 922 641 921 l 581 955 l 912 955 l 912 922 q 830 899 852 921 q 809 815 809 876 l 809 228 q 830 143 809 166 q 912 120 852 121 l 912 87 z "},"I":{"ha":420,"x_min":50,"x_max":381,"o":"m 381 87 l 50 87 l 50 120 q 131 144 110 121 q 153 228 153 167 l 153 815 q 131 899 153 876 q 50 922 110 921 l 50 955 l 381 955 l 381 922 q 299 899 320 921 q 278 815 278 876 l 278 228 q 381 120 278 123 l 381 87 z "},"J":{"ha":405,"x_min":-102,"x_max":377,"o":"m 377 922 q 295 898 317 921 q 274 814 274 876 l 274 245 q 115 -147 274 18 q -31 -219 44 -219 q -102 -207 -62 -219 l -102 8 l -54 8 q -29 -85 -50 -47 q 46 -138 -1 -138 q 149 87 149 -138 l 149 814 q 127 899 149 876 q 45 922 106 921 l 45 955 l 377 955 l 377 922 z "},"K":{"ha":810,"x_min":40,"x_max":829,"o":"m 829 87 l 610 87 l 269 541 l 269 228 q 372 120 269 123 l 372 87 l 40 87 l 40 120 q 122 144 100 121 q 143 228 143 167 l 143 814 q 122 899 143 876 q 40 922 101 921 l 40 955 l 372 955 l 372 922 q 290 899 311 921 q 269 814 269 876 l 269 549 l 436 705 q 547 877 547 814 q 477 922 547 920 l 477 955 l 789 955 l 789 922 q 601 814 701 911 l 381 602 l 619 284 q 829 120 742 120 l 829 87 z "},"L":{"ha":651,"x_min":44,"x_max":654,"o":"m 654 336 l 596 56 l 564 56 q 535 87 564 87 l 44 87 l 44 120 q 126 144 104 121 q 147 228 147 167 l 147 814 q 126 898 147 876 q 44 922 104 921 l 44 955 l 377 955 l 377 922 q 294 899 315 921 q 273 814 273 877 l 273 120 l 361 120 q 606 336 567 120 l 654 336 z "},"M":{"ha":1230,"x_min":4,"x_max":1221,"o":"m 1221 87 l 887 87 l 887 120 q 960 142 940 121 q 980 214 980 162 q 979 237 980 224 l 926 777 q 760 454 810 570 l 590 56 l 559 56 l 242 845 l 219 602 q 203 340 203 437 q 311 120 203 126 l 311 87 l 4 87 l 4 120 q 98 219 62 134 q 137 359 113 256 q 180 631 166 486 l 197 812 q 197 840 197 819 q 176 905 197 888 q 108 922 158 921 l 108 955 l 330 955 l 621 237 l 787 631 q 911 955 882 854 l 1154 955 l 1154 922 q 1076 906 1099 921 q 1048 836 1048 887 q 1048 820 1048 827 l 1100 279 q 1123 165 1108 191 q 1221 120 1147 122 l 1221 87 z "},"N":{"ha":941,"x_min":23,"x_max":933,"o":"m 933 922 q 809 515 809 911 l 809 56 l 777 56 l 192 847 l 192 595 q 204 331 192 419 q 317 120 231 131 l 317 87 l 23 87 l 23 120 q 146 587 146 139 l 146 821 q 124 900 146 878 q 45 922 102 921 l 45 955 l 267 955 l 760 292 l 760 494 q 637 922 760 909 l 637 955 l 933 955 l 933 922 z "},"O":{"ha":1013,"x_min":52,"x_max":962,"o":"m 962 562 q 886 306 962 428 q 690 123 810 184 q 461 68 581 68 q 170 186 288 68 q 52 477 52 304 q 198 825 52 675 q 541 975 344 975 q 896 790 768 975 q 962 562 962 695 m 847 443 q 795 677 847 568 q 637 856 739 798 q 456 911 541 911 q 242 817 323 911 q 166 591 166 728 q 271 275 166 410 q 561 128 385 128 q 770 223 688 128 q 847 443 847 314 z "},"P":{"ha":665,"x_min":40,"x_max":686,"o":"m 686 800 q 584 590 686 689 q 372 492 483 492 q 269 517 326 492 l 269 228 q 372 120 269 123 l 372 87 l 40 87 l 40 120 q 122 143 101 121 q 143 228 143 166 l 143 815 q 122 899 143 876 q 40 922 100 921 l 40 955 l 469 955 q 686 800 686 955 m 551 713 q 515 855 551 799 q 391 922 472 922 q 269 878 328 922 l 269 608 q 424 543 355 543 q 551 713 551 543 z "},"Q":{"ha":1013,"x_min":55,"x_max":1005,"o":"m 1005 -45 q 918 -138 942 -117 q 808 -193 857 -193 q 610 -77 751 -193 q 397 79 454 53 q 358 87 377 87 q 217 -2 305 87 l 217 40 q 285 115 249 85 q 114 262 175 161 q 55 482 55 360 q 302 905 55 748 q 547 975 411 975 q 903 784 780 975 q 962 565 962 692 q 848 254 962 391 q 563 82 734 117 q 713 -13 613 70 q 861 -96 812 -96 q 1005 -2 909 -96 l 1005 -45 m 851 449 q 797 681 851 571 q 640 858 739 797 q 458 916 545 916 q 245 819 327 916 q 168 593 168 727 q 363 197 168 338 q 562 132 453 132 q 772 228 690 132 q 851 449 851 319 z "},"R":{"ha":752,"x_min":38,"x_max":785,"o":"m 785 87 l 622 87 q 535 146 572 87 l 267 564 l 267 228 q 371 120 267 123 l 371 87 l 38 87 l 38 120 q 120 144 98 121 q 141 228 141 167 l 141 815 q 120 899 141 876 q 38 922 98 921 l 38 955 l 469 955 q 661 806 661 955 q 446 516 661 640 l 597 282 q 785 120 699 125 l 785 87 m 522 709 q 488 850 522 790 q 371 923 446 923 q 267 889 315 923 l 267 606 q 403 549 346 549 q 522 709 522 549 z "},"S":{"ha":622,"x_min":65,"x_max":585,"o":"m 585 340 q 479 144 585 227 q 264 68 382 68 q 65 111 176 68 l 65 355 l 113 355 q 166 191 113 261 q 315 113 224 113 q 432 156 387 113 q 477 269 477 198 q 409 408 477 343 q 278 502 381 433 q 149 595 191 559 q 102 659 121 620 q 86 730 86 693 q 185 909 86 837 q 385 975 275 975 q 546 940 446 975 l 546 727 l 496 727 q 448 865 492 808 q 323 928 400 928 q 229 895 267 928 q 190 803 190 859 q 269 663 190 734 q 404 566 298 637 q 526 474 498 503 q 585 340 585 415 z "},"T":{"ha":724,"x_min":15,"x_max":720,"o":"m 720 728 l 671 728 q 465 922 669 922 l 429 922 l 429 228 q 532 120 429 123 l 532 87 l 200 87 l 200 120 q 282 144 260 121 q 303 228 303 167 l 303 922 l 256 922 q 62 728 68 922 l 15 728 l 15 985 l 45 985 q 71 955 54 955 l 664 955 q 687 985 687 955 l 720 985 l 720 728 z "},"U":{"ha":941,"x_min":32,"x_max":926,"o":"m 926 922 q 800 498 800 903 q 798 337 800 352 q 753 186 791 242 q 471 68 674 68 q 175 189 256 68 q 135 333 135 248 l 135 814 q 114 898 135 876 q 32 922 92 921 l 32 955 l 363 955 l 363 922 q 282 898 303 921 q 260 814 260 876 l 260 338 q 359 146 260 208 q 500 111 416 111 q 726 233 673 111 q 752 415 752 293 q 743 696 752 614 q 627 922 716 914 l 627 955 l 926 955 l 926 922 z "},"V":{"ha":854,"x_min":26,"x_max":854,"o":"m 854 922 q 713 755 780 922 l 437 58 l 397 58 l 153 766 q 26 922 99 921 l 26 955 l 266 955 l 266 922 q 239 903 239 922 q 247 870 239 892 l 462 250 l 600 600 q 656 831 656 744 q 549 922 656 921 l 549 955 l 854 955 l 854 922 z "},"W":{"ha":1345,"x_min":38,"x_max":1345,"o":"m 1345 922 q 1196 734 1271 921 l 925 56 l 884 56 l 688 629 q 581 407 621 510 l 442 56 l 403 56 l 174 730 q 86 901 129 865 q 38 922 62 920 l 38 955 l 275 955 l 275 922 q 250 900 250 922 q 252 886 250 895 l 467 250 l 581 535 q 630 772 630 660 q 516 922 630 916 l 516 955 l 756 955 l 756 922 q 727 901 727 922 q 730 886 727 895 l 947 250 l 1086 601 q 1149 831 1149 762 q 1121 905 1149 885 q 1040 922 1098 921 l 1040 955 l 1345 955 l 1345 922 z "},"X":{"ha":839,"x_min":2,"x_max":830,"o":"m 830 87 l 560 87 l 560 120 q 587 141 587 121 q 583 155 587 147 l 387 481 q 233 189 233 279 q 324 120 233 121 l 324 87 l 2 87 l 2 120 q 201 282 91 127 l 368 515 l 217 766 q 45 922 127 916 l 45 955 l 309 955 l 309 922 q 282 905 282 921 q 285 895 282 900 l 448 624 q 567 856 567 791 q 464 922 567 921 l 464 955 l 789 955 l 789 922 q 591 766 695 909 l 464 593 l 680 238 q 778 137 724 165 q 830 120 798 125 l 830 87 z "},"Y":{"ha":810,"x_min":24,"x_max":838,"o":"m 838 922 q 676 770 764 921 l 471 420 l 471 228 q 574 120 471 123 l 574 87 l 242 87 l 242 120 q 324 144 302 121 q 345 228 345 167 l 345 420 l 176 761 q 117 862 141 830 q 24 922 72 922 l 24 955 l 270 955 l 270 922 q 244 904 244 922 q 247 892 244 897 l 460 469 q 625 844 625 726 q 591 909 625 892 q 514 922 568 922 l 514 955 l 838 955 l 838 922 z "},"Z":{"ha":825,"x_min":53,"x_max":807,"o":"m 807 337 l 751 58 l 719 58 q 703 87 718 87 l 53 87 l 53 127 l 611 922 l 410 922 q 223 888 283 922 q 140 728 146 844 l 94 728 l 94 985 l 125 985 q 151 955 126 955 l 758 955 l 758 915 l 198 120 l 402 120 q 631 157 555 120 q 758 337 732 205 l 807 337 z "},"[":{"ha":434,"x_min":145,"x_max":366,"o":"m 366 -68 l 145 -68 l 145 1047 l 366 1047 l 366 1005 l 242 1005 l 242 -26 l 366 -26 l 366 -68 z "},"\\":{"ha":709,"x_min":77,"x_max":632,"o":"m 632 62 l 557 62 l 77 1055 l 151 1055 l 632 62 z "},"]":{"ha":434,"x_min":92,"x_max":284,"o":"m 284 -68 l 92 -68 l 92 -26 l 187 -26 l 187 1004 l 92 1004 l 92 1046 l 284 1046 l 284 -68 z "},"^":{"ha":651,"x_min":25,"x_max":626,"o":"m 626 469 l 564 469 l 326 866 l 89 469 l 25 469 l 317 955 l 338 955 l 626 469 z "},"_":{"ha":694,"x_min":-8,"x_max":703,"o":"m 703 -174 l -8 -174 l -8 -104 l 703 -104 l 703 -174 z "},"`":{"ha":463,"x_min":114,"x_max":277,"o":"m 277 823 l 253 809 l 159 915 q 114 981 114 965 q 155 1023 114 1023 q 200 980 179 1023 l 277 823 z "},"a":{"ha":651,"x_min":39,"x_max":643,"o":"m 643 169 q 475 68 540 68 q 416 133 416 68 l 416 233 q 162 68 255 68 q 73 110 109 68 q 39 204 39 150 q 416 522 39 351 l 416 603 q 394 665 416 642 q 332 689 371 689 q 203 611 256 689 q 151 462 159 546 l 105 462 l 105 625 q 399 728 261 728 q 492 699 465 728 q 519 603 519 669 l 519 179 q 547 149 519 149 q 643 211 574 149 l 643 169 m 424 467 q 247 397 326 446 q 142 250 142 332 q 169 182 142 208 q 237 157 195 157 q 385 270 334 157 q 424 467 422 355 z "},"b":{"ha":709,"x_min":-1,"x_max":683,"o":"m 683 483 q 646 312 683 397 q 547 171 610 227 q 433 102 490 120 q 300 87 385 87 l 237 87 q 165 84 184 87 q 109 45 125 75 l 64 45 q 102 205 102 115 l 102 873 q 57 933 102 933 q -1 918 36 933 l -1 951 l 225 1044 l 225 1017 q 206 981 206 1006 l 206 516 q 331 652 302 626 q 492 727 415 727 q 638 649 586 727 q 683 483 683 581 m 581 414 q 551 559 581 500 q 433 635 512 635 q 256 511 326 635 q 197 291 197 406 q 206 193 197 248 q 382 142 289 142 q 540 231 488 142 q 581 414 581 301 z "},"c":{"ha":622,"x_min":31,"x_max":571,"o":"m 571 254 q 283 68 422 68 q 98 159 170 68 q 31 360 31 245 q 126 614 31 505 q 368 728 226 728 q 552 684 453 728 l 552 507 l 503 507 q 453 636 500 585 q 328 687 406 687 q 176 600 232 687 q 128 424 128 526 q 179 244 128 319 q 337 158 237 158 q 571 301 438 158 l 571 254 z "},"d":{"ha":724,"x_min":30,"x_max":711,"o":"m 711 136 l 538 68 l 506 68 l 506 288 q 387 147 422 180 q 227 68 304 68 q 78 157 134 68 q 30 332 30 233 q 128 595 30 470 q 368 728 233 728 q 506 692 426 728 l 506 874 q 462 932 506 932 q 404 918 439 932 l 404 955 l 638 1044 l 638 1017 q 609 970 609 1005 l 609 212 q 657 156 609 156 q 711 171 679 156 l 711 136 m 514 519 q 506 602 514 566 q 324 680 412 680 q 176 575 230 680 q 133 387 133 490 q 169 238 133 305 q 288 157 212 157 q 456 294 387 157 q 514 519 514 408 z "},"e":{"ha":608,"x_min":30,"x_max":581,"o":"m 581 258 q 286 68 429 68 q 100 163 176 68 q 30 364 30 252 q 115 608 30 498 q 338 726 208 726 q 500 653 439 726 q 560 481 557 585 l 123 481 q 121 443 121 455 q 176 254 121 334 q 342 162 239 162 q 581 302 459 162 l 581 258 m 449 515 q 406 631 441 585 q 297 684 363 684 q 183 631 231 684 q 129 515 139 583 l 449 515 z "},"f":{"ha":434,"x_min":36,"x_max":471,"o":"m 471 829 l 422 829 q 339 954 419 954 q 257 892 285 954 q 235 783 235 844 q 353 656 235 656 l 409 656 l 409 625 l 243 625 l 243 226 q 266 145 243 169 q 347 120 290 121 l 347 87 l 36 87 l 36 120 q 116 145 93 121 q 140 226 140 169 l 140 625 l 36 625 l 36 656 l 66 656 q 146 748 120 656 q 234 925 176 854 q 402 1015 307 1015 q 471 1001 427 1015 l 471 829 z "},"g":{"ha":694,"x_min":-23,"x_max":682,"o":"m 682 22 q 521 -167 682 -96 q 258 -222 393 -222 q 83 -192 161 -222 q -23 -68 -23 -151 q 108 76 -23 15 q 309 138 191 115 q 260 213 260 174 q 351 332 260 260 q 327 328 345 331 q 254 320 275 320 q 121 361 175 320 q 61 482 61 406 q 161 658 61 584 q 359 726 254 726 q 484 693 403 726 q 630 655 577 655 l 678 655 l 678 623 l 540 623 q 556 559 556 588 q 515 448 556 501 q 430 361 491 414 q 349 263 349 292 q 479 181 349 224 q 608 129 572 151 q 682 22 682 85 m 450 522 q 416 633 450 587 q 315 686 378 686 q 207 635 247 686 q 170 520 170 590 q 205 407 170 454 q 309 355 244 355 q 413 408 373 355 q 450 522 450 455 m 586 -16 q 526 56 586 26 q 429 92 517 61 l 351 120 q 73 -57 73 50 q 160 -157 73 -124 q 302 -181 223 -181 q 479 -146 399 -181 q 586 -16 586 -101 z "},"h":{"ha":767,"x_min":34,"x_max":739,"o":"m 739 87 l 502 87 l 502 120 q 532 157 532 121 l 532 562 q 460 650 532 650 q 288 498 357 650 q 231 257 231 373 q 315 120 231 120 l 342 120 l 342 87 l 34 87 l 34 120 q 113 145 90 121 q 136 226 136 170 l 136 895 q 92 935 136 935 q 34 922 66 935 l 34 955 l 267 1048 l 267 1019 q 239 970 239 1008 l 239 503 q 524 728 398 728 q 635 580 635 728 l 635 226 q 658 145 635 168 q 739 120 681 121 l 739 87 z "},"i":{"ha":376,"x_min":40,"x_max":351,"o":"m 260 945 q 241 899 260 918 q 195 880 222 880 q 150 899 168 880 q 131 945 131 918 q 149 990 131 971 q 194 1010 168 1010 q 241 991 222 1010 q 260 945 260 972 m 351 87 l 40 87 l 40 120 q 120 145 97 121 q 144 226 144 169 l 144 597 q 95 640 144 640 q 56 631 77 640 q 40 625 45 626 l 40 659 l 214 728 l 247 728 l 247 226 q 270 145 247 169 q 351 120 294 121 l 351 87 z "},"j":{"ha":361,"x_min":-88,"x_max":256,"o":"m 256 945 q 237 899 256 918 q 192 880 218 880 q 146 899 165 880 q 127 945 127 918 q 146 990 127 970 q 191 1009 165 1009 q 237 991 218 1009 q 256 945 256 972 m 243 138 q 173 -93 243 22 q -16 -223 93 -223 q -88 -208 -50 -223 l -88 -24 l -39 -24 q -22 -112 -39 -75 q 47 -160 1 -160 q 119 -101 92 -160 q 140 -3 140 -54 l 140 573 q 92 636 140 636 q 37 621 68 636 l 37 656 l 212 726 l 243 726 l 243 138 z "},"k":{"ha":694,"x_min":35,"x_max":711,"o":"m 711 87 l 503 87 l 241 415 l 241 210 q 345 120 236 122 l 345 87 l 35 87 l 35 120 q 115 145 92 121 q 138 226 138 169 l 138 861 q 89 933 138 933 q 35 922 69 933 l 35 955 l 268 1048 l 268 1020 q 241 979 241 1011 l 241 425 l 396 551 q 447 634 447 597 q 366 677 447 676 l 366 709 l 684 709 l 684 677 q 477 574 601 676 l 339 460 l 473 290 q 711 120 606 121 l 711 87 z "},"l":{"ha":376,"x_min":40,"x_max":351,"o":"m 351 87 l 40 87 l 40 120 q 121 145 97 121 q 144 226 144 169 l 144 871 q 93 933 144 933 q 40 922 71 933 l 40 955 l 277 1048 l 277 1020 q 248 970 248 1006 l 248 226 q 271 145 248 169 q 351 120 294 121 l 351 87 z "},"m":{"ha":1114,"x_min":35,"x_max":1090,"o":"m 1090 87 l 854 87 l 854 120 q 883 152 883 121 l 883 541 q 811 650 883 650 q 652 501 713 650 q 604 270 604 384 q 623 163 604 196 q 715 120 648 121 l 715 87 l 481 87 l 481 120 q 509 145 509 121 l 509 562 q 493 621 509 597 q 441 648 474 648 q 280 500 341 648 q 233 267 233 384 q 251 162 233 194 q 342 120 276 120 l 342 87 l 35 87 l 35 120 q 114 145 92 121 q 137 226 137 170 l 137 581 q 93 637 137 637 q 35 623 71 637 l 35 656 l 208 726 l 240 726 l 240 519 q 351 653 313 617 q 502 727 428 727 q 612 569 612 727 q 612 526 612 551 q 724 656 688 623 q 875 728 802 728 q 957 692 926 728 q 986 606 986 659 l 986 226 q 1009 145 986 169 q 1090 120 1033 121 l 1090 87 z "},"n":{"ha":767,"x_min":35,"x_max":739,"o":"m 739 87 l 503 87 l 503 120 q 531 153 531 121 l 531 572 q 465 650 531 650 q 289 497 359 650 q 233 252 233 372 q 252 153 233 180 q 344 120 276 121 l 344 87 l 35 87 l 35 120 q 115 145 92 121 q 138 226 138 169 l 138 572 q 94 640 138 640 q 35 623 77 640 l 35 656 l 212 728 l 240 728 l 240 505 q 360 647 313 602 q 520 728 446 728 q 635 581 635 728 l 635 226 q 658 145 635 169 q 739 120 682 121 l 739 87 z "},"o":{"ha":680,"x_min":28,"x_max":650,"o":"m 650 432 q 551 179 650 287 q 307 68 450 68 q 101 151 177 68 q 28 362 28 231 q 125 614 28 505 q 368 726 227 726 q 575 644 498 726 q 650 432 650 564 m 557 357 q 522 514 557 438 q 419 637 484 593 q 310 673 365 673 q 165 603 216 673 q 120 443 120 541 q 190 233 120 328 q 376 129 266 129 q 513 202 463 129 q 557 357 557 267 z "},"p":{"ha":738,"x_min":24,"x_max":707,"o":"m 707 476 q 611 203 707 328 q 363 68 507 68 q 229 100 302 68 l 229 -60 q 253 -142 229 -118 q 334 -168 277 -167 l 334 -201 l 24 -201 l 24 -168 q 104 -142 81 -167 q 127 -60 127 -117 l 127 588 q 87 639 127 639 q 24 621 73 639 l 24 655 l 199 726 l 229 726 l 229 506 q 347 649 303 608 q 509 728 429 728 q 659 646 603 728 q 707 476 707 574 m 605 414 q 575 566 605 502 q 458 650 536 650 q 280 508 351 650 q 222 272 222 391 q 229 186 222 240 q 397 109 324 109 q 557 216 499 109 q 605 414 605 304 z "},"q":{"ha":724,"x_min":30,"x_max":713,"o":"m 713 -202 l 402 -202 l 402 -170 q 481 -144 458 -169 q 505 -62 505 -119 l 505 277 q 374 141 418 178 q 206 68 286 68 q 71 153 119 68 q 30 316 30 222 q 90 522 30 421 q 244 671 151 627 q 437 706 323 707 l 503 705 q 616 747 596 705 l 652 747 q 609 545 609 672 l 609 -62 q 632 -144 609 -119 q 713 -170 656 -169 l 713 -202 m 513 517 q 505 605 513 555 q 333 658 414 658 q 181 560 235 658 q 138 374 138 481 q 168 232 138 292 q 281 155 206 155 q 456 289 387 155 q 513 517 513 400 z "},"r":{"ha":550,"x_min":35,"x_max":534,"o":"m 534 507 l 486 507 q 414 630 485 630 q 275 479 327 630 q 235 257 235 365 q 269 144 235 172 q 387 120 300 120 l 387 87 l 35 87 l 35 120 q 115 145 92 121 q 139 226 139 169 l 139 578 q 95 637 139 637 q 35 623 77 637 l 35 655 l 213 728 l 243 728 l 243 507 q 480 726 371 726 q 534 716 503 726 l 534 507 z "},"s":{"ha":507,"x_min":56,"x_max":471,"o":"m 471 277 q 390 125 471 187 q 223 68 316 68 q 56 109 151 68 l 56 296 l 102 296 q 144 169 106 220 q 260 111 188 111 q 345 142 311 111 q 379 223 379 173 q 338 313 379 273 q 253 373 319 332 q 166 428 171 425 q 94 497 111 467 q 77 559 77 528 q 151 686 77 638 q 298 728 215 728 q 431 701 360 728 l 431 523 l 382 523 q 347 635 382 588 q 245 689 308 689 q 188 666 210 689 q 165 608 165 644 q 207 528 165 566 q 285 473 225 511 q 405 395 394 405 q 471 277 471 342 z "},"t":{"ha":405,"x_min":20,"x_max":393,"o":"m 393 626 l 227 626 l 227 191 q 260 148 227 148 q 359 202 294 148 q 371 211 367 208 l 371 172 q 187 68 256 68 q 123 166 123 68 l 123 626 l 20 626 l 20 656 q 104 681 79 656 q 130 764 130 705 l 130 866 l 269 922 l 269 887 q 226 791 226 877 q 271 671 226 698 q 336 656 295 656 l 393 656 l 393 626 z "},"u":{"ha":767,"x_min":21,"x_max":738,"o":"m 738 140 l 551 66 l 517 66 l 517 291 q 397 147 444 191 q 234 68 314 68 q 122 227 122 68 l 122 597 q 59 656 122 656 q 21 652 45 656 l 21 684 l 254 726 l 254 699 q 225 652 225 691 l 225 233 q 292 144 225 144 q 467 296 395 144 q 525 537 525 421 q 452 658 525 658 q 414 652 439 658 l 414 684 l 650 726 l 650 699 q 620 652 620 694 l 620 216 q 667 153 620 153 q 738 174 694 153 l 738 140 z "},"v":{"ha":665,"x_min":9,"x_max":672,"o":"m 672 676 q 526 506 595 668 l 336 56 l 300 56 l 127 545 q 9 676 81 675 l 9 709 l 227 709 l 227 676 q 201 652 201 676 q 208 619 201 638 l 353 212 l 438 425 q 481 595 481 531 q 382 676 481 675 l 382 709 l 672 709 l 672 676 z "},"w":{"ha":1042,"x_min":18,"x_max":1051,"o":"m 1051 676 q 952 599 996 668 q 895 481 930 564 l 717 56 l 676 56 l 531 474 q 481 378 501 418 l 458 329 q 435 279 441 296 l 344 56 l 303 56 l 147 509 q 104 613 121 584 q 18 676 68 673 l 18 709 l 235 709 l 235 676 q 208 655 208 675 q 213 632 208 646 l 358 211 l 435 395 q 484 594 484 513 q 387 676 484 674 l 387 709 l 608 709 l 608 676 q 578 656 578 676 q 585 628 578 648 l 730 211 l 814 416 q 859 597 859 525 q 760 676 859 676 l 760 709 l 1051 709 l 1051 676 z "},"x":{"ha":724,"x_min":21,"x_max":712,"o":"m 712 87 l 469 87 l 469 120 q 492 134 492 120 q 480 160 492 146 l 343 359 q 241 178 241 239 q 323 120 241 121 l 323 87 l 21 87 l 21 120 q 231 279 107 127 l 323 390 l 209 551 q 48 676 122 674 l 48 709 l 296 709 l 296 676 q 269 657 269 675 q 275 641 269 649 l 389 474 q 477 626 477 576 q 410 676 477 675 l 410 709 l 685 709 l 685 676 q 530 585 616 673 q 410 442 497 552 l 547 249 q 712 120 636 123 l 712 87 z "},"y":{"ha":651,"x_min":-9,"x_max":662,"o":"m 662 676 q 595 648 618 673 q 535 536 566 616 l 302 -67 q 100 -219 249 -206 l -9 -90 l 27 -60 q 146 -127 81 -127 q 254 -54 218 -127 q 300 56 266 -31 l 311 83 l 125 544 q 81 632 100 607 q -1 676 48 675 l -1 709 l 218 709 l 218 676 q 193 660 193 675 q 197 643 193 653 l 365 224 l 431 401 q 476 600 476 521 q 379 676 476 676 l 379 709 l 662 709 l 662 676 z "},"z":{"ha":622,"x_min":41,"x_max":578,"o":"m 578 56 l 547 56 q 491 87 545 87 l 41 87 l 41 120 l 437 676 l 310 676 q 130 524 138 676 l 85 524 l 85 739 l 117 739 l 117 734 q 153 709 117 709 l 562 709 l 562 675 l 165 120 l 310 120 q 533 294 526 120 l 578 294 l 578 56 z "},"{":{"ha":665,"x_min":195,"x_max":564,"o":"m 564 -217 q 395 -130 462 -199 q 326 45 326 -56 q 343 165 326 86 q 356 241 356 222 q 307 351 356 305 q 195 401 261 393 l 195 427 q 357 575 357 462 q 346 658 357 607 q 328 785 328 743 q 396 960 328 888 q 564 1046 461 1029 l 564 1019 q 459 969 501 1009 q 414 864 414 926 q 422 786 414 833 q 443 644 443 677 q 249 416 443 492 q 441 178 441 337 q 422 57 441 145 q 411 -35 411 1 q 564 -193 411 -157 l 564 -217 z "},"|":{"ha":709,"x_min":317,"x_max":391,"o":"m 391 -201 l 317 -201 l 317 1048 l 391 1048 l 391 -201 z "},"}":{"ha":665,"x_min":102,"x_max":471,"o":"m 471 402 q 309 253 309 367 q 319 170 309 218 q 338 43 338 81 q 270 -131 338 -58 q 102 -217 204 -200 l 102 -190 q 207 -140 165 -180 q 252 -35 252 -97 q 243 42 252 -3 q 223 185 223 153 q 416 413 223 336 q 225 650 225 492 q 243 772 225 687 q 255 863 255 831 q 102 1021 255 985 l 102 1046 q 270 958 204 1027 q 340 784 340 885 q 322 664 340 745 q 310 587 310 610 q 359 477 310 522 q 471 427 404 438 l 471 402 z "},"~":{"ha":926,"x_min":100,"x_max":827,"o":"m 827 623 q 783 487 825 541 q 657 427 736 427 q 527 458 608 427 l 404 509 q 255 552 300 552 q 132 429 155 552 l 100 429 q 142 562 102 509 q 262 624 186 624 q 521 541 328 624 q 669 497 624 497 q 758 533 724 497 q 794 623 789 567 l 827 623 z "},"":{"ha":1085,"x_min":59,"x_max":1031,"o":"m 1031 87 l 783 87 l 783 485 l 836 485 l 836 134 l 1031 134 l 1031 87 m 732 87 l 435 87 l 435 485 l 723 485 l 723 438 l 488 438 l 488 317 l 708 317 l 708 270 l 488 270 l 488 134 l 732 134 l 732 87 m 388 288 q 350 151 388 203 q 267 94 319 107 q 202 87 239 87 l 59 87 l 59 485 l 196 485 q 267 479 242 485 q 372 383 342 462 q 388 288 388 342 m 334 290 q 263 430 334 403 q 195 438 242 438 l 111 438 l 111 134 l 197 134 q 294 162 266 134 q 334 290 334 202 z "}," ":{"ha":339,"x_min":0,"x_max":0,"o":""},"¡":{"ha":441,"x_min":122,"x_max":297,"o":"m 244 665 q 226 623 244 641 q 183 604 208 604 q 140 623 158 604 q 122 665 122 641 q 140 708 122 690 q 182 726 158 726 q 226 708 208 726 q 244 665 244 690 m 297 55 q 148 -64 245 55 l 148 490 l 219 562 l 219 236 q 297 55 219 193 z "},"¢":{"ha":622,"x_min":31,"x_max":571,"o":"m 571 247 q 351 72 456 105 l 351 -41 l 302 -41 l 302 62 q 76 185 153 62 q 31 353 31 256 q 105 583 31 478 q 302 718 183 692 l 302 826 l 351 826 l 351 724 q 551 682 455 724 l 551 503 l 505 503 q 460 622 499 572 q 351 682 417 675 l 351 155 q 571 300 444 157 l 571 247 m 302 158 l 302 682 q 170 585 218 667 q 127 421 127 512 q 170 256 127 328 q 302 158 217 175 z "},"£":{"ha":810,"x_min":104,"x_max":811,"o":"m 811 292 q 749 153 774 195 q 634 68 696 68 q 462 112 583 68 q 290 155 342 155 q 144 52 205 155 l 104 52 q 192 184 125 88 q 269 298 252 269 q 311 427 311 374 q 268 542 311 489 l 104 542 l 104 589 l 176 589 q 214 612 214 589 q 207 639 214 620 q 186 732 186 690 q 294 911 186 840 q 502 975 389 975 q 707 932 575 975 l 707 728 l 659 728 q 600 872 650 814 q 461 937 544 937 q 340 888 388 937 q 292 767 292 840 q 357 633 292 682 q 504 589 416 589 l 602 589 l 602 542 l 408 542 q 416 503 416 522 q 366 374 416 453 q 281 260 355 357 q 326 267 306 267 q 483 227 363 267 q 659 177 632 177 q 781 302 728 177 l 811 292 z "},"¤":{"ha":694,"x_min":18,"x_max":675,"o":"m 675 259 l 635 222 l 538 319 q 355 249 448 249 q 249 267 303 249 q 155 319 186 286 l 56 222 l 18 259 l 116 357 q 47 549 47 437 q 116 741 47 655 l 18 836 l 56 875 l 155 779 q 349 848 235 848 q 538 779 458 848 l 635 875 l 675 836 l 577 741 q 647 550 647 651 q 577 357 647 446 l 675 259 m 593 548 q 558 671 593 612 q 468 761 524 730 q 347 793 410 793 q 173 721 245 793 q 102 547 102 650 q 174 374 102 446 q 347 303 245 303 q 520 375 448 303 q 593 548 593 447 z "},"¥":{"ha":810,"x_min":24,"x_max":838,"o":"m 838 922 q 676 770 764 921 l 498 468 l 781 468 l 781 419 l 471 419 l 471 321 l 781 321 l 781 272 l 471 272 l 471 228 q 574 120 471 123 l 574 87 l 242 87 l 242 120 q 324 144 302 121 q 345 228 345 167 l 345 272 l 73 272 l 73 321 l 345 321 l 345 419 l 73 419 l 73 468 l 321 468 l 176 761 q 117 862 141 830 q 24 922 72 922 l 24 955 l 270 955 l 270 922 q 244 904 244 922 q 247 892 244 897 l 460 469 q 625 844 625 726 q 591 909 625 892 q 514 922 568 922 l 514 955 l 838 955 l 838 922 z "},"¦":{"ha":278,"x_min":109,"x_max":165,"o":"m 165 549 l 109 549 l 109 1052 l 165 1052 l 165 549 m 165 -212 l 109 -212 l 109 291 l 165 291 l 165 -212 z "},"§":{"ha":578,"x_min":64,"x_max":517,"o":"m 517 422 q 359 209 517 282 q 466 124 439 154 q 515 3 515 71 q 422 -162 515 -98 q 233 -219 339 -219 q 72 -180 155 -219 l 72 5 l 122 5 q 159 -120 123 -71 q 273 -176 201 -176 q 381 -134 334 -176 q 428 -31 428 -92 q 371 79 428 28 q 262 150 349 98 q 130 245 167 208 q 64 389 64 310 q 237 604 64 535 q 131 686 161 653 q 82 806 82 739 q 159 962 82 907 q 331 1011 226 1011 q 481 981 406 1011 l 481 810 l 434 810 q 389 923 425 880 q 283 975 349 975 q 195 940 231 975 q 159 854 159 906 q 210 751 159 799 q 309 682 235 729 q 451 577 414 615 q 517 422 517 509 m 447 382 q 389 497 447 444 q 279 572 357 527 q 142 427 142 538 q 210 311 142 368 q 326 232 242 282 q 447 382 447 292 z "},"¨":{"ha":463,"x_min":41,"x_max":425,"o":"m 425 916 q 405 867 425 887 q 356 847 385 847 q 308 867 328 847 q 288 916 288 887 q 307 964 288 943 q 355 984 327 984 q 404 964 384 984 q 425 916 425 945 m 178 916 q 158 868 178 888 q 109 848 138 848 q 61 868 81 848 q 41 916 41 888 q 61 964 41 944 q 109 984 81 984 q 158 965 138 984 q 178 916 178 945 z "},"©":{"ha":1063,"x_min":52,"x_max":1011,"o":"m 1011 494 q 871 155 1011 295 q 531 15 730 15 q 191 155 331 15 q 52 494 52 294 q 192 834 52 694 q 531 975 332 975 q 871 834 731 975 q 1011 494 1011 694 m 975 494 q 913 719 975 613 q 747 881 852 824 q 531 937 643 937 q 217 808 347 937 q 87 494 87 678 q 217 180 87 309 q 531 50 347 50 q 845 180 715 50 q 975 494 975 310 m 773 347 q 536 199 686 199 q 328 286 409 199 q 248 500 248 372 q 329 717 248 627 q 539 810 414 810 q 656 785 593 810 q 698 774 681 774 q 725 812 724 774 l 745 812 l 758 613 l 739 613 q 546 780 691 780 q 387 690 444 780 q 339 505 339 614 q 390 321 339 391 q 557 241 448 241 q 758 357 675 241 l 773 347 z "},"ª":{"ha":434,"x_min":26,"x_max":426,"o":"m 426 608 q 315 540 358 540 q 276 586 276 540 l 276 650 q 110 542 172 542 q 50 569 74 542 q 26 632 26 595 q 276 842 26 726 l 276 888 q 223 953 276 953 q 134 903 170 953 q 100 802 104 859 l 69 802 l 69 909 q 264 977 172 977 q 344 914 344 977 l 344 620 q 360 594 344 594 q 426 633 382 594 l 426 608 m 280 802 q 163 757 215 789 q 94 661 94 715 q 156 600 94 600 q 254 673 221 600 q 280 802 279 728 z "},"«":{"ha":579,"x_min":47,"x_max":545,"o":"m 545 87 l 482 87 l 252 359 l 482 625 l 541 625 l 388 359 l 545 87 m 337 87 l 277 87 l 47 359 l 278 625 l 337 625 l 184 359 l 337 87 z "},"¬":{"ha":926,"x_min":96,"x_max":829,"o":"m 829 332 l 755 332 l 755 648 l 96 648 l 96 722 l 829 722 l 829 332 z "},"­":{"ha":783,"x_min":24,"x_max":750,"o":"m 750 628 l 24 628 l 24 683 l 750 683 l 750 628 z "},"®":{"ha":1063,"x_min":52,"x_max":1011,"o":"m 1011 494 q 871 155 1011 295 q 531 15 730 15 q 191 155 331 15 q 52 494 52 294 q 192 834 52 694 q 531 975 332 975 q 871 834 731 975 q 1011 494 1011 694 m 975 494 q 913 719 975 613 q 747 881 852 824 q 531 937 643 937 q 217 808 347 937 q 87 494 87 678 q 217 180 87 309 q 531 50 347 50 q 845 180 715 50 q 975 494 975 310 m 807 206 l 669 206 l 631 260 l 614 283 l 471 481 l 423 481 l 423 326 q 455 237 423 251 q 510 231 466 231 l 510 206 l 262 206 l 262 231 q 332 250 318 231 q 344 326 344 266 l 344 682 q 330 753 344 735 q 262 771 313 772 l 262 793 l 434 793 q 557 787 523 793 q 663 734 625 775 q 698 641 698 695 q 653 538 698 577 q 547 496 612 502 l 659 344 q 720 267 704 282 q 807 231 758 231 l 807 206 m 610 649 q 481 763 610 763 q 423 751 451 763 l 423 509 q 444 509 437 509 q 610 649 610 509 z "},"¯":{"ha":463,"x_min":56,"x_max":409,"o":"m 409 880 l 56 880 l 56 953 l 409 953 l 409 880 z "},"°":{"ha":521,"x_min":70,"x_max":484,"o":"m 484 772 q 423 626 484 687 q 277 566 362 566 q 130 626 191 566 q 70 772 70 686 q 130 919 70 859 q 277 979 191 979 q 424 919 363 979 q 484 772 484 859 m 440 772 q 393 888 440 841 q 277 936 345 936 q 161 888 209 936 q 113 772 113 840 q 161 656 113 704 q 277 609 208 609 q 392 657 345 609 q 440 772 440 705 z "},"±":{"ha":642,"x_min":71,"x_max":566,"o":"m 566 307 l 349 307 l 349 135 l 292 135 l 292 307 l 71 307 l 71 363 l 292 363 l 292 585 l 349 585 l 349 363 l 566 363 l 566 307 m 566 31 l 71 31 l 71 87 l 566 87 l 566 31 z "},"²":{"ha":492,"x_min":44,"x_max":434,"o":"m 434 671 l 401 509 l 379 509 q 367 527 378 527 l 44 527 l 44 552 q 206 740 165 686 q 315 954 315 881 q 255 1017 315 1017 q 127 867 166 1017 l 94 867 l 94 985 q 300 1045 208 1045 q 417 943 417 1045 q 376 846 417 897 q 300 769 357 822 l 127 610 l 340 610 q 410 671 397 610 l 434 671 z "},"³":{"ha":492,"x_min":73,"x_max":432,"o":"m 432 704 q 355 565 432 621 q 200 513 286 513 q 73 538 140 513 l 73 692 l 106 692 q 143 591 111 635 q 235 542 181 542 q 311 573 283 542 q 338 653 338 604 q 157 789 338 783 l 157 814 q 257 858 215 823 q 304 952 304 897 q 245 1015 304 1015 q 161 963 195 1015 q 129 864 131 918 l 96 864 l 96 983 q 292 1044 216 1044 q 396 962 396 1044 q 330 862 396 905 q 215 808 296 839 q 354 798 319 808 q 432 704 432 778 z "},"´":{"ha":463,"x_min":183,"x_max":350,"o":"m 350 983 q 326 939 350 966 l 212 812 l 183 831 l 270 993 q 309 1023 286 1023 q 337 1011 325 1023 q 350 983 350 999 z "},"µ":{"ha":709,"x_min":39,"x_max":698,"o":"m 698 223 q 664 115 694 157 q 567 66 629 66 q 458 198 471 66 q 239 68 339 68 q 115 151 155 68 q 116 90 115 123 q 121 -9 116 24 q 134 -69 123 -29 q 149 -147 149 -124 q 135 -192 149 -173 q 95 -213 120 -213 q 55 -193 70 -213 q 39 -149 39 -174 q 54 -74 39 -127 q 75 53 71 -11 q 81 307 76 117 l 81 332 l 81 709 l 173 709 l 173 295 q 286 142 173 142 q 458 239 355 142 l 458 709 l 547 709 l 547 277 q 552 190 547 212 q 604 132 564 132 q 669 223 651 132 l 698 223 z "},"¶":{"ha":608,"x_min":-5,"x_max":610,"o":"m 610 930 q 530 903 545 927 q 518 812 518 884 l 518 -222 l 479 -222 l 479 918 l 352 918 l 352 -222 l 312 -222 l 312 463 q -5 699 -5 456 q 41 847 -5 781 q 167 937 90 918 q 352 955 235 955 l 610 955 l 610 930 z "},"·":{"ha":275,"x_min":58,"x_max":221,"o":"m 221 521 q 197 463 221 487 q 139 439 173 439 q 82 464 106 439 q 58 521 58 488 q 81 578 58 554 q 138 603 104 603 q 197 579 172 603 q 221 521 221 555 z "},"¸":{"ha":463,"x_min":147,"x_max":368,"o":"m 368 -62 q 328 -134 368 -106 q 245 -158 292 -158 q 147 -141 207 -158 l 147 -104 q 234 -123 202 -123 q 292 -75 292 -123 q 225 -22 292 -22 l 189 -22 l 189 103 l 225 103 l 225 12 q 250 13 242 13 q 368 -62 368 13 z "},"¹":{"ha":492,"x_min":114,"x_max":374,"o":"m 374 519 l 138 519 l 138 544 l 159 544 q 211 591 211 544 l 211 907 q 174 960 211 960 q 114 946 153 960 l 114 970 l 323 1044 l 323 1024 q 301 989 301 1020 l 301 591 q 349 544 301 544 l 374 544 l 374 519 z "},"º":{"ha":448,"x_min":22,"x_max":433,"o":"m 433 779 q 368 614 433 685 q 208 540 301 540 q 72 593 122 540 q 22 733 22 647 q 85 899 22 827 q 245 975 152 975 q 383 921 333 975 q 433 779 433 868 m 372 732 q 328 869 372 806 q 208 940 280 940 q 113 894 147 940 q 82 789 82 852 q 127 649 82 713 q 250 578 178 578 q 342 627 309 578 q 372 732 372 671 z "},"»":{"ha":579,"x_min":34,"x_max":532,"o":"m 532 359 l 302 87 l 242 87 l 395 359 l 242 625 l 301 625 l 532 359 m 328 359 l 97 87 l 34 87 l 191 359 l 38 625 l 97 625 l 328 359 z "},"¼":{"ha":1186,"x_min":119,"x_max":1128,"o":"m 1128 223 l 1052 223 l 1052 153 q 1097 101 1052 101 l 1112 101 l 1112 77 l 888 77 l 888 101 l 908 101 q 962 153 962 101 l 962 223 l 731 223 l 731 248 l 886 427 q 1017 601 938 494 l 1052 601 l 1052 269 l 1128 269 l 1128 223 m 934 1046 l 306 66 l 246 66 l 876 1046 l 934 1046 m 378 519 l 142 519 l 142 544 l 163 544 q 216 591 216 544 l 216 907 q 179 960 216 960 q 119 946 157 960 l 119 970 l 328 1046 l 328 1024 q 306 989 306 1020 l 306 591 q 353 544 306 544 l 378 544 l 378 519 m 962 269 l 962 456 q 787 269 888 391 l 962 269 z "},"½":{"ha":1186,"x_min":119,"x_max":1128,"o":"m 1128 226 l 1095 64 l 1073 64 q 1061 83 1072 83 l 738 83 l 738 107 q 900 294 859 242 q 1010 509 1010 436 q 949 573 1010 573 q 821 422 861 573 l 788 422 l 788 544 q 994 601 902 601 q 1112 498 1112 601 q 1057 384 1112 446 q 962 295 1039 363 q 821 165 910 250 l 1034 165 q 1104 226 1093 165 l 1128 226 m 934 1046 l 306 64 l 246 64 l 876 1046 l 934 1046 m 378 519 l 142 519 l 142 544 l 163 544 q 216 591 216 544 l 216 907 q 179 960 216 960 q 119 946 158 960 l 119 970 l 328 1046 l 328 1024 q 306 989 306 1020 l 306 591 q 353 544 306 544 l 378 544 l 378 519 z "},"¾":{"ha":1186,"x_min":77,"x_max":1129,"o":"m 1129 223 l 1052 223 l 1052 153 q 1097 101 1052 101 l 1112 101 l 1112 77 l 891 77 l 891 101 l 909 101 q 962 153 962 101 l 962 223 l 731 223 l 731 248 l 880 419 q 1017 601 956 507 l 1052 601 l 1052 269 l 1129 269 l 1129 223 m 949 1046 l 323 66 l 262 66 l 891 1046 l 949 1046 m 437 704 q 360 565 437 621 q 205 513 290 513 q 77 538 144 513 l 77 692 l 111 692 q 148 591 115 635 q 240 542 186 542 q 315 573 288 542 q 342 653 342 604 q 161 789 342 783 l 161 814 q 262 858 220 823 q 309 952 309 897 q 250 1015 309 1015 q 165 963 199 1015 q 134 864 136 918 l 100 864 l 100 983 q 297 1044 220 1044 q 401 962 401 1044 q 220 808 401 875 q 359 798 323 808 q 437 704 437 777 m 962 269 l 962 456 q 787 269 886 390 l 962 269 z "},"¿":{"ha":622,"x_min":-7,"x_max":530,"o":"m 409 601 q 385 543 409 567 q 328 519 361 519 q 270 543 294 519 q 247 601 247 567 q 270 658 247 634 q 326 682 293 682 q 385 659 361 682 q 409 601 409 635 m 530 -122 q 188 -224 345 -224 q 54 -190 106 -224 q -7 -72 -7 -150 q 39 57 -7 -7 q 135 159 66 93 q 249 290 218 239 q 292 454 292 361 l 360 454 q 331 277 359 350 q 237 123 306 213 q 141 -69 141 -3 q 175 -154 141 -123 q 262 -186 208 -186 q 425 -98 360 -186 q 486 83 481 -20 l 530 83 l 530 -122 z "},"À":{"ha":839,"x_min":6,"x_max":838,"o":"m 838 87 l 594 87 l 594 120 l 610 120 q 621 142 621 120 q 618 157 621 149 l 537 393 l 241 393 q 194 197 194 262 q 216 141 194 162 q 274 120 239 120 l 310 120 l 310 87 l 6 87 l 6 120 q 144 282 83 124 l 422 991 l 463 991 l 703 298 q 749 188 728 224 q 838 120 789 122 l 838 87 m 522 435 l 399 795 l 256 435 l 522 435 m 492 1042 l 467 1028 l 373 1134 q 328 1200 328 1184 q 369 1242 328 1242 q 414 1199 393 1242 l 492 1042 z "},"×":{"ha":642,"x_min":89,"x_max":544,"o":"m 544 149 l 505 110 l 317 296 l 129 110 l 89 149 l 275 337 l 89 526 l 131 564 l 317 376 l 505 564 l 544 526 l 355 337 l 544 149 z "},"à":{"ha":651,"x_min":39,"x_max":643,"o":"m 643 169 q 475 68 540 68 q 416 133 416 68 l 416 233 q 162 68 255 68 q 73 110 109 68 q 39 204 39 150 q 416 522 39 351 l 416 603 q 394 665 416 642 q 332 689 371 689 q 203 611 256 689 q 151 462 159 546 l 105 462 l 105 625 q 399 728 261 728 q 492 699 465 728 q 519 603 519 669 l 519 179 q 547 149 519 149 q 643 211 574 149 l 643 169 m 424 467 q 247 397 326 446 q 142 250 142 332 q 169 182 142 208 q 237 157 195 157 q 385 270 334 157 q 424 467 422 355 m 404 823 l 379 809 l 285 915 q 240 981 240 965 q 281 1023 240 1023 q 326 980 305 1023 l 404 823 z "},"â":{"ha":651,"x_min":39,"x_max":643,"o":"m 643 169 q 475 68 540 68 q 416 133 416 68 l 416 233 q 162 68 255 68 q 73 110 109 68 q 39 204 39 150 q 416 522 39 351 l 416 603 q 394 665 416 642 q 332 689 371 689 q 203 611 256 689 q 151 462 159 546 l 105 462 l 105 625 q 399 728 261 728 q 492 699 465 728 q 519 603 519 669 l 519 179 q 547 149 519 149 q 643 211 574 149 l 643 169 m 424 467 q 247 397 326 446 q 142 250 142 332 q 169 182 142 208 q 237 157 195 157 q 385 270 334 157 q 424 467 422 355 m 511 837 l 467 837 l 321 922 l 178 837 l 132 837 l 321 1001 l 511 837 z "},"ç":{"ha":622,"x_min":35,"x_max":574,"o":"m 574 251 q 313 69 439 83 l 313 9 q 352 12 337 12 q 451 -63 451 12 q 408 -136 451 -109 q 323 -159 371 -159 q 236 -139 282 -159 l 236 -101 q 316 -122 278 -122 q 382 -72 382 -122 q 307 -21 382 -21 q 279 -22 296 -21 l 279 69 q 100 164 171 69 q 35 362 35 250 q 208 677 35 558 q 370 726 278 726 q 556 681 455 726 l 556 505 l 507 505 q 457 633 505 582 q 331 687 407 687 q 180 599 235 687 q 133 422 133 524 q 183 243 133 319 q 338 157 241 157 q 574 298 439 157 l 574 251 z "},"è":{"ha":608,"x_min":30,"x_max":581,"o":"m 581 258 q 286 68 429 68 q 100 163 176 68 q 30 364 30 252 q 115 608 30 498 q 338 726 208 726 q 500 653 439 726 q 560 481 557 585 l 123 481 q 121 443 121 455 q 176 254 121 334 q 342 162 239 162 q 581 302 459 162 l 581 258 m 449 515 q 406 631 441 585 q 297 684 363 684 q 183 631 231 684 q 129 515 139 583 l 449 515 m 384 823 l 359 809 l 265 915 q 220 981 220 965 q 261 1023 220 1023 q 307 980 286 1023 l 384 823 z "},"é":{"ha":608,"x_min":30,"x_max":581,"o":"m 581 258 q 286 68 429 68 q 100 163 176 68 q 30 364 30 252 q 115 608 30 498 q 338 726 208 726 q 500 653 439 726 q 560 481 557 585 l 123 481 q 121 443 121 455 q 176 254 121 334 q 342 162 239 162 q 581 302 459 162 l 581 258 m 449 515 q 406 631 441 585 q 297 684 363 684 q 183 631 231 684 q 129 515 139 583 l 449 515 m 425 983 q 401 939 425 966 l 286 812 l 258 831 l 345 993 q 383 1023 361 1023 q 412 1011 399 1023 q 425 983 425 999 z "},"ê":{"ha":608,"x_min":30,"x_max":581,"o":"m 581 258 q 286 68 429 68 q 100 163 176 68 q 30 364 30 252 q 115 608 30 498 q 338 726 208 726 q 500 653 439 726 q 560 481 557 585 l 123 481 q 121 443 121 455 q 176 254 121 334 q 342 162 239 162 q 581 302 459 162 l 581 258 m 449 515 q 406 631 441 585 q 297 684 363 684 q 183 631 231 684 q 129 515 139 583 l 449 515 m 506 837 l 461 837 l 316 922 l 173 837 l 127 837 l 316 1001 l 506 837 z "},"ë":{"ha":608,"x_min":30,"x_max":581,"o":"m 581 258 q 286 68 429 68 q 100 163 176 68 q 30 364 30 252 q 115 608 30 498 q 338 726 208 726 q 500 653 439 726 q 560 481 557 585 l 123 481 q 121 443 121 455 q 176 254 121 334 q 342 162 239 162 q 581 302 459 162 l 581 258 m 449 515 q 406 631 441 585 q 297 684 363 684 q 183 631 231 684 q 129 515 139 583 l 449 515 m 519 916 q 499 867 519 887 q 451 847 479 847 q 402 867 422 847 q 382 916 382 887 q 402 964 382 943 q 450 984 422 984 q 499 964 479 984 q 519 916 519 945 m 273 916 q 253 868 273 888 q 204 848 233 848 q 156 868 176 848 q 136 916 136 888 q 156 964 136 944 q 203 984 176 984 q 253 965 233 984 q 273 916 273 945 z "},"î":{"ha":376,"x_min":-11,"x_max":368,"o":"m 351 87 l 40 87 l 40 120 q 120 145 97 121 q 144 226 144 169 l 144 597 q 95 640 144 640 q 56 631 77 640 q 40 625 45 626 l 40 659 l 214 728 l 247 728 l 247 226 q 270 145 247 169 q 351 120 294 121 l 351 87 m 368 837 l 323 837 l 178 922 l 35 837 l -11 837 l 178 1001 l 368 837 z "},"ï":{"ha":376,"x_min":-3,"x_max":380,"o":"m 351 87 l 40 87 l 40 120 q 120 145 97 121 q 144 226 144 169 l 144 597 q 95 640 144 640 q 56 631 77 640 q 40 625 45 626 l 40 659 l 214 728 l 247 728 l 247 226 q 270 145 247 169 q 351 120 294 121 l 351 87 m 380 916 q 360 867 380 887 q 312 847 340 847 q 263 867 283 847 q 243 916 243 887 q 263 964 243 943 q 311 984 283 984 q 360 964 340 984 q 380 916 380 945 m 134 916 q 114 868 134 888 q 65 848 94 848 q 17 868 37 848 q -3 916 -3 888 q 17 964 -3 944 q 64 984 37 984 q 114 965 94 984 q 134 916 134 945 z "},"ô":{"ha":680,"x_min":28,"x_max":650,"o":"m 650 432 q 551 179 650 287 q 307 68 450 68 q 101 151 177 68 q 28 362 28 231 q 125 614 28 505 q 368 726 227 726 q 575 644 498 726 q 650 432 650 564 m 557 357 q 522 514 557 438 q 419 637 484 593 q 310 673 365 673 q 165 603 216 673 q 120 443 120 541 q 190 233 120 328 q 376 129 266 129 q 513 202 463 129 q 557 357 557 267 m 532 837 l 488 837 l 342 922 l 199 837 l 153 837 l 342 1001 l 532 837 z "},"÷":{"ha":642,"x_min":71,"x_max":566,"o":"m 372 524 q 356 482 372 499 q 316 465 340 465 q 275 482 292 465 q 258 524 258 500 q 275 564 258 547 q 316 580 292 580 q 356 564 340 580 q 372 524 372 547 m 566 307 l 71 307 l 71 363 l 566 363 l 566 307 m 372 146 q 356 104 372 121 q 316 87 340 87 q 275 105 292 87 q 258 146 258 122 q 275 187 258 170 q 316 203 292 203 q 356 187 340 203 q 372 146 372 170 z "},"ù":{"ha":767,"x_min":21,"x_max":738,"o":"m 738 140 l 551 66 l 517 66 l 517 291 q 397 147 444 191 q 234 68 314 68 q 122 227 122 68 l 122 597 q 59 656 122 656 q 21 652 45 656 l 21 684 l 254 726 l 254 699 q 225 652 225 691 l 225 233 q 292 144 225 144 q 467 296 395 144 q 525 537 525 421 q 452 658 525 658 q 414 652 439 658 l 414 684 l 650 726 l 650 699 q 620 652 620 694 l 620 216 q 667 153 620 153 q 738 174 694 153 l 738 140 m 425 823 l 401 809 l 307 915 q 262 981 262 965 q 302 1023 262 1023 q 348 980 327 1023 l 425 823 z "},"û":{"ha":767,"x_min":21,"x_max":738,"o":"m 738 140 l 551 66 l 517 66 l 517 291 q 397 147 444 191 q 234 68 314 68 q 122 227 122 68 l 122 597 q 59 656 122 656 q 21 652 45 656 l 21 684 l 254 726 l 254 699 q 225 652 225 691 l 225 233 q 292 144 225 144 q 467 296 395 144 q 525 537 525 421 q 452 658 525 658 q 414 652 439 658 l 414 684 l 650 726 l 650 699 q 620 652 620 694 l 620 216 q 667 153 620 153 q 738 174 694 153 l 738 140 m 550 837 l 505 837 l 360 922 l 217 837 l 171 837 l 360 1001 l 550 837 z "},"ü":{"ha":767,"x_min":21,"x_max":738,"o":"m 738 140 l 551 66 l 517 66 l 517 291 q 397 147 444 191 q 234 68 314 68 q 122 227 122 68 l 122 597 q 59 656 122 656 q 21 652 45 656 l 21 684 l 254 726 l 254 699 q 225 652 225 691 l 225 233 q 292 144 225 144 q 467 296 395 144 q 525 537 525 421 q 452 658 525 658 q 414 652 439 658 l 414 684 l 650 726 l 650 699 q 620 652 620 694 l 620 216 q 667 153 620 153 q 738 174 694 153 l 738 140 m 554 916 q 534 867 554 887 q 486 847 514 847 q 437 867 457 847 q 417 916 417 887 q 437 964 417 943 q 484 984 456 984 q 534 964 513 984 q 554 916 554 945 m 307 916 q 287 868 307 888 q 239 848 267 848 q 191 868 210 848 q 171 916 171 888 q 191 964 171 944 q 238 984 210 984 q 287 965 267 984 q 307 916 307 945 z "},"ÿ":{"ha":651,"x_min":-9,"x_max":662,"o":"m 662 676 q 595 648 618 673 q 535 536 566 616 l 302 -67 q 100 -219 249 -206 l -9 -90 l 27 -60 q 146 -127 81 -127 q 254 -54 218 -127 q 300 56 266 -31 l 311 83 l 125 544 q 81 632 100 607 q -1 676 48 675 l -1 709 l 218 709 l 218 676 q 193 660 193 675 q 197 643 193 653 l 365 224 l 431 401 q 476 600 476 521 q 379 676 476 676 l 379 709 l 662 709 l 662 676 m 522 916 q 502 867 522 887 q 454 847 482 847 q 405 867 425 847 q 385 916 385 887 q 405 964 385 943 q 452 984 425 984 q 502 964 481 984 q 522 916 522 945 m 275 916 q 255 868 275 888 q 207 848 235 848 q 159 868 178 848 q 139 916 139 888 q 159 964 139 944 q 206 984 178 984 q 255 965 235 984 q 275 916 275 945 z "},"ı":{"ha":376,"x_min":40,"x_max":351,"o":"m 351 87 l 40 87 l 40 120 q 120 145 97 121 q 144 226 144 169 l 144 597 q 95 640 144 640 q 56 631 77 640 q 40 625 45 626 l 40 659 l 214 728 l 247 728 l 247 226 q 270 145 247 169 q 351 120 294 121 l 351 87 z "},"Œ":{"ha":1201,"x_min":54,"x_max":1177,"o":"m 1177 314 l 1125 56 l 1090 56 l 1091 62 q 1061 87 1091 87 l 714 87 q 610 78 692 87 q 482 68 522 68 q 119 254 243 68 q 54 477 54 351 q 220 843 54 690 q 377 941 296 912 q 560 968 453 968 q 631 963 588 968 q 745 955 704 955 l 1061 955 q 1100 987 1100 955 l 1133 987 l 1133 728 l 1084 728 q 871 922 1084 922 l 800 922 q 791 787 791 873 q 833 621 791 674 q 989 562 880 562 l 1049 562 l 1049 515 l 800 509 l 800 120 l 876 120 q 1125 314 1086 120 l 1177 314 m 676 120 l 676 850 q 477 919 591 919 q 248 823 334 919 q 166 585 166 730 q 224 349 166 459 q 390 173 285 232 q 604 113 496 113 q 676 120 648 113 z "},"œ":{"ha":1143,"x_min":32,"x_max":1101,"o":"m 1101 257 q 804 68 939 68 q 581 219 669 68 q 309 68 469 68 q 106 154 182 68 q 32 364 32 236 q 130 618 32 510 q 376 728 231 728 q 616 587 538 728 q 852 728 720 728 q 1017 657 957 728 q 1077 484 1072 591 l 640 484 q 639 451 639 461 q 693 256 639 338 q 863 162 756 162 q 1101 304 977 162 l 1101 257 m 965 517 q 922 633 961 586 q 813 686 880 686 q 701 632 749 686 q 645 517 658 585 l 965 517 m 555 357 q 490 566 555 470 q 309 673 418 673 q 168 603 219 673 q 121 446 121 540 q 190 237 121 334 q 373 130 265 130 q 512 201 463 130 q 555 357 555 264 z "},"Š":{"ha":622,"x_min":65,"x_max":585,"o":"m 585 340 q 479 144 585 227 q 264 68 382 68 q 65 111 176 68 l 65 355 l 113 355 q 166 191 113 261 q 315 113 224 113 q 432 156 387 113 q 477 269 477 198 q 409 408 477 343 q 278 502 381 433 q 149 595 191 559 q 102 659 121 620 q 86 730 86 693 q 185 909 86 837 q 385 975 275 975 q 546 940 446 975 l 546 727 l 496 727 q 448 865 492 808 q 323 928 400 928 q 229 895 267 928 q 190 803 190 859 q 269 663 190 734 q 404 566 298 637 q 526 474 498 503 q 585 340 585 415 m 548 1221 l 358 1057 l 168 1221 l 214 1221 l 358 1131 l 503 1221 l 548 1221 z "},"š":{"ha":507,"x_min":56,"x_max":471,"o":"m 471 277 q 390 125 471 187 q 223 68 316 68 q 56 109 151 68 l 56 296 l 102 296 q 144 169 106 220 q 260 111 188 111 q 345 142 311 111 q 379 223 379 173 q 338 313 379 273 q 253 373 319 332 q 166 428 171 425 q 94 497 111 467 q 77 559 77 528 q 151 686 77 638 q 298 728 215 728 q 431 701 360 728 l 431 523 l 382 523 q 347 635 382 588 q 245 689 308 689 q 188 666 210 689 q 165 608 165 644 q 207 528 165 566 q 285 473 225 511 q 405 395 394 405 q 471 277 471 342 m 455 999 l 265 835 l 75 999 l 121 999 l 265 909 l 410 999 l 455 999 z "},"Ÿ":{"ha":810,"x_min":24,"x_max":838,"o":"m 838 922 q 676 770 764 921 l 471 420 l 471 228 q 574 120 471 123 l 574 87 l 242 87 l 242 120 q 324 144 302 121 q 345 228 345 167 l 345 420 l 176 761 q 117 862 141 830 q 24 922 72 922 l 24 955 l 270 955 l 270 922 q 244 904 244 922 q 247 892 244 897 l 460 469 q 625 844 625 726 q 591 909 625 892 q 514 922 568 922 l 514 955 l 838 955 l 838 922 m 623 1136 q 603 1087 623 1107 q 555 1067 583 1067 q 506 1087 526 1067 q 486 1136 486 1107 q 506 1184 486 1164 q 553 1204 526 1204 q 603 1185 583 1204 q 623 1136 623 1165 m 376 1137 q 356 1088 376 1108 q 308 1068 336 1068 q 260 1088 279 1068 q 240 1137 240 1108 q 260 1184 240 1164 q 307 1204 279 1204 q 356 1185 336 1204 q 376 1137 376 1166 z "},"ƒ":{"ha":738,"x_min":0,"x_max":738,"o":"m 738 970 l 628 852 l 605 873 q 612 901 612 888 q 595 942 612 925 q 554 959 578 959 q 446 880 492 959 q 404 745 404 811 q 531 659 404 659 l 595 659 l 588 627 l 376 627 l 254 138 q 179 -53 222 15 q 47 -202 135 -121 l 0 -202 q 132 -45 90 -124 q 191 152 172 32 l 263 627 l 168 627 l 177 659 q 267 694 231 659 q 324 778 288 715 q 433 929 385 881 q 628 1021 528 1021 q 738 970 699 1021 z "},"ˆ":{"ha":463,"x_min":41,"x_max":420,"o":"m 420 837 l 376 837 l 231 922 l 87 837 l 41 837 l 231 1001 l 420 837 z "},"ˇ":{"ha":463,"x_min":38,"x_max":418,"o":"m 418 999 l 229 835 l 38 999 l 84 999 l 229 909 l 374 999 l 418 999 z "},"،":{"ha":281,"x_min":78,"x_max":216,"o":"m 216 253 q 197 243 205 249 q 181 230 188 237 q 170 216 174 223 q 166 201 166 208 q 201 147 201 189 q 184 105 201 122 q 142 87 167 87 q 96 107 114 87 q 78 159 78 127 q 85 204 78 180 q 108 252 93 228 q 145 298 123 275 q 197 339 168 320 q 216 253 197 263 z "},"؛":{"ha":281,"x_min":78,"x_max":216,"o":"m 216 437 q 197 427 205 433 q 181 414 188 421 q 170 399 174 407 q 166 385 166 392 q 201 331 201 372 q 184 289 201 306 q 142 271 167 271 q 96 291 114 271 q 78 342 78 311 q 85 388 78 364 q 108 435 93 412 q 145 481 123 459 q 197 523 168 504 q 216 437 197 447 m 201 149 q 197 125 201 136 q 183 106 192 114 q 164 93 175 98 q 141 87 153 87 q 118 93 129 87 q 98 106 106 98 q 84 125 90 114 q 79 149 79 136 q 84 172 79 161 q 98 191 90 183 q 117 204 106 199 q 140 210 128 210 q 164 204 153 210 q 183 191 175 199 q 197 172 192 183 q 201 149 201 161 z "},"؟":{"ha":441,"x_min":47,"x_max":393,"o":"m 393 721 q 387 679 393 699 q 368 645 380 659 q 341 622 357 631 q 307 614 326 614 q 281 619 294 614 q 258 632 269 624 q 242 652 248 641 q 235 675 235 663 q 310 770 235 743 q 240 821 300 821 q 176 798 199 821 q 153 739 153 775 q 193 626 153 705 l 237 536 q 257 496 250 511 q 267 467 264 481 q 271 436 270 453 q 271 389 271 418 l 271 326 l 200 252 l 200 317 q 170 454 200 420 l 113 519 q 47 675 47 593 q 62 754 47 718 q 101 816 76 790 q 161 857 127 842 q 236 871 195 871 q 298 860 269 871 q 348 827 327 848 q 381 780 369 807 q 393 721 393 752 m 297 149 q 292 125 297 136 q 279 106 288 114 q 260 93 271 98 q 237 87 249 87 q 213 93 224 87 q 194 106 202 98 q 180 125 185 114 q 175 149 175 136 q 180 172 175 161 q 193 191 185 183 q 213 204 201 199 q 236 210 224 210 q 259 204 248 210 q 279 191 271 199 q 292 172 288 183 q 297 149 297 161 z "},"ء":{"ha":444,"x_min":68,"x_max":410,"o":"m 410 189 l 396 129 q 346 87 386 87 l 68 87 l 124 140 q 118 153 124 142 q 103 181 111 165 q 89 218 96 198 q 83 255 83 237 q 199 388 83 326 q 242 416 222 400 q 280 450 262 432 q 315 488 298 468 q 349 527 332 507 l 349 375 q 348 359 349 365 q 342 348 347 353 q 327 339 337 343 q 300 330 317 335 l 228 307 q 198 288 208 300 q 189 262 189 277 q 193 239 189 252 q 206 215 198 227 q 224 197 214 204 q 245 189 235 189 l 410 189 z "},"آ":{"ha":374,"x_min":-52,"x_max":360,"o":"m 360 105 q 261 87 347 87 q 178 94 212 87 q 125 116 145 100 q 97 156 105 131 q 88 218 88 181 l 88 642 q 10 823 88 686 q 159 943 62 823 l 159 293 q 166 234 159 259 q 187 190 172 209 q 227 155 202 170 q 288 126 252 140 q 319 118 301 123 q 360 105 337 113 m 246 1055 q 161 984 246 984 l 60 984 q -1 945 22 984 l -52 871 l -52 977 q 33 1048 -52 1048 l 131 1048 q 195 1087 174 1048 l 246 1160 l 246 1055 z "},"أ":{"ha":377,"x_min":-31,"x_max":363,"o":"m 363 105 q 264 87 350 87 q 182 94 215 87 q 129 116 149 100 q 100 156 109 131 q 92 218 92 181 l 92 642 q 14 823 92 686 q 163 943 66 823 l 163 293 q 169 233 163 259 q 190 188 175 208 q 230 153 205 168 q 292 126 254 138 q 322 117 304 122 q 363 105 340 113 m 124 1111 q 109 1101 118 1107 q 88 1084 100 1094 l 71 1062 q 62 1048 62 1052 q 71 1033 62 1041 l 102 1003 q 116 974 116 989 q 106 947 116 957 l 57 899 q -3 878 36 878 q -31 884 -18 878 q 2 905 -14 886 l 20 925 q 33 948 33 940 q 20 966 33 954 l -5 991 q -22 1023 -22 1008 q -4 1056 -22 1039 l 37 1095 q 98 1113 56 1113 q 124 1111 109 1113 z "},"ؤ":{"ha":561,"x_min":0,"x_max":523,"o":"m 523 185 q 470 87 523 139 l 201 -175 q 42 -236 139 -236 q 0 -229 18 -236 q 36 -217 18 -224 q 74 -199 54 -210 q 114 -172 93 -188 q 157 -134 135 -156 l 275 -20 q 302 20 302 6 q 271 65 302 34 l 167 168 q 147 189 155 180 q 136 203 140 197 q 130 217 132 210 q 129 235 129 224 q 141 275 129 258 q 167 307 153 293 l 410 549 q 404 505 404 528 q 439 400 404 471 l 484 311 q 523 185 523 233 m 429 153 q 415 196 429 170 l 358 304 q 349 333 349 321 q 349 351 349 344 q 350 361 349 358 q 302 295 302 322 q 319 246 302 275 l 369 154 q 383 122 380 134 q 387 100 387 111 q 387 96 387 98 q 387 93 387 94 q 429 153 429 131 m 288 711 q 272 701 281 707 q 252 684 263 694 l 234 662 q 226 648 226 652 q 235 633 226 641 l 266 603 q 279 574 279 589 q 269 547 279 557 l 220 499 q 161 478 199 478 q 133 484 145 478 q 165 505 149 486 l 183 525 q 196 548 196 540 q 184 566 196 553 l 159 591 q 142 623 142 608 q 159 656 142 639 l 201 695 q 261 713 220 713 q 288 711 272 713 z "},"إ":{"ha":377,"x_min":14,"x_max":363,"o":"m 363 105 q 264 87 350 87 q 182 94 215 87 q 129 116 149 100 q 100 156 109 131 q 92 218 92 181 l 92 642 q 14 823 92 686 q 163 943 66 823 l 163 293 q 169 233 163 259 q 190 188 175 208 q 230 153 205 168 q 292 126 254 138 q 322 117 304 122 q 363 105 340 113 m 234 32 q 198 5 220 25 l 180 -17 q 172 -31 172 -27 q 181 -46 172 -38 l 212 -76 q 226 -105 226 -90 q 216 -132 226 -122 l 167 -180 q 107 -201 146 -201 q 79 -195 92 -201 q 112 -174 96 -193 l 130 -154 q 142 -131 142 -139 q 130 -113 142 -125 l 105 -88 q 88 -56 88 -71 q 106 -23 88 -40 l 147 16 q 208 34 166 34 q 234 32 218 34 z "},"ئ":{"ha":916,"x_min":-5,"x_max":966,"o":"m 966 188 l 941 178 q 919 173 932 174 q 887 172 905 172 q 809 176 841 172 q 756 191 778 180 q 719 219 734 201 q 690 264 703 237 l 659 327 q 619 374 634 374 q 577 349 604 374 l 516 290 q 489 244 489 264 q 500 216 489 225 l 641 149 q 699 71 699 121 q 654 -8 699 35 l 515 -142 q 441 -182 472 -182 q 365 -142 405 -182 l 142 81 q 98 140 98 124 q 132 201 98 169 l 260 325 l 229 269 q 211 233 216 248 q 205 211 205 218 q 244 153 205 191 l 428 -32 q 489 -78 474 -78 q 538 -39 498 -78 l 572 -6 q 591 25 591 11 q 557 72 591 56 l 430 134 q 401 150 412 142 q 384 165 390 157 q 377 183 378 173 q 375 207 375 193 q 443 300 375 234 l 735 583 q 726 530 726 551 q 755 448 726 505 l 838 282 q 966 188 878 200 m 149 453 q 134 443 143 450 q 113 426 125 436 l 96 404 q 87 391 87 394 q 96 375 87 383 l 127 345 q 141 316 141 332 q 131 289 141 299 l 82 241 q 22 220 61 220 q -5 226 7 220 q 27 247 11 229 l 45 267 q 58 290 58 282 q 45 308 58 296 l 20 333 q 3 365 3 350 q 21 398 3 381 l 62 437 q 123 455 81 455 q 149 453 134 455 z "},"ا":{"ha":377,"x_min":14,"x_max":363,"o":"m 363 105 q 264 87 350 87 q 182 94 215 87 q 129 116 149 100 q 100 156 109 131 q 92 218 92 181 l 92 642 q 14 823 92 686 q 163 943 66 823 l 163 293 q 169 233 163 259 q 190 188 175 208 q 230 153 205 168 q 292 126 254 138 q 322 117 304 122 q 363 105 340 113 z "},"ب":{"ha":1051,"x_min":27,"x_max":1004,"o":"m 1004 147 q 1002 121 1004 132 q 995 99 1000 110 q 978 76 989 88 q 949 46 967 64 l 844 -53 q 823 -8 839 -33 q 787 38 808 16 q 744 73 766 59 q 704 87 722 87 l 27 87 l 407 460 l 437 390 q 523 336 460 336 l 682 336 l 637 290 q 613 266 623 275 q 593 252 603 257 q 571 246 583 248 q 541 244 559 244 l 444 244 q 404 247 419 244 q 377 257 388 250 q 357 278 366 264 q 337 313 348 292 l 290 262 q 269 232 269 236 q 274 217 269 224 q 286 203 278 210 q 302 193 293 197 q 321 189 311 189 l 702 189 q 790 136 734 189 q 829 96 810 117 q 868 56 848 76 q 880 87 880 72 q 857 146 880 100 l 827 207 q 793 300 793 277 q 826 379 793 342 l 910 460 q 901 407 901 428 q 930 324 901 382 l 975 235 q 1004 147 1004 175 m 625 -118 q 589 -190 625 -136 q 522 -138 564 -155 q 492 -105 492 -125 q 571 -24 492 -89 q 581 -49 572 -37 q 599 -74 589 -62 q 616 -97 608 -85 q 625 -118 625 -108 z "},"ة":{"ha":524,"x_min":40,"x_max":503,"o":"m 503 87 l 40 87 q 68 135 68 123 q 64 152 68 141 q 55 177 60 163 q 45 205 50 191 q 41 232 41 220 q 77 317 41 281 l 190 430 l 149 508 l 241 595 l 280 521 l 326 566 q 311 488 311 526 q 358 368 311 459 l 503 87 m 313 189 l 266 281 q 243 347 243 325 q 236 340 243 347 q 221 324 229 333 q 207 306 214 315 q 201 291 201 296 q 213 250 201 273 l 245 189 q 265 189 256 189 q 283 189 274 189 q 299 189 292 189 q 313 189 306 189 m 378 671 q 342 600 378 654 q 275 652 317 634 q 245 684 245 664 q 324 765 245 701 q 334 740 325 753 q 352 716 342 728 q 370 693 361 704 q 378 671 378 682 m 221 671 q 186 600 221 654 q 118 652 160 634 q 88 684 88 664 q 168 765 88 701 q 177 740 168 753 q 195 716 186 728 q 213 693 205 704 q 221 671 221 682 z "},"ت":{"ha":1051,"x_min":27,"x_max":1004,"o":"m 1004 147 q 1002 121 1004 132 q 995 99 1000 110 q 978 76 989 88 q 949 46 967 64 l 844 -53 q 823 -8 839 -33 q 787 38 808 16 q 744 73 766 59 q 704 87 722 87 l 27 87 l 407 460 l 437 390 q 523 336 460 336 l 682 336 l 637 290 q 613 266 623 275 q 593 252 603 257 q 571 246 583 248 q 541 244 559 244 l 444 244 q 404 247 419 244 q 377 257 388 250 q 357 278 366 264 q 337 313 348 292 l 290 262 q 269 232 269 236 q 274 217 269 224 q 286 203 278 210 q 302 193 293 197 q 321 189 311 189 l 702 189 q 790 136 734 189 q 829 96 810 117 q 868 56 848 76 q 880 87 880 72 q 857 146 880 100 l 827 207 q 793 300 793 277 q 826 379 793 342 l 910 460 q 901 407 901 428 q 930 324 901 382 l 975 235 q 1004 147 1004 175 m 770 450 q 734 378 770 433 q 667 431 709 413 q 637 463 637 443 q 716 544 637 479 q 726 519 717 532 q 744 495 734 507 q 762 472 753 483 q 770 450 770 460 m 613 450 q 578 378 613 433 q 510 431 552 413 q 480 463 480 443 q 559 544 480 479 q 569 519 560 532 q 587 495 578 507 q 605 472 597 483 q 613 450 613 460 z "},"ث":{"ha":1051,"x_min":27,"x_max":1004,"o":"m 1004 147 q 1002 121 1004 132 q 995 99 1000 110 q 978 76 989 88 q 949 46 967 64 l 844 -53 q 823 -8 839 -33 q 787 38 808 16 q 744 73 766 59 q 704 87 722 87 l 27 87 l 407 460 l 437 390 q 523 336 460 336 l 682 336 l 637 290 q 613 266 623 275 q 593 252 603 257 q 571 246 583 248 q 541 244 559 244 l 444 244 q 404 247 419 244 q 377 257 388 250 q 357 278 366 264 q 337 313 348 292 l 290 262 q 269 232 269 236 q 274 217 269 224 q 286 203 278 210 q 302 193 293 197 q 321 189 311 189 l 702 189 q 790 136 734 189 q 829 96 810 117 q 868 56 848 76 q 880 87 880 72 q 857 146 880 100 l 827 207 q 793 300 793 277 q 826 379 793 342 l 910 460 q 901 407 901 428 q 930 324 901 382 l 975 235 q 1004 147 1004 175 m 770 450 q 734 378 770 433 q 667 431 709 413 q 637 463 637 443 q 716 544 637 479 q 726 519 717 532 q 744 495 734 507 q 762 472 753 483 q 770 450 770 460 m 613 450 q 578 378 613 433 q 510 431 552 413 q 480 463 480 443 q 559 544 480 479 q 569 519 560 532 q 587 495 578 507 q 605 472 597 483 q 613 450 613 460 m 680 580 q 645 508 680 562 q 577 560 619 543 q 547 593 547 572 q 627 673 547 609 q 636 649 627 661 q 654 624 645 636 q 672 601 664 612 q 680 580 680 590 z "},"ج":{"ha":652,"x_min":34,"x_max":618,"o":"m 618 -9 q 586 -17 606 -17 q 342 87 443 -17 l 205 87 q 181 83 193 87 q 159 71 169 78 q 144 54 150 63 q 138 35 138 45 q 184 -26 138 20 l 369 -210 q 427 -248 408 -248 q 449 -242 435 -248 q 486 -225 464 -237 l 541 -194 l 418 -321 q 357 -355 385 -355 q 297 -312 340 -355 l 74 -89 q 34 -12 34 -49 q 75 61 34 18 l 149 140 q 177 168 167 158 q 195 183 187 178 q 211 189 203 188 q 232 189 218 189 l 274 189 l 216 279 q 171 328 194 312 q 126 343 148 343 q 68 328 97 343 l 191 452 q 255 495 235 495 q 297 442 271 495 l 433 172 q 575 9 492 53 q 618 -9 593 4 m 401 -46 q 366 -118 401 -64 q 298 -66 340 -83 q 268 -33 268 -54 q 347 47 268 -17 q 357 23 348 35 q 375 -2 366 10 q 393 -25 385 -14 q 401 -46 401 -36 z "},"ح":{"ha":652,"x_min":34,"x_max":618,"o":"m 618 -9 q 586 -17 606 -17 q 342 87 443 -17 l 205 87 q 181 83 193 87 q 159 71 169 78 q 144 54 150 63 q 138 35 138 45 q 184 -26 138 20 l 369 -210 q 427 -248 408 -248 q 449 -242 435 -248 q 486 -225 464 -237 l 541 -194 l 418 -321 q 357 -355 385 -355 q 297 -312 340 -355 l 74 -89 q 34 -12 34 -49 q 75 61 34 18 l 149 140 q 177 168 167 158 q 195 183 187 178 q 211 189 203 188 q 232 189 218 189 l 274 189 l 216 279 q 171 328 194 312 q 126 343 148 343 q 68 328 97 343 l 191 452 q 255 495 235 495 q 297 442 271 495 l 433 172 q 575 9 492 53 q 618 -9 593 4 z "},"خ":{"ha":652,"x_min":34,"x_max":618,"o":"m 618 -9 q 586 -17 606 -17 q 342 87 443 -17 l 205 87 q 181 83 193 87 q 159 71 169 78 q 144 54 150 63 q 138 35 138 45 q 184 -26 138 20 l 369 -210 q 427 -248 408 -248 q 449 -242 435 -248 q 486 -225 464 -237 l 541 -194 l 418 -321 q 357 -355 385 -355 q 297 -312 340 -355 l 74 -89 q 34 -12 34 -49 q 75 61 34 18 l 149 140 q 177 168 167 158 q 195 183 187 178 q 211 189 203 188 q 232 189 218 189 l 274 189 l 216 279 q 171 328 194 312 q 126 343 148 343 q 68 328 97 343 l 191 452 q 255 495 235 495 q 297 442 271 495 l 433 172 q 575 9 492 53 q 618 -9 593 4 m 183 550 q 148 478 183 532 q 80 530 122 513 q 50 563 50 543 q 130 644 50 579 q 139 619 130 631 q 157 594 148 606 q 175 571 167 583 q 183 550 183 560 z "},"د":{"ha":804,"x_min":79,"x_max":777,"o":"m 777 117 q 701 87 745 87 l 81 87 l 81 254 q 260 189 170 189 l 567 189 l 539 244 l 278 244 q 177 328 218 244 l 123 435 q 79 476 109 461 l 168 564 l 253 393 q 317 346 276 346 l 602 346 q 643 295 618 346 l 689 197 q 711 153 702 170 q 730 129 721 137 q 750 119 739 121 q 777 117 761 117 z "},"ذ":{"ha":804,"x_min":68,"x_max":777,"o":"m 777 117 q 701 87 745 87 l 81 87 l 81 254 q 260 189 170 189 l 567 189 l 539 244 l 278 244 q 177 328 218 244 l 123 435 q 79 476 109 461 l 168 564 l 253 393 q 317 346 276 346 l 602 346 q 643 295 618 346 l 689 197 q 711 153 702 170 q 730 129 721 137 q 750 119 739 121 q 777 117 761 117 m 201 658 q 166 586 201 640 q 98 638 140 621 q 68 671 68 650 q 148 751 68 687 q 157 727 149 739 q 176 702 166 714 q 193 679 185 690 q 201 658 201 668 z "},"ر":{"ha":574,"x_min":0,"x_max":534,"o":"m 534 203 q 480 98 534 151 l 201 -175 q 42 -236 139 -236 q 0 -229 18 -236 q 75 -198 36 -220 q 157 -134 113 -177 l 361 64 q 414 149 414 115 q 380 222 414 156 l 351 283 q 316 376 316 353 q 349 455 316 418 l 433 536 q 424 483 424 504 q 453 400 424 458 l 498 311 q 534 203 534 237 z "},"ز":{"ha":574,"x_min":0,"x_max":534,"o":"m 534 203 q 480 98 534 151 l 201 -175 q 42 -236 139 -236 q 0 -229 18 -236 q 75 -198 36 -220 q 157 -134 113 -177 l 361 64 q 414 149 414 115 q 380 222 414 156 l 351 283 q 316 376 316 353 q 349 455 316 418 l 433 536 q 424 483 424 504 q 453 400 424 458 l 498 311 q 534 203 534 237 m 352 574 q 317 502 352 556 q 249 554 291 536 q 219 587 219 566 q 298 667 219 603 q 308 643 299 655 q 326 618 317 630 q 344 595 336 606 q 352 574 352 584 z "},"س":{"ha":1112,"x_min":47,"x_max":1090,"o":"m 1090 117 q 1014 87 1059 87 l 684 87 q 652 86 665 87 q 630 81 640 85 q 612 71 621 77 q 593 54 604 64 l 418 -116 q 345 -157 376 -157 q 268 -117 308 -157 l 91 60 q 47 120 47 104 q 81 181 47 149 l 209 304 l 178 249 q 160 213 165 227 q 155 191 155 198 q 193 132 155 171 l 331 -6 q 392 -52 377 -52 q 441 -13 401 -52 l 520 63 q 547 123 547 88 q 538 163 547 143 l 524 201 q 480 241 513 225 l 569 330 l 639 189 l 715 189 l 680 259 q 636 300 666 285 l 725 388 l 823 189 l 899 189 l 834 319 q 791 359 821 345 l 880 448 l 1010 182 q 1029 148 1021 161 q 1047 128 1038 135 q 1066 119 1056 121 q 1090 117 1076 117 z "},"ش":{"ha":1112,"x_min":47,"x_max":1090,"o":"m 1090 117 q 1014 87 1059 87 l 684 87 q 652 86 665 87 q 630 81 640 85 q 612 71 621 77 q 593 54 604 64 l 418 -116 q 345 -157 376 -157 q 268 -117 308 -157 l 91 60 q 47 120 47 104 q 81 181 47 149 l 209 304 l 178 249 q 160 213 165 227 q 155 191 155 198 q 193 132 155 171 l 331 -6 q 392 -52 377 -52 q 441 -13 401 -52 l 520 63 q 547 123 547 88 q 538 163 547 143 l 524 201 q 480 241 513 225 l 569 330 l 639 189 l 715 189 l 680 259 q 636 300 666 285 l 725 388 l 823 189 l 899 189 l 834 319 q 791 359 821 345 l 880 448 l 1010 182 q 1029 148 1021 161 q 1047 128 1038 135 q 1066 119 1056 121 q 1090 117 1076 117 m 701 602 q 666 530 701 584 q 598 582 640 564 q 568 614 568 594 q 648 695 568 631 q 657 670 648 683 q 675 646 666 658 q 693 623 685 634 q 701 602 701 612 m 791 472 q 755 400 791 454 q 688 452 730 435 q 658 485 658 465 q 737 566 658 501 q 747 541 738 553 q 765 516 755 528 q 783 493 774 505 q 791 472 791 482 m 634 472 q 599 400 634 454 q 531 452 573 435 q 501 485 501 465 q 581 566 501 501 q 590 541 581 553 q 608 516 599 528 q 626 493 618 505 q 634 472 634 482 z "},"ص":{"ha":1277,"x_min":47,"x_max":1255,"o":"m 1255 117 q 1179 87 1223 87 l 684 87 q 651 86 664 87 q 630 82 639 85 q 612 71 621 78 q 593 54 604 64 l 418 -116 q 345 -157 376 -157 q 268 -117 308 -157 l 91 60 q 47 120 47 104 q 81 181 47 149 l 209 304 l 178 249 q 160 213 165 227 q 155 191 155 198 q 193 132 155 171 l 331 -6 q 392 -52 377 -52 q 441 -13 401 -52 l 520 63 q 547 123 547 88 q 536 163 547 142 l 498 237 q 455 278 485 263 l 581 401 l 609 346 l 1076 346 q 1118 302 1096 346 l 1167 197 q 1190 153 1180 169 q 1208 129 1199 137 q 1228 119 1217 121 q 1255 117 1239 117 m 1045 189 l 1017 244 l 657 244 l 684 189 l 1045 189 z "},"ض":{"ha":1277,"x_min":47,"x_max":1255,"o":"m 1255 117 q 1179 87 1223 87 l 684 87 q 651 86 664 87 q 630 82 639 85 q 612 71 621 78 q 593 54 604 64 l 418 -116 q 345 -157 376 -157 q 268 -117 308 -157 l 91 60 q 47 120 47 104 q 81 181 47 149 l 209 304 l 178 249 q 160 213 165 227 q 155 191 155 198 q 193 132 155 171 l 331 -6 q 392 -52 377 -52 q 441 -13 401 -52 l 520 63 q 547 123 547 88 q 536 163 547 142 l 498 237 q 455 278 485 263 l 581 401 l 609 346 l 1076 346 q 1118 302 1096 346 l 1167 197 q 1190 153 1180 169 q 1208 129 1199 137 q 1228 119 1217 121 q 1255 117 1239 117 m 1045 189 l 1017 244 l 657 244 l 684 189 l 1045 189 m 886 486 q 851 414 886 468 q 783 466 825 448 q 753 498 753 478 q 833 579 753 515 q 842 554 833 567 q 861 530 851 542 q 878 507 870 518 q 886 486 886 496 z "},"ط":{"ha":802,"x_min":27,"x_max":774,"o":"m 774 117 q 699 87 743 87 l 147 87 q 99 96 121 87 q 61 121 77 105 q 36 159 45 137 q 27 208 27 182 q 117 189 58 189 l 147 189 l 147 642 q 69 823 147 686 q 218 943 115 823 l 218 346 l 595 346 q 637 302 616 346 l 687 197 q 709 153 700 169 q 728 129 719 137 q 748 119 737 121 q 774 117 759 117 m 565 189 l 536 244 l 279 244 l 306 189 l 565 189 z "},"ظ":{"ha":802,"x_min":27,"x_max":774,"o":"m 774 117 q 699 87 743 87 l 147 87 q 99 96 121 87 q 61 121 77 105 q 36 159 45 137 q 27 208 27 182 q 117 189 58 189 l 147 189 l 147 642 q 69 823 147 686 q 218 943 115 823 l 218 346 l 595 346 q 637 302 616 346 l 687 197 q 709 153 700 169 q 728 129 719 137 q 748 119 737 121 q 774 117 759 117 m 565 189 l 536 244 l 279 244 l 306 189 l 565 189 m 433 486 q 397 414 433 468 q 330 466 372 448 q 300 498 300 478 q 379 579 300 515 q 389 554 380 567 q 407 530 397 542 q 425 507 416 518 q 433 486 433 496 z "},"ع":{"ha":684,"x_min":27,"x_max":662,"o":"m 662 87 l 184 87 q 134 32 134 43 q 178 -26 134 18 l 362 -210 q 420 -248 401 -248 q 443 -242 428 -248 q 479 -225 457 -237 l 534 -194 l 411 -321 q 350 -355 378 -355 q 290 -312 334 -355 l 67 -89 q 27 -12 27 -49 q 72 61 27 17 l 204 189 q 194 247 194 198 q 286 415 194 328 l 354 480 q 422 556 422 544 q 406 574 422 574 l 338 574 l 494 728 l 494 552 q 469 503 494 532 l 410 431 q 378 378 387 404 q 368 328 368 352 q 380 274 368 299 q 411 230 392 248 q 455 200 431 211 q 503 189 479 189 l 560 189 q 662 87 587 135 z "},"غ":{"ha":684,"x_min":27,"x_max":662,"o":"m 662 87 l 184 87 q 134 32 134 43 q 178 -26 134 18 l 362 -210 q 420 -248 401 -248 q 443 -242 428 -248 q 479 -225 457 -237 l 534 -194 l 411 -321 q 350 -355 378 -355 q 290 -312 334 -355 l 67 -89 q 27 -12 27 -49 q 72 61 27 17 l 204 189 q 194 247 194 198 q 286 415 194 328 l 354 480 q 422 556 422 544 q 406 574 422 574 l 338 574 l 494 728 l 494 552 q 469 503 494 532 l 410 431 q 378 378 387 404 q 368 328 368 352 q 380 274 368 299 q 411 230 392 248 q 455 200 431 211 q 503 189 479 189 l 560 189 q 662 87 587 135 m 349 699 q 314 627 349 681 q 246 679 288 661 q 216 711 216 691 q 296 792 216 728 q 305 767 296 780 q 323 743 314 755 q 341 720 333 731 q 349 699 349 709 z "},"ـ":{"ha":92,"x_min":0,"x_max":140,"o":"m 140 87 l 0 87 l 0 189 l 140 189 l 140 87 z "},"ف":{"ha":1158,"x_min":27,"x_max":1124,"o":"m 1124 258 q 1073 153 1124 202 l 859 -53 q 838 -10 855 -34 q 799 36 821 14 q 751 73 776 58 q 709 87 727 87 l 27 87 l 407 460 l 437 390 q 516 336 460 336 l 665 336 l 620 290 q 596 266 606 275 q 576 252 586 257 q 554 246 566 248 q 524 244 543 244 l 437 244 q 402 246 416 244 q 378 255 389 248 q 359 276 368 262 q 337 313 350 290 l 290 262 q 269 232 269 241 q 274 217 269 224 q 286 203 278 210 q 302 193 293 197 q 321 189 311 189 l 707 189 q 812 129 754 189 q 880 68 871 68 q 906 87 906 68 q 865 142 906 103 l 775 229 q 736 304 736 266 q 774 370 736 332 l 1011 608 q 1002 555 1002 576 q 1031 472 1002 530 l 1095 346 q 1124 258 1124 288 m 1030 211 q 1017 254 1030 229 l 960 362 q 950 391 950 379 q 950 409 950 402 q 951 420 951 416 q 904 353 904 380 q 920 304 904 334 l 970 212 q 985 181 981 193 q 989 159 988 169 q 988 155 989 157 q 988 151 988 153 q 1030 211 1030 189 m 795 617 q 760 545 795 600 q 692 597 734 580 q 662 630 662 610 q 741 711 662 646 q 751 686 742 699 q 769 662 760 673 q 787 638 779 650 q 795 617 795 627 z "},"ق":{"ha":771,"x_min":47,"x_max":737,"o":"m 737 200 q 686 95 737 144 l 444 -142 q 370 -182 401 -182 q 294 -142 334 -182 l 91 60 q 47 120 47 104 q 81 181 47 149 l 209 304 l 178 249 q 160 213 165 227 q 155 191 155 198 q 193 132 155 171 l 357 -32 q 418 -78 403 -78 q 467 -39 427 -78 l 501 -6 q 519 25 519 11 q 478 84 519 45 l 389 170 q 350 246 350 208 q 388 312 350 274 l 625 549 q 615 496 615 517 q 644 414 615 471 l 708 288 q 737 200 737 230 m 644 153 q 630 196 644 170 l 573 304 q 564 333 564 321 q 564 351 564 344 q 565 361 564 358 q 517 295 517 322 q 534 246 517 275 l 584 154 q 598 122 595 134 q 602 100 602 111 q 602 96 602 98 q 602 93 602 94 q 644 153 644 131 m 535 559 q 500 487 535 541 q 432 539 474 522 q 402 572 402 551 q 481 652 402 588 q 491 628 482 640 q 509 603 500 615 q 527 580 519 591 q 535 559 535 569 m 378 559 q 343 487 378 541 q 275 539 317 522 q 245 572 245 551 q 325 652 245 588 q 334 628 326 640 q 353 603 343 615 q 370 580 362 591 q 378 559 378 569 z "},"ك":{"ha":996,"x_min":27,"x_max":973,"o":"m 973 125 q 891 87 941 87 l 27 87 l 277 335 l 326 241 q 403 189 353 189 l 791 189 q 804 193 798 189 q 817 203 811 197 q 826 216 823 209 q 829 231 829 223 l 829 642 q 751 823 829 686 q 901 943 798 823 l 901 224 q 904 180 901 197 q 915 153 907 163 q 937 137 922 143 q 973 125 951 131 m 651 478 q 640 449 651 469 q 609 409 629 430 q 559 369 589 388 q 493 342 530 350 l 493 347 l 541 391 q 564 417 564 412 q 542 423 564 423 l 488 423 q 462 440 462 423 q 473 475 462 456 q 504 513 484 494 q 553 548 524 531 q 618 576 582 564 l 621 573 l 569 525 q 549 503 549 507 q 570 498 549 498 l 627 498 q 651 478 651 498 z "},"ل":{"ha":585,"x_min":47,"x_max":517,"o":"m 517 87 q 492 -5 517 20 l 418 -81 q 345 -122 378 -122 q 268 -85 303 -122 l 91 95 q 47 155 47 139 q 81 216 47 183 l 209 339 l 178 283 q 160 247 165 262 q 155 225 155 233 q 193 167 155 205 l 331 28 q 392 -18 377 -18 q 437 28 403 -18 q 446 87 446 40 l 446 642 q 368 823 446 686 q 517 943 414 823 l 517 87 z "},"م":{"ha":517,"x_min":41,"x_max":496,"o":"m 496 87 l 254 87 q 207 -31 254 13 q 71 -78 160 -75 l 104 -41 q 130 32 130 -3 q 103 109 130 57 l 64 182 q 41 251 41 227 q 71 317 41 287 l 319 566 q 304 488 304 526 q 345 382 304 460 l 496 87 m 306 189 l 259 281 q 237 347 237 325 q 229 340 236 347 q 215 324 222 333 q 200 306 207 315 q 194 291 194 296 q 206 250 194 273 l 238 189 q 258 189 249 189 q 276 189 267 189 q 292 189 285 189 q 306 189 299 189 z "},"ن":{"ha":814,"x_min":47,"x_max":781,"o":"m 781 189 q 715 87 781 153 l 469 -163 q 393 -203 431 -203 q 317 -163 358 -203 l 91 60 q 47 120 47 103 q 81 181 47 149 l 209 304 l 178 249 q 160 213 165 227 q 155 191 155 198 q 193 132 155 170 l 380 -52 q 441 -98 427 -98 q 490 -59 452 -98 l 626 79 q 652 134 652 106 q 630 199 652 159 l 587 275 q 555 368 555 331 q 567 412 555 391 q 596 452 578 433 q 634 491 613 472 q 675 528 655 509 q 667 475 667 503 q 697 393 667 451 l 760 271 q 781 189 781 229 m 438 351 q 403 279 438 334 q 335 332 377 314 q 305 364 305 344 q 385 445 305 380 q 394 420 385 433 q 412 396 403 408 q 430 373 422 384 q 438 351 438 361 z "},"ه":{"ha":757,"x_min":27,"x_max":736,"o":"m 736 87 l 148 87 q 95 98 117 87 q 57 126 72 109 q 35 165 42 144 q 27 208 27 186 q 72 192 51 194 q 117 189 94 189 l 174 189 q 148 244 148 211 q 161 298 148 273 q 196 340 174 323 q 244 367 217 357 q 299 377 271 377 q 326 375 312 377 l 547 597 q 532 519 532 556 q 572 412 532 492 l 736 87 m 555 189 l 495 309 q 448 349 475 349 q 410 320 436 349 q 439 273 421 309 l 481 189 l 555 189 m 377 189 l 355 232 q 294 283 329 283 q 250 244 250 283 q 256 223 250 233 q 273 206 262 214 q 296 194 283 198 q 321 189 309 189 l 377 189 z "},"و":{"ha":561,"x_min":0,"x_max":523,"o":"m 523 185 q 470 87 523 139 l 201 -175 q 42 -236 139 -236 q 0 -229 18 -236 q 36 -217 18 -224 q 74 -199 54 -210 q 114 -172 93 -188 q 157 -134 135 -156 l 275 -20 q 302 20 302 6 q 271 65 302 34 l 167 168 q 147 189 155 180 q 136 203 140 197 q 130 217 132 210 q 129 235 129 224 q 141 275 129 258 q 167 307 153 293 l 410 549 q 404 505 404 528 q 439 400 404 471 l 484 311 q 523 185 523 233 m 429 153 q 415 196 429 170 l 358 304 q 349 333 349 321 q 349 351 349 344 q 350 361 349 358 q 302 295 302 322 q 319 246 302 275 l 369 154 q 383 122 380 134 q 387 100 387 111 q 387 96 387 98 q 387 93 387 94 q 429 153 429 131 z "},"ى":{"ha":936,"x_min":47,"x_max":916,"o":"m 916 188 l 890 178 q 868 173 882 174 q 836 172 854 172 q 759 176 790 172 q 705 191 727 180 q 668 219 683 201 q 639 264 652 237 l 608 327 q 568 374 583 374 q 526 349 553 374 l 465 290 q 438 244 438 264 q 450 216 438 225 l 590 149 q 648 71 648 121 q 603 -8 648 35 l 464 -142 q 391 -182 421 -182 q 314 -142 354 -182 l 91 81 q 47 140 47 124 q 81 201 47 169 l 209 325 l 178 269 q 160 233 165 248 q 155 211 155 218 q 193 153 155 191 l 377 -32 q 438 -78 423 -78 q 488 -39 448 -78 l 522 -6 q 540 25 540 11 q 507 72 540 56 l 379 134 q 350 150 361 142 q 333 165 339 157 q 326 183 328 173 q 324 207 324 193 q 392 300 324 234 l 684 583 q 675 530 675 551 q 704 448 675 505 l 787 282 q 916 188 827 200 z "},"ي":{"ha":936,"x_min":47,"x_max":916,"o":"m 916 188 l 890 178 q 868 173 882 174 q 836 172 854 172 q 759 176 790 172 q 705 191 727 180 q 668 219 683 201 q 639 264 652 237 l 608 327 q 568 374 583 374 q 526 349 553 374 l 465 290 q 438 244 438 264 q 450 216 438 225 l 590 149 q 648 71 648 121 q 603 -8 648 35 l 464 -142 q 391 -182 421 -182 q 314 -142 354 -182 l 91 81 q 47 140 47 124 q 81 201 47 169 l 209 325 l 178 269 q 160 233 165 248 q 155 211 155 218 q 193 153 155 191 l 377 -32 q 438 -78 423 -78 q 488 -39 448 -78 l 522 -6 q 540 25 540 11 q 507 72 540 56 l 379 134 q 350 150 361 142 q 333 165 339 157 q 326 183 328 173 q 324 207 324 193 q 392 300 324 234 l 684 583 q 675 530 675 551 q 704 448 675 505 l 787 282 q 916 188 827 200 m 801 -193 q 766 -264 801 -210 q 698 -212 740 -230 q 668 -180 668 -200 q 747 -99 668 -163 q 757 -124 748 -111 q 775 -148 766 -136 q 793 -171 785 -160 q 801 -193 801 -182 m 644 -193 q 609 -264 644 -210 q 541 -212 583 -230 q 511 -180 511 -200 q 591 -99 511 -163 q 600 -124 591 -111 q 618 -148 609 -136 q 636 -171 628 -160 q 644 -193 644 -182 z "},"ً":{"ha":395,"x_min":22,"x_max":395,"o":"m 370 1321 q 323 1302 359 1318 q 226 1257 288 1286 q 90 1208 122 1208 l 22 1208 l 165 1274 q 301 1321 270 1321 l 370 1321 m 395 1246 q 349 1226 385 1242 q 252 1182 313 1211 q 115 1133 148 1133 l 47 1133 l 191 1198 q 327 1246 293 1246 l 395 1246 z "},"ٌ":{"ha":391,"x_min":24,"x_max":391,"o":"m 391 1259 q 340 1206 391 1229 l 380 1171 l 350 1171 q 303 1188 326 1171 q 209 1146 254 1160 q 135 1132 165 1132 l 135 1232 q 68 1218 102 1218 l 24 1218 q 45 1228 33 1222 q 76 1243 58 1234 q 121 1265 95 1252 q 182 1296 146 1278 l 182 1187 q 224 1197 200 1188 q 267 1215 248 1206 l 248 1232 q 224 1277 224 1253 q 250 1322 224 1302 l 331 1387 q 361 1323 331 1369 q 391 1259 391 1277 m 344 1266 q 306 1304 344 1304 q 271 1276 271 1304 q 308 1236 271 1265 q 344 1266 344 1258 z "},"ٍ":{"ha":395,"x_min":22,"x_max":395,"o":"m 370 -397 q 323 -416 359 -400 q 226 -460 288 -432 q 90 -510 122 -510 l 22 -510 l 165 -444 q 301 -397 270 -397 l 370 -397 m 395 -472 q 349 -491 385 -475 q 252 -536 313 -507 q 115 -585 148 -585 l 47 -585 l 191 -519 q 327 -472 293 -472 l 395 -472 z "},"َ":{"ha":395,"x_min":47,"x_max":395,"o":"m 395 1246 q 349 1226 385 1242 q 252 1182 313 1211 q 115 1133 148 1133 l 47 1133 l 191 1198 q 327 1246 293 1246 l 395 1246 z "},"ُ":{"ha":347,"x_min":47,"x_max":347,"o":"m 347 1259 q 296 1206 347 1229 l 336 1171 l 306 1171 q 258 1189 284 1171 l 191 1156 q 110 1133 146 1133 l 47 1133 q 222 1216 122 1160 l 204 1232 q 180 1277 180 1255 q 205 1322 180 1302 l 287 1387 q 317 1323 287 1369 q 347 1259 347 1277 m 300 1266 q 262 1304 300 1304 q 227 1276 227 1304 q 264 1236 227 1265 q 300 1266 300 1258 z "},"ِ":{"ha":395,"x_min":47,"x_max":395,"o":"m 395 -397 q 349 -416 385 -400 q 252 -460 313 -432 q 115 -510 148 -510 l 47 -510 l 191 -444 q 327 -397 293 -397 l 395 -397 z "},"ّ":{"ha":374,"x_min":47,"x_max":374,"o":"m 374 1232 q 250 1177 341 1224 q 149 1133 163 1133 q 127 1139 137 1133 q 107 1158 118 1145 q 83 1190 97 1171 q 47 1234 69 1208 l 87 1234 q 107 1227 96 1234 q 128 1212 118 1220 q 147 1197 138 1204 q 159 1190 155 1190 q 192 1217 192 1190 q 188 1236 192 1225 q 178 1256 184 1246 q 164 1275 172 1266 q 149 1288 156 1283 l 190 1288 q 223 1267 209 1288 q 256 1230 246 1230 q 286 1263 286 1230 q 251 1317 286 1298 l 286 1320 l 290 1320 q 335 1285 321 1320 q 374 1232 350 1249 z "},"ْ":{"ha":221,"x_min":47,"x_max":221,"o":"m 221 1212 q 214 1181 221 1196 q 195 1156 207 1166 q 168 1139 183 1145 q 134 1133 152 1133 q 100 1139 116 1133 q 73 1155 85 1145 q 54 1178 61 1164 q 47 1205 47 1191 q 91 1284 47 1240 l 148 1342 q 184 1275 148 1312 q 221 1212 221 1238 m 176 1206 q 172 1222 176 1214 q 161 1238 168 1230 q 147 1254 155 1246 q 132 1270 139 1262 q 105 1241 119 1256 q 92 1212 92 1227 q 133 1174 92 1174 q 148 1177 140 1174 q 162 1184 156 1179 q 172 1194 168 1188 q 176 1206 176 1200 z "},"٠":{"ha":315,"x_min":47,"x_max":268,"o":"m 268 536 q 224 464 268 505 l 135 380 q 91 463 135 406 q 47 546 47 519 q 83 614 47 578 l 179 709 l 178 703 q 223 622 178 684 q 268 536 268 559 z "},"١":{"ha":264,"x_min":27,"x_max":214,"o":"m 214 160 l 136 87 l 136 572 q 27 827 136 623 l 142 943 q 214 592 214 823 l 214 160 z "},"٢":{"ha":563,"x_min":27,"x_max":537,"o":"m 537 943 l 466 795 q 374 832 430 832 l 188 832 q 214 592 214 732 l 214 160 l 136 87 l 136 572 q 27 827 136 623 l 142 943 l 537 943 z "},"٣":{"ha":597,"x_min":27,"x_max":571,"o":"m 571 889 l 484 712 q 471 694 479 703 q 454 679 463 686 q 435 668 445 672 q 417 663 425 663 q 350 718 379 663 l 321 771 l 275 726 q 249 702 258 711 q 234 689 240 694 q 223 683 228 684 q 211 680 218 681 q 213 639 212 661 q 214 592 214 617 l 214 160 l 136 87 l 136 572 q 27 827 136 623 l 142 943 q 185 842 162 910 l 192 815 q 210 802 201 802 q 313 869 246 802 l 368 924 l 403 846 q 431 808 420 808 q 468 848 448 808 l 515 943 l 571 889 z "},"٤":{"ha":526,"x_min":47,"x_max":498,"o":"m 498 241 q 495 228 498 239 q 485 200 491 216 q 473 166 479 184 q 461 132 467 148 q 451 103 455 115 q 447 87 447 91 l 142 87 q 103 96 121 87 q 73 121 85 105 q 54 158 61 137 q 47 205 47 180 q 75 289 47 235 l 191 511 q 155 559 191 526 l 72 636 q 53 685 53 653 l 53 738 q 76 789 53 768 l 165 873 q 297 925 221 925 l 328 925 l 328 830 l 301 830 q 208 804 237 830 l 140 742 l 264 623 q 297 570 297 591 q 269 484 297 538 l 201 358 q 167 267 167 293 q 208 203 167 203 l 361 203 q 444 214 413 203 q 461 222 447 216 q 498 241 475 229 z "},"٥":{"ha":519,"x_min":47,"x_max":471,"o":"m 471 239 q 458 165 471 196 l 439 125 q 385 87 422 87 l 140 87 q 106 203 140 107 l 66 318 q 47 414 47 371 q 90 554 47 469 l 201 781 q 282 912 254 890 q 321 771 282 889 l 385 581 q 427 447 410 504 q 453 350 444 391 q 467 282 463 309 q 471 239 471 256 m 408 269 q 274 603 408 357 q 248 649 271 612 l 166 487 q 134 375 134 422 q 146 312 134 344 l 167 252 q 222 203 183 203 l 352 203 q 392 222 376 203 q 408 269 408 241 z "},"٦":{"ha":597,"x_min":42,"x_max":556,"o":"m 556 203 l 441 87 q 370 438 370 206 l 370 772 q 286 751 332 751 q 42 792 126 751 l 42 943 q 101 914 64 928 q 179 887 138 899 q 258 867 220 875 q 320 860 296 860 q 407 902 365 860 l 448 943 l 448 458 q 556 203 448 408 z "},"٧":{"ha":658,"x_min":20,"x_max":635,"o":"m 635 943 q 614 889 621 912 q 608 849 608 867 q 601 747 608 792 q 581 661 594 702 l 446 252 q 420 153 420 173 q 445 87 420 120 l 316 87 l 122 650 q 105 694 113 677 q 89 720 97 711 q 70 733 80 730 q 47 736 60 736 l 20 736 l 129 943 l 368 248 l 475 571 q 488 636 488 613 q 465 708 488 680 l 420 762 l 452 849 q 563 943 485 943 l 635 943 z "},"٨":{"ha":658,"x_min":22,"x_max":636,"o":"m 636 294 l 528 87 l 289 782 l 182 459 q 168 394 168 417 q 191 322 168 349 l 236 268 l 205 181 q 94 87 171 87 l 22 87 q 42 141 36 118 q 49 181 49 163 q 48 190 49 186 q 48 199 48 194 q 76 370 48 284 l 210 778 q 236 877 236 857 q 212 943 236 910 l 340 943 l 534 380 q 552 336 544 353 q 568 310 559 319 q 586 297 576 300 q 609 294 595 294 l 636 294 z "},"٩":{"ha":597,"x_min":42,"x_max":556,"o":"m 556 203 l 441 87 q 370 438 370 206 l 370 556 q 278 532 323 532 q 64 569 145 532 q 42 606 42 578 l 42 696 q 60 764 42 728 l 114 878 q 203 943 144 943 l 228 943 q 326 918 261 943 q 448 793 448 871 l 448 458 q 556 203 448 408 m 370 662 l 370 709 q 293 814 370 771 l 247 840 q 202 852 225 852 q 164 814 184 852 l 118 727 q 106 694 106 703 q 119 685 106 690 q 153 673 132 679 q 199 660 174 667 q 248 649 224 654 q 291 641 272 644 q 319 637 310 637 q 370 662 348 637 z "},"٪":{"ha":642,"x_min":61,"x_max":583,"o":"m 216 865 q 210 834 216 849 q 193 809 203 820 q 169 792 182 798 q 140 785 155 785 q 110 792 125 785 q 85 809 96 798 q 67 834 74 820 q 61 865 61 849 q 67 895 61 881 q 85 920 74 909 q 110 937 96 930 q 140 943 124 943 q 170 936 156 943 q 194 919 184 930 q 210 894 204 908 q 216 865 216 880 m 522 962 l 176 63 l 123 63 l 467 962 l 522 962 m 583 167 q 576 137 583 151 q 559 111 570 122 q 535 94 549 100 q 507 87 522 87 q 476 94 491 87 q 451 111 462 100 q 434 137 440 122 q 427 167 427 151 q 434 197 427 183 q 451 222 440 212 q 476 239 462 233 q 507 245 490 245 q 536 238 522 245 q 560 221 550 232 q 576 196 570 210 q 583 167 583 182 z "},"٭":{"ha":553,"x_min":35,"x_max":519,"o":"m 519 807 l 371 698 l 427 522 l 277 629 l 127 522 l 182 698 l 35 807 l 218 807 l 277 983 l 335 807 l 519 807 z "},"ٰ":{"ha":162,"x_min":15,"x_max":199,"o":"m 199 735 q 147 726 193 726 q 103 729 121 726 q 75 740 85 732 q 61 760 65 747 q 56 789 56 772 l 56 922 q 15 1009 56 943 q 94 1067 43 1009 l 94 826 q 100 792 94 806 q 120 768 106 779 q 153 751 133 758 q 199 735 172 743 z "},"ٱ":{"ha":360,"x_min":-59,"x_max":347,"o":"m 347 105 q 248 87 333 87 q 165 94 198 87 q 112 116 132 100 q 83 156 92 131 q 75 218 75 181 l 75 642 q -3 823 75 686 q 146 943 49 823 l 146 293 q 152 234 146 259 q 174 190 159 209 q 213 155 189 170 q 275 126 238 140 q 306 118 288 123 q 347 105 323 113 m 241 1088 q 231 1049 241 1067 q 204 1016 221 1030 q 164 992 186 1001 q 117 983 142 983 l -3 983 q -25 951 -25 983 l -24 938 q -23 933 -24 935 q -23 930 -23 931 q -23 927 -23 928 q -24 925 -24 926 q -59 998 -59 960 q -3 1045 -59 1045 l 14 1045 q 182 1160 99 1160 q 241 1088 241 1160 m 176 1088 q 153 1116 176 1116 q 52 1045 114 1116 l 111 1045 q 176 1088 176 1045 z "},"ٴ":{"ha":250,"x_min":47,"x_max":202,"o":"m 202 1111 q 187 1101 196 1107 q 166 1084 178 1094 l 149 1062 q 140 1048 140 1052 q 149 1033 140 1041 l 180 1003 q 194 974 194 989 q 184 947 194 957 l 135 899 q 75 878 114 878 q 47 884 60 878 q 80 905 64 886 l 98 925 q 111 948 111 940 q 98 966 111 954 l 73 991 q 56 1023 56 1008 q 74 1056 56 1039 l 115 1095 q 176 1113 134 1113 q 202 1111 186 1113 z "},"پ":{"ha":1051,"x_min":27,"x_max":1004,"o":"m 1004 147 q 1002 121 1004 132 q 995 99 1000 110 q 978 76 989 88 q 949 46 967 64 l 844 -53 q 823 -8 839 -33 q 787 38 808 16 q 744 73 766 59 q 704 87 722 87 l 27 87 l 407 460 l 437 390 q 523 336 460 336 l 682 336 l 637 290 q 613 266 623 275 q 593 252 603 257 q 571 246 583 248 q 541 244 559 244 l 444 244 q 404 247 419 244 q 377 257 388 250 q 357 278 366 264 q 337 313 348 292 l 290 262 q 269 232 269 236 q 274 217 269 224 q 286 203 278 210 q 302 193 293 197 q 321 189 311 189 l 702 189 q 790 136 734 189 q 829 96 810 117 q 868 56 848 76 q 880 87 880 72 q 857 146 880 100 l 827 207 q 793 300 793 277 q 826 379 793 342 l 910 460 q 901 407 901 428 q 930 324 901 382 l 975 235 q 1004 147 1004 175 m 761 -118 q 726 -190 761 -136 q 658 -138 700 -155 q 628 -105 628 -125 q 707 -24 628 -89 q 717 -49 708 -37 q 735 -74 726 -62 q 753 -97 745 -85 q 761 -118 761 -108 m 604 -118 q 569 -190 604 -136 q 501 -138 543 -155 q 471 -105 471 -125 q 551 -24 471 -89 q 560 -49 551 -37 q 578 -74 569 -62 q 596 -97 588 -85 q 604 -118 604 -108 m 709 -263 q 673 -335 709 -281 q 606 -283 648 -300 q 576 -250 576 -271 q 655 -170 576 -234 q 665 -194 656 -182 q 683 -219 673 -207 q 701 -242 692 -231 q 709 -263 709 -253 z "},"چ":{"ha":652,"x_min":34,"x_max":598,"o":"m 598 7 q 566 0 585 0 q 366 87 472 0 l 205 87 q 138 12 138 87 q 187 -56 138 -7 l 372 -240 q 430 -279 410 -279 q 452 -273 437 -278 q 488 -256 467 -268 l 544 -224 l 420 -352 q 359 -386 388 -386 q 300 -342 343 -386 l 77 -119 q 34 -36 34 -77 q 74 54 34 8 l 149 140 q 175 168 165 158 q 193 183 185 178 q 210 188 201 187 q 232 189 218 189 l 274 189 l 216 279 q 171 328 194 312 q 126 343 148 343 q 68 328 97 343 l 191 452 q 255 495 235 495 q 297 442 271 495 l 433 172 q 480 86 469 101 q 555 26 504 54 q 598 7 572 21 m 428 -24 q 401 -78 428 -37 q 352 -39 382 -52 q 330 -15 330 -31 q 388 45 330 -3 q 395 27 389 36 q 409 9 401 18 q 422 -8 416 0 q 428 -24 428 -17 m 312 -24 q 286 -78 312 -37 q 235 -39 266 -52 q 214 -15 214 -30 q 272 45 214 -3 q 279 27 273 36 q 293 9 286 18 q 306 -8 300 0 q 312 -24 312 -17 m 389 -132 q 363 -185 389 -144 q 313 -146 343 -159 q 291 -123 291 -137 q 349 -62 291 -111 q 356 -81 350 -72 q 370 -99 363 -90 q 384 -117 378 -109 q 389 -132 389 -125 z "},"ژ":{"ha":574,"x_min":0,"x_max":534,"o":"m 534 203 q 480 98 534 151 l 201 -175 q 42 -236 139 -236 q 0 -229 18 -236 q 75 -198 36 -220 q 157 -134 113 -177 l 361 64 q 414 149 414 115 q 380 222 414 156 l 351 283 q 316 376 316 353 q 349 455 316 418 l 433 536 q 424 483 424 504 q 453 400 424 458 l 498 311 q 534 203 534 237 m 347 785 q 312 713 347 767 q 244 765 286 747 q 214 798 214 777 q 294 878 214 814 q 303 853 294 866 q 321 829 312 841 q 339 806 331 817 q 347 785 347 795 m 437 655 q 401 583 437 637 q 334 635 376 618 q 304 668 304 648 q 383 749 304 684 q 393 724 384 736 q 411 700 401 711 q 429 676 420 688 q 437 655 437 665 m 280 655 q 245 583 280 637 q 177 635 219 618 q 147 668 147 648 q 227 749 147 684 q 236 724 227 736 q 254 700 245 711 q 272 676 264 688 q 280 655 280 665 z "},"ڤ":{"ha":1158,"x_min":27,"x_max":1124,"o":"m 1124 258 q 1073 153 1124 202 l 859 -53 q 838 -10 855 -34 q 799 36 821 14 q 751 73 776 58 q 709 87 727 87 l 27 87 l 407 460 l 437 390 q 516 336 460 336 l 665 336 l 620 290 q 596 266 606 275 q 576 252 586 257 q 554 246 566 248 q 524 244 543 244 l 437 244 q 402 246 416 244 q 378 255 389 248 q 359 276 368 262 q 337 313 350 290 l 290 262 q 269 232 269 241 q 274 217 269 224 q 286 203 278 210 q 302 193 293 197 q 321 189 311 189 l 707 189 q 812 129 754 189 q 880 68 871 68 q 906 87 906 68 q 865 142 906 103 l 775 229 q 736 304 736 266 q 774 370 736 332 l 1011 608 q 1002 555 1002 576 q 1031 472 1002 530 l 1095 346 q 1124 258 1124 288 m 1030 211 q 1017 254 1030 229 l 960 362 q 950 391 950 379 q 950 409 950 402 q 951 420 951 416 q 904 353 904 380 q 920 304 904 334 l 970 212 q 985 181 981 193 q 989 159 988 169 q 988 155 989 157 q 988 151 988 153 q 1030 211 1030 189 m 793 767 q 758 695 793 749 q 690 747 732 730 q 661 780 661 760 q 740 861 661 796 q 749 836 741 848 q 768 811 758 823 q 785 788 777 800 q 793 767 793 777 m 883 637 q 848 566 883 620 q 780 618 822 600 q 750 650 750 630 q 829 731 750 667 q 839 706 830 719 q 857 682 848 694 q 875 659 867 670 q 883 637 883 648 m 726 637 q 691 566 726 620 q 623 618 665 600 q 593 650 593 630 q 673 731 593 667 q 682 706 673 719 q 701 682 691 694 q 718 659 710 670 q 726 637 726 648 z "},"ک":{"ha":1545,"x_min":27,"x_max":1526,"o":"m 1526 117 q 1450 87 1495 87 l 27 87 l 407 460 l 437 390 q 523 336 460 336 l 682 336 l 637 290 q 613 266 623 275 q 593 252 603 257 q 571 246 583 248 q 541 244 559 244 l 444 244 q 404 247 419 244 q 377 257 388 250 q 357 278 366 264 q 337 313 348 292 l 290 262 q 269 232 269 236 q 274 217 269 224 q 286 203 278 210 q 302 193 293 197 q 321 189 311 189 l 1316 189 l 1289 244 l 798 244 q 773 249 785 244 q 753 263 762 254 q 739 284 744 272 q 734 313 734 297 q 795 384 734 324 l 1065 644 q 1121 741 1121 698 q 1023 844 1121 844 q 992 840 1009 844 q 957 829 975 836 q 918 813 938 822 q 880 796 899 805 l 1080 996 l 1148 861 q 1183 743 1183 793 q 1116 612 1183 675 l 1002 503 q 958 445 958 462 q 965 411 958 420 l 975 385 q 1037 346 990 346 l 1351 346 q 1392 295 1368 346 l 1438 197 q 1461 153 1451 169 q 1479 129 1470 137 q 1499 119 1489 121 q 1526 117 1510 117 z "},"گ":{"ha":1545,"x_min":27,"x_max":1526,"o":"m 1526 117 q 1450 87 1510 101 l 27 87 l 407 460 l 437 390 q 523 336 460 336 l 682 336 l 637 290 q 613 266 623 275 q 593 252 603 257 q 571 246 583 248 q 541 244 559 244 l 444 244 q 404 247 419 244 q 377 257 388 250 q 357 278 366 264 q 337 313 348 292 l 290 262 q 269 232 269 236 q 274 217 269 224 q 286 203 278 210 q 302 193 293 197 q 321 189 311 189 l 1316 189 l 1289 244 l 798 244 q 773 249 785 244 q 753 263 762 254 q 739 284 744 272 q 734 313 734 297 q 795 384 734 324 l 1065 644 q 1121 741 1121 698 q 1023 844 1121 844 q 992 840 1009 844 q 957 829 975 836 q 918 813 938 822 q 880 796 899 805 l 1080 996 l 1148 861 q 1183 743 1183 793 q 1116 612 1183 675 l 1002 503 q 958 445 958 462 q 965 411 958 420 l 975 385 q 1037 346 990 346 l 1351 346 q 1392 295 1368 346 l 1438 197 q 1461 153 1451 169 q 1479 129 1470 137 q 1499 119 1489 121 q 1526 117 1510 117 m 1119 1088 l 728 825 l 710 851 l 1064 1170 l 1119 1088 z "},"ی":{"ha":936,"x_min":47,"x_max":916,"o":"m 916 188 l 890 178 q 868 173 882 174 q 836 172 854 172 q 759 176 790 172 q 705 191 727 180 q 668 219 683 201 q 639 264 652 237 l 608 327 q 568 374 583 374 q 526 349 553 374 l 465 290 q 438 244 438 264 q 450 216 438 225 l 590 149 q 648 71 648 121 q 603 -8 648 35 l 464 -142 q 391 -182 421 -182 q 314 -142 354 -182 l 91 81 q 47 140 47 124 q 81 201 47 169 l 209 325 l 178 269 q 160 233 165 248 q 155 211 155 218 q 193 153 155 191 l 377 -32 q 438 -78 423 -78 q 488 -39 448 -78 l 522 -6 q 540 25 540 11 q 507 72 540 56 l 379 134 q 350 150 361 142 q 333 165 339 157 q 326 183 328 173 q 324 207 324 193 q 392 300 324 234 l 684 583 q 675 530 675 551 q 704 448 675 505 l 787 282 q 916 188 827 200 z "},"ە":{"ha":524,"x_min":40,"x_max":503,"o":"m 503 87 l 40 87 q 68 135 68 123 q 64 152 68 141 q 55 177 60 163 q 45 205 50 191 q 41 232 41 220 q 77 317 41 281 l 190 430 l 149 508 l 241 595 l 280 521 l 326 566 q 311 488 311 526 q 358 368 311 459 l 503 87 m 313 189 l 266 281 q 243 347 243 325 q 236 340 243 347 q 221 324 229 333 q 207 306 214 315 q 201 291 201 296 q 213 250 201 273 l 245 189 q 265 189 256 189 q 283 189 274 189 q 299 189 292 189 q 313 189 306 189 z "},"ۤ":{"ha":359,"x_min":31,"x_max":329,"o":"m 329 949 q 244 878 329 878 l 143 878 q 82 839 104 878 l 31 766 l 31 871 q 115 942 31 942 l 214 942 q 277 981 256 942 l 329 1055 l 329 949 z "},"۰":{"ha":315,"x_min":47,"x_max":268,"o":"m 268 536 q 224 464 268 505 l 135 380 q 91 463 135 406 q 47 546 47 519 q 83 614 47 578 l 179 709 l 178 703 q 223 622 178 684 q 268 536 268 559 z "},"۱":{"ha":264,"x_min":27,"x_max":214,"o":"m 214 160 l 136 87 l 136 572 q 27 827 136 623 l 142 943 q 214 592 214 823 l 214 160 z "},"۲":{"ha":563,"x_min":27,"x_max":537,"o":"m 537 943 l 466 795 q 374 832 430 832 l 188 832 q 214 592 214 732 l 214 160 l 136 87 l 136 572 q 27 827 136 623 l 142 943 l 537 943 z "},"۳":{"ha":597,"x_min":27,"x_max":571,"o":"m 571 889 l 484 712 q 471 694 479 703 q 454 679 463 686 q 435 668 445 672 q 417 663 425 663 q 350 718 379 663 l 321 771 l 275 726 q 249 702 258 711 q 234 689 240 694 q 223 683 228 684 q 211 680 218 681 q 213 639 212 661 q 214 592 214 617 l 214 160 l 136 87 l 136 572 q 27 827 136 623 l 142 943 q 185 842 162 910 l 192 815 q 210 802 201 802 q 313 869 246 802 l 368 924 l 403 846 q 431 808 420 808 q 468 848 448 808 l 515 943 l 571 889 z "},"۴":{"ha":597,"x_min":27,"x_max":518,"o":"m 518 700 q 486 657 509 677 q 434 622 464 637 q 371 598 405 607 q 304 590 337 590 q 210 606 261 590 l 214 551 l 214 160 l 136 87 l 136 572 q 27 827 136 623 l 142 943 q 187 831 167 904 q 203 878 189 856 q 240 916 217 899 q 295 941 263 932 q 364 951 326 951 q 501 854 410 951 l 498 842 q 401 871 441 871 q 338 861 367 871 q 287 831 309 850 q 252 786 265 812 q 235 728 238 760 q 325 711 280 711 q 483 800 448 711 l 518 700 z "},"۵":{"ha":553,"x_min":41,"x_max":515,"o":"m 515 307 q 504 220 515 260 q 473 150 492 180 q 427 103 453 120 q 369 86 400 86 q 307 118 335 86 q 195 68 251 68 q 138 83 165 68 q 89 124 110 98 q 54 184 67 150 q 41 258 41 219 l 41 335 q 102 549 41 430 l 222 781 q 311 912 277 888 q 355 771 311 889 l 424 581 q 454 512 437 551 q 490 423 471 473 q 515 307 515 338 m 446 273 q 302 603 446 366 q 293 618 300 607 q 273 649 286 630 l 184 487 q 144 354 144 415 q 150 284 144 313 q 165 238 155 256 q 193 212 176 220 q 233 203 210 203 q 337 260 277 203 q 406 212 363 212 q 446 273 446 212 z "},"۶":{"ha":685,"x_min":95,"x_max":610,"o":"m 610 692 l 564 556 q 170 87 288 477 l 127 87 q 149 231 136 170 q 183 341 162 292 q 235 432 204 390 q 310 521 265 475 q 95 680 95 545 q 184 855 95 752 q 340 945 262 945 q 386 939 365 945 q 429 919 408 933 q 473 879 450 904 q 526 817 496 854 l 515 785 q 460 810 483 800 q 418 824 438 819 q 377 830 398 829 q 327 831 356 831 q 269 825 296 831 q 222 807 242 818 q 191 781 202 795 q 180 749 180 766 q 197 711 180 729 q 244 679 215 693 q 310 657 273 665 q 386 649 347 649 q 610 692 470 649 z "},"۷":{"ha":658,"x_min":20,"x_max":635,"o":"m 635 943 q 614 889 621 912 q 608 849 608 867 q 601 747 608 792 q 581 661 594 702 l 446 252 q 420 153 420 173 q 445 87 420 120 l 316 87 l 122 650 q 105 694 113 677 q 89 720 97 711 q 70 733 80 730 q 47 736 60 736 l 20 736 l 129 943 l 368 248 l 475 571 q 488 636 488 613 q 465 708 488 680 l 420 762 l 452 849 q 563 943 485 943 l 635 943 z "},"۸":{"ha":658,"x_min":22,"x_max":636,"o":"m 636 294 l 528 87 l 289 782 l 182 459 q 168 394 168 417 q 191 322 168 349 l 236 268 l 205 181 q 94 87 171 87 l 22 87 q 42 141 36 118 q 49 181 49 163 q 48 190 49 186 q 48 199 48 194 q 76 370 48 284 l 210 778 q 236 877 236 857 q 212 943 236 910 l 340 943 l 534 380 q 552 336 544 353 q 568 310 559 319 q 586 297 576 300 q 609 294 595 294 l 636 294 z "},"۹":{"ha":597,"x_min":42,"x_max":556,"o":"m 556 203 l 441 87 q 370 438 370 206 l 370 556 q 278 532 323 532 q 64 569 145 532 q 42 606 42 578 l 42 696 q 60 764 42 728 l 114 878 q 203 943 144 943 l 228 943 q 326 918 261 943 q 448 793 448 871 l 448 458 q 556 203 448 408 m 370 662 l 370 709 q 293 814 370 771 l 247 840 q 202 852 225 852 q 164 814 184 852 l 118 727 q 106 694 106 703 q 119 685 106 690 q 153 673 132 679 q 199 660 174 667 q 248 649 224 654 q 291 641 272 644 q 319 637 310 637 q 370 662 348 637 z "},"‌":{"ha":31,"x_min":0,"x_max":31,"o":"m 31 0 l 0 0 l 0 1104 l 31 1104 l 31 0 z "},"‍":{"ha":31,"x_min":-77,"x_max":109,"o":"m 109 1015 l 88 994 l 31 1052 l 31 0 l 0 0 l 0 1051 l -57 994 l -77 1015 l -5 1087 l -77 1160 l -57 1180 l 16 1107 l 88 1180 l 109 1160 l 36 1087 l 109 1015 z "},"‎":{"ha":31,"x_min":0,"x_max":205,"o":"m 205 1088 l 113 994 l 92 1015 l 150 1074 l 31 1074 l 31 0 l 0 0 l 0 1104 l 147 1104 l 92 1160 l 113 1181 l 205 1088 z "},"‏":{"ha":31,"x_min":-175,"x_max":31,"o":"m 31 0 l 0 0 l 0 1074 l -119 1074 l -61 1015 l -82 994 l -175 1088 l -82 1181 l -61 1160 l -117 1104 l 31 1104 l 31 0 z "},"–":{"ha":694,"x_min":-8,"x_max":703,"o":"m 703 419 l -8 419 l -8 460 l 703 460 l 703 419 z "},"—":{"ha":1389,"x_min":-8,"x_max":1397,"o":"m 1397 419 l -8 419 l -8 460 l 1397 460 l 1397 419 z "},"‘":{"ha":333,"x_min":85,"x_max":317,"o":"m 317 1008 q 254 958 283 985 q 205 899 226 930 q 173 838 184 869 q 161 779 161 806 q 182 712 161 742 q 243 744 209 744 q 313 676 313 744 q 304 642 313 657 q 282 616 296 627 q 250 599 269 605 q 210 593 231 593 q 159 603 182 593 q 119 628 136 612 q 94 667 103 644 q 85 718 85 690 q 103 809 85 762 q 152 900 121 856 q 225 981 183 943 q 317 1045 268 1019 l 317 1008 z "},"’":{"ha":333,"x_min":71,"x_max":301,"o":"m 301 918 q 284 828 301 873 q 238 740 268 783 q 165 660 208 698 q 71 591 123 622 l 71 629 q 226 859 226 739 q 203 927 226 901 q 139 894 181 894 q 92 912 111 894 q 73 960 73 931 q 81 994 73 978 q 103 1020 89 1009 q 136 1038 117 1031 q 176 1044 155 1044 q 268 1010 235 1044 q 301 918 301 977 z "},"‚":{"ha":333,"x_min":81,"x_max":311,"o":"m 311 111 q 294 22 311 67 q 247 -65 277 -23 q 174 -146 216 -108 q 81 -214 132 -184 l 81 -176 q 235 52 235 -66 q 213 120 235 94 q 149 87 191 87 q 101 106 120 87 q 82 153 82 125 q 90 187 82 172 q 113 214 98 203 q 145 232 127 225 q 186 238 164 238 q 278 204 245 238 q 311 111 311 170 z "},"“":{"ha":441,"x_min":47,"x_max":388,"o":"m 388 777 q 361 760 373 770 q 341 738 349 750 q 329 715 333 726 q 325 695 325 704 q 380 619 380 680 q 374 589 380 603 q 358 565 368 575 q 335 550 348 555 q 307 544 321 544 q 277 551 291 544 q 252 570 262 557 q 236 598 242 582 q 231 635 231 615 q 368 878 231 771 q 369 815 368 818 q 388 777 372 788 m 205 777 q 178 760 190 770 q 158 738 166 750 q 146 715 150 726 q 142 695 142 704 q 197 619 197 680 q 191 589 197 603 q 175 565 185 575 q 152 550 165 555 q 124 544 138 544 q 94 551 108 544 q 69 570 79 557 q 53 598 59 582 q 47 635 47 615 q 185 878 47 771 q 186 815 185 818 q 205 777 189 788 z "},"”":{"ha":441,"x_min":53,"x_max":393,"o":"m 393 781 q 256 537 393 644 q 255 600 256 597 q 236 638 252 627 q 263 655 251 645 q 283 677 275 665 q 295 700 291 689 q 299 720 299 711 q 243 796 243 735 q 249 825 243 811 q 265 849 255 839 q 288 865 275 859 q 317 871 301 871 q 372 846 351 871 q 393 781 393 820 m 210 781 q 73 537 210 644 q 72 600 73 597 q 53 638 69 627 q 80 655 68 645 q 100 677 92 665 q 112 700 108 689 q 116 720 116 711 q 60 796 60 735 q 66 825 60 811 q 82 849 72 839 q 105 865 92 859 q 134 871 118 871 q 189 846 168 871 q 210 781 210 820 z "},"„":{"ha":637,"x_min":53,"x_max":586,"o":"m 586 111 q 570 21 586 66 q 525 -66 554 -24 q 453 -146 495 -108 q 358 -216 410 -184 l 358 -178 q 511 55 511 -69 q 490 120 511 89 q 429 87 467 87 q 402 93 414 87 q 380 107 389 98 q 366 128 371 116 q 360 155 360 140 q 368 188 360 173 q 389 214 375 203 q 421 231 402 225 q 463 237 440 237 q 554 203 522 237 q 586 111 586 170 m 281 113 q 53 -216 281 -77 l 53 -176 q 113 -131 85 -157 q 161 -74 140 -104 q 194 -12 182 -43 q 205 51 205 20 q 186 120 205 87 q 123 87 162 87 q 74 106 93 87 q 55 155 55 125 q 63 189 55 174 q 84 215 71 204 q 117 231 98 225 q 159 237 136 237 q 209 228 186 237 q 247 203 231 219 q 272 164 263 186 q 281 113 281 141 z "},"†":{"ha":608,"x_min":59,"x_max":548,"o":"m 548 572 l 517 572 q 437 636 515 614 l 321 668 q 386 441 334 559 q 343 170 359 334 q 321 -222 327 5 l 286 -222 q 221 441 273 201 q 286 668 271 553 l 195 644 q 143 628 163 635 q 111 612 123 621 q 94 595 99 604 q 87 572 89 585 l 59 572 l 59 802 l 87 802 q 189 730 92 754 l 286 706 l 262 836 q 251 897 256 875 q 243 927 246 920 q 180 983 224 979 l 180 1013 l 425 1013 l 425 983 q 363 930 382 983 q 345 844 355 911 l 321 706 l 404 726 q 517 802 512 753 l 548 802 l 548 572 z "},"‡":{"ha":608,"x_min":56,"x_max":554,"o":"m 554 -14 l 521 -14 q 453 47 517 20 l 324 83 l 357 -87 q 370 -141 364 -121 q 384 -172 376 -161 q 403 -186 392 -182 q 431 -190 414 -189 l 431 -221 l 180 -221 l 180 -190 q 207 -185 196 -189 q 227 -169 218 -180 q 242 -138 235 -158 q 254 -87 248 -118 l 285 87 l 152 45 q 91 -14 95 32 l 56 -14 l 56 220 l 91 220 q 97 197 93 207 q 112 180 102 188 q 141 166 123 173 q 188 150 159 159 l 285 120 q 218 398 272 220 q 251 512 234 445 q 285 669 267 579 l 170 636 q 86 572 90 614 l 56 572 l 56 804 l 86 804 q 114 760 94 774 q 130 753 117 759 q 164 739 142 748 l 285 706 l 248 897 q 237 937 243 921 q 224 963 231 954 q 206 977 216 972 q 180 982 195 981 l 180 1013 l 427 1013 l 427 982 q 365 934 383 981 q 357 906 362 927 q 346 849 353 885 l 319 706 l 390 724 q 441 738 421 732 q 468 747 460 744 q 516 804 514 768 l 554 804 l 554 572 l 516 572 q 512 590 515 583 q 501 605 509 598 q 476 620 493 612 q 431 636 460 627 l 324 669 q 356 516 340 583 q 390 398 372 449 q 352 258 368 327 q 324 120 336 189 l 431 154 l 439 158 l 464 166 q 521 220 515 183 l 554 220 l 554 -14 z "},"•":{"ha":391,"x_min":40,"x_max":351,"o":"m 351 521 q 338 460 351 489 q 305 411 326 432 q 255 378 283 390 q 195 366 227 366 q 135 378 163 366 q 85 411 106 390 q 52 460 64 432 q 40 521 40 489 q 52 582 40 553 q 85 631 64 610 q 135 665 106 652 q 195 677 163 677 q 256 665 228 677 q 306 631 285 652 q 338 582 326 610 q 351 521 351 553 z "},"…":{"ha":1389,"x_min":150,"x_max":1239,"o":"m 1239 149 q 1233 118 1239 132 q 1215 92 1226 103 q 1189 74 1204 81 q 1158 68 1174 68 q 1126 74 1141 68 q 1100 91 1111 80 q 1082 116 1088 102 q 1076 149 1076 131 q 1082 179 1076 165 q 1099 204 1088 193 q 1125 222 1110 216 q 1156 229 1139 229 q 1188 222 1173 229 q 1215 206 1203 216 q 1233 180 1226 195 q 1239 149 1239 165 m 776 149 q 769 118 776 132 q 752 92 763 103 q 726 74 741 81 q 694 68 711 68 q 663 74 677 68 q 637 91 648 80 q 620 117 626 102 q 613 149 613 132 q 620 179 613 165 q 637 205 626 194 q 662 222 648 216 q 693 229 677 229 q 725 222 709 229 q 751 205 740 216 q 769 180 762 195 q 776 149 776 165 m 313 149 q 307 117 313 132 q 289 92 300 102 q 263 74 278 81 q 231 68 248 68 q 200 74 215 68 q 174 92 185 81 q 156 117 163 102 q 150 149 150 132 q 156 179 150 165 q 174 204 163 193 q 199 222 184 216 q 230 229 214 229 q 262 222 247 229 q 289 206 277 216 q 307 180 300 195 q 313 149 313 165 z "},"‰":{"ha":1403,"x_min":55,"x_max":1350,"o":"m 1350 335 q 1332 236 1350 283 q 1284 153 1315 189 q 1213 95 1254 117 q 1124 74 1171 74 q 1049 90 1083 74 q 990 132 1015 105 q 952 196 966 159 q 939 276 939 233 q 956 378 939 330 q 1004 463 974 426 q 1076 520 1035 499 q 1166 542 1118 542 q 1240 526 1206 542 q 1298 483 1274 511 q 1336 417 1322 455 q 1350 335 1350 379 m 891 335 q 874 235 891 282 q 826 152 857 187 q 754 95 795 116 q 665 74 713 74 q 591 90 625 74 q 532 132 557 105 q 494 196 508 159 q 481 276 481 233 q 498 377 481 329 q 547 462 516 425 q 618 520 577 498 q 707 542 660 542 q 782 526 748 542 q 840 483 816 511 q 878 417 864 455 q 891 335 891 379 m 465 758 q 447 659 465 706 q 398 577 429 612 q 325 520 367 541 q 236 499 283 499 q 162 515 196 499 q 105 557 129 530 q 68 622 81 585 q 55 703 55 659 q 73 802 55 754 q 121 886 90 849 q 193 944 152 922 q 281 966 234 966 q 355 950 321 966 q 414 907 389 935 q 452 842 438 880 q 465 758 465 804 m 802 993 l 201 46 l 142 46 l 745 993 l 802 993 m 1270 267 q 1259 353 1270 311 q 1229 426 1249 394 q 1183 478 1210 458 q 1124 497 1156 497 q 1080 487 1099 497 q 1047 458 1061 477 q 1027 413 1034 439 q 1020 355 1020 387 q 1031 269 1020 311 q 1061 194 1042 227 q 1106 141 1080 161 q 1162 121 1132 121 q 1270 267 1270 121 m 812 267 q 802 353 812 311 q 771 426 791 394 q 725 478 752 458 q 666 497 698 497 q 622 487 641 497 q 589 457 602 476 q 569 412 576 438 q 562 355 562 387 q 572 269 562 311 q 602 194 583 227 q 647 141 621 161 q 705 121 673 121 q 812 267 812 121 m 385 696 q 373 779 385 739 q 343 851 362 820 q 297 902 323 883 q 240 921 271 921 q 162 882 190 921 q 135 775 135 843 q 146 688 135 730 q 176 613 157 646 q 223 562 196 581 q 282 543 250 543 q 385 696 385 543 z "},"‹":{"ha":347,"x_min":46,"x_max":310,"o":"m 310 655 l 155 396 l 306 138 l 306 87 l 46 396 l 310 706 l 310 655 z "},"›":{"ha":347,"x_min":43,"x_max":310,"o":"m 310 397 l 43 87 l 43 138 l 200 397 l 50 656 l 50 708 l 310 397 z "},"™":{"ha":1259,"x_min":28,"x_max":1243,"o":"m 1243 406 l 1009 406 l 1009 428 q 1049 431 1034 428 q 1074 443 1065 433 q 1086 472 1082 453 q 1089 524 1089 491 l 1089 873 l 879 406 l 867 406 l 648 864 l 648 519 q 651 467 648 486 q 662 440 654 448 q 686 430 671 431 q 728 428 702 428 l 728 406 l 534 406 l 534 428 q 602 448 589 428 q 611 524 611 461 l 611 836 q 608 885 611 867 q 596 913 605 903 q 573 927 588 923 q 534 932 558 930 l 534 955 l 694 955 l 895 524 l 1089 955 l 1243 955 l 1243 932 q 1201 927 1217 931 q 1178 915 1186 924 q 1168 889 1171 905 q 1166 845 1166 872 l 1166 524 q 1169 472 1166 491 q 1180 444 1172 454 q 1204 431 1189 434 q 1243 428 1219 429 l 1243 406 m 486 826 l 468 826 q 459 872 465 854 q 441 901 453 890 q 409 917 429 912 q 361 921 390 921 l 298 921 l 298 537 q 307 455 298 472 q 378 428 321 428 l 378 406 l 136 406 l 136 428 q 206 455 192 428 q 215 537 215 472 l 215 921 l 153 921 q 106 916 125 921 q 75 901 87 911 q 56 871 63 890 q 45 826 49 853 l 28 826 l 28 955 l 486 955 l 486 826 z "},"ﱠ":{"ha":421,"x_min":47,"x_max":421,"o":"m 395 1143 q 349 1124 385 1140 q 252 1080 313 1108 q 115 1030 148 1030 l 47 1030 l 191 1096 q 327 1143 296 1143 l 395 1143 m 421 977 q 297 922 389 970 q 197 878 211 878 q 175 885 184 878 q 155 904 165 891 q 131 935 144 916 q 95 979 117 954 l 135 979 q 155 972 144 979 q 176 958 165 966 q 194 943 186 949 q 207 936 203 936 q 239 962 239 936 q 235 982 239 971 q 225 1002 231 992 q 211 1020 219 1012 q 196 1034 203 1029 l 237 1034 q 271 1013 256 1034 q 303 976 294 976 q 334 1008 334 976 q 298 1063 334 1044 l 333 1065 l 338 1065 q 382 1031 367 1065 q 421 977 399 994 z "},"ﱡ":{"ha":421,"x_min":57,"x_max":421,"o":"m 421 977 q 297 922 389 970 q 197 878 211 878 q 175 885 184 878 q 155 904 165 891 q 131 935 144 916 q 95 979 117 954 l 135 979 q 155 972 144 979 q 176 958 165 966 q 194 943 186 949 q 207 936 203 936 q 239 962 239 936 q 235 982 239 971 q 225 1002 231 992 q 211 1020 219 1012 q 196 1034 203 1029 l 237 1034 q 271 1013 256 1034 q 303 976 294 976 q 334 1008 334 976 q 330 1031 334 1023 q 318 1046 326 1039 q 297 1061 310 1053 q 268 1082 285 1069 l 201 1049 q 119 1026 155 1026 l 57 1026 q 231 1109 132 1054 l 214 1126 q 189 1171 189 1148 q 215 1216 189 1196 l 296 1280 q 326 1217 296 1263 q 356 1153 356 1171 q 306 1100 356 1122 l 345 1065 q 383 1030 369 1063 q 421 977 398 994 m 309 1160 q 271 1198 309 1198 q 237 1170 237 1198 q 273 1130 237 1159 q 309 1160 309 1152 z "},"ﱞ":{"ha":421,"x_min":-11,"x_max":421,"o":"m 421 977 q 297 922 389 970 q 197 878 210 878 q 175 885 184 878 q 155 904 165 891 q 131 935 144 916 q 95 979 117 954 l 135 979 q 155 972 144 979 q 176 958 165 966 q 194 943 186 949 q 207 936 203 936 q 239 962 239 936 q 235 982 239 971 q 225 1002 231 992 q 211 1020 219 1012 q 196 1034 203 1029 l 237 1034 q 271 1013 256 1034 q 303 976 294 976 q 334 1008 334 976 q 330 1031 334 1023 q 318 1046 326 1039 q 298 1060 310 1053 q 269 1082 286 1068 q 175 1039 219 1053 q 100 1025 130 1025 l 100 1125 q 34 1112 67 1112 l -11 1112 q 11 1121 -2 1116 q 42 1136 23 1127 q 86 1158 60 1145 q 148 1190 112 1171 l 148 1081 q 189 1091 165 1082 q 233 1109 213 1099 l 214 1126 q 189 1171 189 1147 q 215 1216 189 1196 l 296 1280 q 326 1217 296 1263 q 356 1153 356 1171 q 306 1100 356 1122 l 345 1065 q 383 1030 369 1063 q 421 977 399 994 m 309 1160 q 271 1198 309 1198 q 237 1170 237 1198 q 273 1130 237 1159 q 309 1160 309 1152 z "},"ﱢ":{"ha":434,"x_min":47,"x_max":434,"o":"m 374 1044 q 250 989 341 1037 q 149 945 163 945 q 127 952 137 945 q 107 971 118 958 q 83 1002 97 983 q 47 1046 69 1021 l 87 1046 q 107 1040 96 1046 q 128 1025 118 1033 q 147 1010 138 1017 q 159 1003 155 1003 q 192 1029 192 1003 q 188 1049 192 1038 q 178 1069 184 1059 q 164 1087 172 1079 q 149 1101 156 1096 l 190 1101 q 223 1080 209 1101 q 256 1043 246 1043 q 286 1076 286 1043 q 251 1130 286 1111 l 286 1133 l 290 1133 q 335 1098 321 1133 q 374 1044 350 1062 m 434 991 q 388 972 423 988 q 290 928 352 956 q 154 878 186 878 l 86 878 l 230 944 q 366 991 332 991 l 434 991 z "},"ﱟ":{"ha":460,"x_min":47,"x_max":460,"o":"m 374 1120 q 250 1065 341 1112 q 149 1021 163 1021 q 127 1027 137 1021 q 107 1046 118 1034 q 83 1078 97 1059 q 47 1122 69 1097 l 87 1122 q 107 1115 96 1122 q 128 1100 118 1108 q 147 1085 138 1092 q 159 1078 155 1078 q 192 1105 192 1078 q 188 1124 192 1114 q 178 1144 184 1135 q 164 1163 172 1154 q 149 1176 156 1171 l 190 1176 q 223 1155 209 1176 q 256 1118 246 1118 q 286 1151 286 1118 q 251 1205 286 1186 l 286 1208 l 290 1208 q 335 1173 321 1208 q 374 1120 350 1137 m 434 1067 q 388 1047 423 1063 q 290 1003 352 1031 q 154 954 186 954 l 86 954 l 230 1019 q 366 1067 334 1067 l 434 1067 m 460 991 q 413 972 449 988 q 316 928 378 956 q 180 878 212 878 l 112 878 l 256 944 q 391 991 357 991 l 460 991 z "},"ﭐ":{"ha":360,"x_min":-59,"x_max":347,"o":"m 347 105 q 248 87 333 87 q 165 94 198 87 q 112 116 132 100 q 83 156 92 131 q 75 218 75 181 l 75 642 q -3 823 75 686 q 146 943 49 823 l 146 293 q 152 233 146 259 q 173 188 158 208 q 213 153 188 168 q 275 126 237 138 q 306 117 288 122 q 347 105 323 113 m 241 1088 q 231 1049 241 1067 q 204 1016 221 1030 q 164 992 186 1001 q 117 983 142 983 l -3 983 q -25 951 -25 983 l -24 938 q -23 933 -24 935 q -23 930 -23 931 q -23 927 -23 928 q -24 925 -24 926 q -59 998 -59 960 q -3 1045 -59 1045 l 14 1045 q 182 1160 99 1160 q 241 1088 241 1160 m 176 1088 q 153 1116 176 1116 q 52 1045 114 1116 l 111 1045 q 176 1088 176 1045 z "},"ﭑ":{"ha":262,"x_min":16,"x_max":316,"o":"m 312 87 l 105 87 l 105 642 q 27 823 105 686 q 176 943 73 823 l 176 267 q 185 247 176 260 q 205 220 194 233 q 229 198 217 208 q 249 189 241 189 l 312 189 l 312 87 m 316 1088 q 306 1049 316 1067 q 278 1016 296 1030 q 239 992 261 1001 q 192 983 216 983 l 72 983 q 50 951 50 983 l 51 938 q 51 933 51 935 q 52 930 52 931 q 51 927 52 928 q 51 925 51 926 q 16 998 16 960 q 71 1045 16 1045 l 88 1045 q 257 1160 174 1160 q 316 1088 316 1160 m 251 1088 q 228 1116 251 1116 q 127 1045 189 1116 l 186 1045 q 251 1088 251 1045 z "},"ﭖ":{"ha":1051,"x_min":27,"x_max":1004,"o":"m 1004 147 q 1002 121 1004 132 q 995 99 1000 110 q 978 76 989 88 q 949 46 967 64 l 844 -53 q 823 -8 839 -33 q 787 38 808 16 q 744 73 766 59 q 704 87 722 87 l 27 87 l 407 460 l 437 390 q 523 336 460 336 l 682 336 l 637 290 q 613 266 623 275 q 593 252 603 257 q 571 246 583 248 q 541 244 559 244 l 444 244 q 404 247 419 244 q 377 257 388 250 q 357 278 366 264 q 337 313 348 292 l 290 262 q 269 232 269 236 q 274 217 269 224 q 286 203 278 210 q 302 193 293 197 q 321 189 311 189 l 702 189 q 790 136 734 189 q 829 96 810 117 q 868 56 848 76 q 880 87 880 72 q 857 146 880 100 l 827 207 q 793 300 793 277 q 826 379 793 342 l 910 460 q 901 407 901 428 q 930 324 901 382 l 975 235 q 1004 147 1004 175 m 761 -118 q 726 -190 761 -136 q 658 -138 700 -155 q 628 -105 628 -125 q 707 -24 628 -89 q 717 -49 708 -37 q 735 -74 726 -62 q 753 -97 745 -85 q 761 -118 761 -108 m 604 -118 q 569 -190 604 -136 q 501 -138 543 -155 q 471 -105 471 -125 q 551 -24 471 -89 q 560 -49 551 -37 q 578 -74 569 -62 q 596 -97 588 -85 q 604 -118 604 -108 m 709 -263 q 673 -335 709 -281 q 606 -283 648 -300 q 576 -250 576 -271 q 655 -170 576 -234 q 665 -194 656 -182 q 683 -219 673 -207 q 701 -242 692 -231 q 709 -263 709 -253 z "},"ﭗ":{"ha":1034,"x_min":27,"x_max":1082,"o":"m 1082 87 l 988 87 q 973 70 983 80 q 949 46 963 59 l 844 -53 q 824 -8 840 -33 q 788 38 808 16 q 745 73 767 59 q 705 87 722 87 l 27 87 l 407 460 l 437 390 q 523 336 460 336 l 682 336 l 637 290 q 613 266 623 275 q 593 252 603 257 q 571 246 583 248 q 541 244 559 244 l 444 244 q 404 247 419 244 q 377 257 388 250 q 357 278 366 264 q 337 313 348 292 l 290 262 q 269 232 269 241 q 274 217 269 224 q 286 203 278 210 q 302 193 293 197 q 321 189 311 189 l 703 189 q 791 136 734 189 q 830 96 811 117 q 869 56 849 76 q 880 87 880 72 q 858 146 880 100 l 828 207 q 793 300 793 277 q 827 379 793 342 l 911 460 q 901 407 901 428 q 930 324 901 382 l 975 235 q 996 189 991 202 l 1082 189 l 1082 87 m 761 -118 q 726 -190 761 -136 q 658 -138 700 -155 q 628 -105 628 -125 q 707 -24 628 -89 q 717 -49 708 -37 q 735 -74 726 -62 q 753 -97 745 -85 q 761 -118 761 -108 m 604 -118 q 569 -190 604 -136 q 501 -138 543 -155 q 471 -105 471 -125 q 551 -24 471 -89 q 560 -49 551 -37 q 578 -74 569 -62 q 596 -97 588 -85 q 604 -118 604 -108 m 709 -263 q 673 -335 709 -281 q 606 -283 648 -300 q 576 -250 576 -271 q 655 -170 576 -234 q 665 -194 656 -182 q 683 -219 673 -207 q 701 -242 692 -231 q 709 -263 709 -253 z "},"ﭘ":{"ha":383,"x_min":0,"x_max":336,"o":"m 336 147 q 334 121 336 132 q 327 99 332 110 q 310 76 321 88 q 281 46 299 64 l 176 -53 q 157 -10 172 -35 q 123 36 142 14 q 83 73 104 58 q 47 87 63 87 l 0 87 l 0 189 l 45 189 q 130 128 70 189 l 200 56 q 212 87 212 72 q 189 146 212 100 l 159 207 q 125 300 125 277 q 158 379 125 342 l 242 460 q 233 407 233 428 q 262 324 233 382 l 307 235 q 336 147 336 175 m 315 -118 q 280 -190 315 -136 q 212 -138 254 -155 q 182 -105 182 -125 q 262 -24 182 -89 q 271 -49 262 -37 q 290 -74 280 -62 q 307 -97 299 -85 q 315 -118 315 -108 m 159 -118 q 123 -190 159 -136 q 56 -138 98 -155 q 26 -105 26 -125 q 105 -24 26 -89 q 115 -49 106 -37 q 133 -74 123 -62 q 151 -97 142 -85 q 159 -118 159 -108 m 263 -263 q 228 -335 263 -281 q 160 -283 202 -300 q 130 -250 130 -271 q 210 -170 130 -234 q 219 -194 210 -182 q 237 -219 228 -207 q 255 -242 247 -231 q 263 -263 263 -253 z "},"ﭙ":{"ha":380,"x_min":0,"x_max":427,"o":"m 427 87 l 319 87 q 304 70 314 80 q 281 46 294 59 l 176 -53 q 157 -10 172 -35 q 123 36 142 14 q 83 73 104 58 q 47 87 63 87 l 0 87 l 0 189 l 45 189 q 130 128 70 189 l 200 56 q 212 87 212 72 q 189 146 212 100 l 159 207 q 125 300 125 277 q 158 379 125 342 l 242 460 q 233 407 233 428 q 262 324 233 382 l 307 235 q 319 208 314 219 q 328 189 325 197 l 427 189 l 427 87 m 315 -118 q 280 -190 315 -136 q 212 -138 254 -155 q 182 -105 182 -125 q 262 -24 182 -89 q 271 -49 262 -37 q 290 -74 280 -62 q 307 -97 299 -85 q 315 -118 315 -108 m 159 -118 q 123 -190 159 -136 q 56 -138 98 -155 q 26 -105 26 -125 q 105 -24 26 -89 q 115 -49 106 -37 q 133 -74 123 -62 q 151 -97 142 -85 q 159 -118 159 -108 m 263 -263 q 228 -335 263 -281 q 160 -283 202 -300 q 130 -250 130 -271 q 210 -170 130 -234 q 219 -194 210 -182 q 237 -219 228 -207 q 255 -242 247 -231 q 263 -263 263 -253 z "},"ﭪ":{"ha":1158,"x_min":27,"x_max":1124,"o":"m 1124 258 q 1073 153 1124 202 l 859 -53 q 838 -10 855 -34 q 799 36 821 14 q 751 73 776 58 q 709 87 727 87 l 27 87 l 407 460 l 437 390 q 516 336 460 336 l 665 336 l 620 290 q 596 266 606 275 q 576 252 586 257 q 554 246 566 248 q 524 244 543 244 l 437 244 q 402 246 416 244 q 378 255 389 248 q 359 276 368 262 q 337 313 350 290 l 290 262 q 269 232 269 241 q 274 217 269 224 q 286 203 278 210 q 302 193 293 197 q 321 189 311 189 l 707 189 q 812 129 754 189 q 880 68 871 68 q 906 87 906 68 q 865 142 906 103 l 775 229 q 736 304 736 266 q 774 370 736 332 l 1011 608 q 1002 555 1002 576 q 1031 472 1002 530 l 1095 346 q 1124 258 1124 288 m 1030 211 q 1017 254 1030 229 l 960 362 q 950 391 950 379 q 950 409 950 402 q 951 420 951 416 q 904 353 904 380 q 920 304 904 334 l 970 212 q 985 181 981 193 q 989 159 988 169 q 988 155 989 157 q 988 151 988 153 q 1030 211 1030 189 m 793 767 q 758 695 793 749 q 690 747 732 730 q 661 780 661 760 q 740 861 661 796 q 749 836 741 848 q 768 811 758 823 q 785 788 777 800 q 793 767 793 777 m 883 637 q 848 566 883 620 q 780 618 822 600 q 750 650 750 630 q 829 731 750 667 q 839 706 830 719 q 857 682 848 694 q 875 659 867 670 q 883 637 883 648 m 726 637 q 691 566 726 620 q 623 618 665 600 q 593 650 593 630 q 673 731 593 667 q 682 706 673 719 q 701 682 691 694 q 718 659 710 670 q 726 637 726 648 z "},"ﭫ":{"ha":1158,"x_min":27,"x_max":1205,"o":"m 1205 87 l 1005 87 l 859 -53 q 838 -10 855 -34 q 799 36 821 14 q 751 73 776 58 q 709 87 727 87 l 27 87 l 407 460 l 437 390 q 516 336 460 336 l 665 336 l 620 290 q 596 266 606 275 q 576 252 586 257 q 554 246 566 248 q 524 244 543 244 l 437 244 q 402 246 416 244 q 378 255 389 248 q 359 276 368 262 q 337 313 350 290 l 290 262 q 269 232 269 241 q 274 217 269 224 q 286 203 278 210 q 302 193 293 197 q 321 189 311 189 l 707 189 q 812 129 754 189 q 880 68 871 68 q 906 87 906 68 q 865 142 906 103 l 775 229 q 736 304 736 266 q 774 370 736 332 l 1011 608 q 1002 555 1002 576 q 1031 472 1002 530 l 1095 346 q 1124 258 1124 288 q 1105 189 1124 215 l 1205 189 l 1205 87 m 1030 211 q 1017 254 1030 229 l 960 362 q 950 391 950 379 q 950 409 950 402 q 951 420 951 416 q 904 353 904 380 q 920 304 904 334 l 970 212 q 985 181 981 193 q 989 159 988 169 q 988 155 989 157 q 988 151 988 153 q 1030 211 1030 189 m 793 767 q 758 695 793 749 q 690 747 732 730 q 661 780 661 760 q 740 861 661 796 q 749 836 741 848 q 768 811 758 823 q 785 788 777 800 q 793 767 793 777 m 883 637 q 848 566 883 620 q 780 618 822 600 q 750 650 750 630 q 829 731 750 667 q 839 706 830 719 q 857 682 848 694 q 875 659 867 670 q 883 637 883 648 m 726 637 q 691 566 726 620 q 623 618 665 600 q 593 650 593 630 q 673 731 593 667 q 682 706 673 719 q 701 682 691 694 q 718 659 710 670 q 726 637 726 648 z "},"ﭬ":{"ha":485,"x_min":-26,"x_max":451,"o":"m 451 258 q 400 153 451 202 l 186 -53 q 165 -10 182 -34 q 126 36 149 14 q 79 73 103 58 q 36 87 54 87 l 0 87 l 0 189 l 34 189 q 140 129 81 189 q 207 68 198 68 q 233 87 233 68 q 192 142 233 103 l 102 229 q 64 304 64 266 q 102 370 64 332 l 338 608 q 329 555 329 576 q 358 472 329 530 l 422 346 q 451 258 451 288 m 357 211 q 344 254 357 229 l 287 362 q 277 391 277 379 q 278 409 277 402 q 279 420 278 416 q 231 353 231 380 q 248 304 231 334 l 298 212 q 312 181 309 193 q 316 159 315 169 q 316 155 316 157 q 315 151 315 153 q 357 211 357 189 m 174 767 q 138 695 174 749 q 71 747 113 730 q 41 780 41 760 q 120 861 41 796 q 130 836 121 848 q 148 811 138 823 q 165 788 157 800 q 174 767 174 777 m 263 637 q 228 566 263 620 q 160 618 202 600 q 130 650 130 630 q 210 731 130 667 q 219 706 210 719 q 237 682 228 694 q 255 659 247 670 q 263 637 263 648 m 106 637 q 71 566 106 620 q 3 618 45 600 q -26 650 -26 630 q 53 731 -26 667 q 62 706 54 719 q 81 682 71 694 q 98 659 90 670 q 106 637 106 648 z "},"ﭭ":{"ha":485,"x_min":-26,"x_max":532,"o":"m 532 87 l 332 87 l 186 -53 q 165 -10 182 -34 q 126 36 149 14 q 79 73 103 58 q 36 87 54 87 l 0 87 l 0 189 l 34 189 q 140 129 81 189 q 207 68 198 68 q 233 87 233 68 q 192 142 233 103 l 102 229 q 64 304 64 266 q 102 370 64 332 l 338 608 q 329 555 329 576 q 358 472 329 530 l 422 346 q 451 258 451 288 q 432 189 451 215 l 532 189 l 532 87 m 357 211 q 344 254 357 229 l 287 362 q 277 391 277 379 q 278 409 277 402 q 279 420 278 416 q 231 353 231 380 q 248 304 231 334 l 298 212 q 312 181 309 193 q 316 159 315 169 q 316 155 316 157 q 315 151 315 153 q 357 211 357 189 m 174 767 q 138 695 174 749 q 71 747 113 730 q 41 780 41 760 q 120 861 41 796 q 130 836 121 848 q 148 811 138 823 q 165 788 157 800 q 174 767 174 777 m 263 637 q 228 566 263 620 q 160 618 202 600 q 130 650 130 630 q 210 731 130 667 q 219 706 210 719 q 237 682 228 694 q 255 659 247 670 q 263 637 263 648 m 106 637 q 71 566 106 620 q 3 618 45 600 q -26 650 -26 630 q 53 731 -26 667 q 62 706 54 719 q 81 682 71 694 q 98 659 90 670 q 106 637 106 648 z "},"ﭺ":{"ha":652,"x_min":34,"x_max":598,"o":"m 598 7 q 566 0 585 0 q 366 87 472 0 l 205 87 q 138 12 138 87 q 187 -56 138 -7 l 372 -240 q 430 -279 410 -279 q 452 -273 437 -278 q 488 -256 467 -268 l 544 -224 l 420 -352 q 359 -386 388 -386 q 300 -342 343 -386 l 77 -119 q 34 -36 34 -77 q 74 54 34 8 l 149 140 q 175 168 165 158 q 193 183 185 178 q 210 188 201 187 q 232 189 218 189 l 274 189 l 216 279 q 171 328 194 312 q 126 343 148 343 q 68 328 97 343 l 191 452 q 255 495 235 495 q 297 442 271 495 l 433 172 q 480 86 469 101 q 555 26 504 54 q 598 7 572 21 m 428 -24 q 401 -78 428 -37 q 352 -39 382 -52 q 330 -15 330 -31 q 388 45 330 -3 q 395 27 389 36 q 409 9 401 18 q 422 -8 416 0 q 428 -24 428 -17 m 312 -24 q 286 -78 312 -37 q 235 -39 266 -52 q 214 -15 214 -30 q 272 45 214 -3 q 279 27 273 36 q 293 9 286 18 q 306 -8 300 0 q 312 -24 312 -17 m 389 -132 q 363 -185 389 -144 q 313 -146 343 -159 q 291 -123 291 -137 q 349 -62 291 -111 q 356 -81 350 -72 q 370 -99 363 -90 q 384 -117 378 -109 q 389 -132 389 -125 z "},"ﭻ":{"ha":529,"x_min":34,"x_max":576,"o":"m 203 87 q 138 12 138 87 q 187 -56 138 -7 l 372 -240 q 430 -279 410 -279 q 452 -273 437 -279 q 488 -256 467 -268 l 544 -224 l 420 -352 q 359 -386 388 -386 q 300 -342 343 -386 l 77 -119 q 34 -36 34 -77 q 74 54 34 8 l 149 140 q 175 168 165 158 q 193 183 185 178 q 210 188 201 187 q 232 189 218 189 l 274 189 l 216 279 q 171 328 194 312 q 126 343 148 343 q 68 328 97 343 l 191 452 q 255 495 235 495 q 297 442 271 495 l 404 230 q 482 189 424 189 l 576 189 l 576 87 l 203 87 m 463 -27 q 435 -83 463 -39 q 383 -43 417 -58 q 360 -17 360 -33 q 421 45 360 -5 q 429 26 422 36 q 443 7 435 16 q 457 -11 451 -2 q 463 -27 463 -20 m 342 -27 q 315 -83 342 -41 q 262 -43 295 -58 q 239 -17 239 -33 q 300 45 239 -4 q 308 26 301 36 q 321 7 314 16 q 335 -11 329 -2 q 342 -27 342 -20 m 422 -140 q 395 -195 422 -153 q 343 -155 375 -168 q 319 -130 319 -145 q 381 -67 319 -117 q 388 -86 382 -77 q 402 -105 395 -96 q 416 -123 410 -114 q 422 -140 422 -132 z "},"ﭼ":{"ha":632,"x_min":0,"x_max":598,"o":"m 598 -9 q 566 -17 585 -17 q 322 87 422 -17 l 0 87 l 0 189 l 254 189 l 195 279 q 151 328 174 312 q 106 343 127 343 q 47 328 77 343 l 171 452 q 235 495 214 495 q 277 442 250 495 l 412 172 q 555 9 472 53 q 598 -9 572 4 m 364 -118 q 329 -190 364 -136 q 261 -138 303 -155 q 231 -105 231 -125 q 311 -24 231 -89 q 320 -49 311 -37 q 338 -74 329 -62 q 356 -97 348 -85 q 364 -118 364 -108 m 208 -118 q 172 -190 208 -136 q 104 -138 146 -155 q 75 -105 75 -125 q 154 -24 75 -89 q 163 -49 155 -37 q 182 -74 172 -62 q 199 -97 191 -85 q 208 -118 208 -108 m 312 -263 q 277 -335 312 -281 q 209 -283 251 -300 q 179 -250 179 -271 q 258 -170 179 -234 q 268 -194 259 -182 q 286 -219 277 -207 q 304 -242 296 -231 q 312 -263 312 -253 z "},"ﭽ":{"ha":509,"x_min":0,"x_max":598,"o":"m 598 -9 q 566 -17 585 -17 q 322 87 422 -17 l 0 87 l 0 189 l 254 189 l 195 279 q 151 328 174 312 q 106 343 127 343 q 47 328 77 343 l 171 452 q 235 495 214 495 q 277 442 250 495 l 404 189 l 556 189 l 556 87 l 462 87 q 555 9 496 41 q 598 -9 572 4 m 364 -118 q 329 -190 364 -136 q 261 -138 303 -155 q 231 -105 231 -125 q 311 -24 231 -89 q 320 -49 311 -37 q 338 -74 329 -62 q 356 -97 348 -85 q 364 -118 364 -108 m 208 -118 q 172 -190 208 -136 q 104 -138 146 -155 q 75 -105 75 -125 q 154 -24 75 -89 q 163 -49 155 -37 q 182 -74 172 -62 q 199 -97 191 -85 q 208 -118 208 -108 m 312 -263 q 277 -335 312 -281 q 209 -283 251 -300 q 179 -250 179 -271 q 258 -170 179 -234 q 268 -194 259 -182 q 286 -219 277 -207 q 304 -242 296 -231 q 312 -263 312 -253 z "},"ﮊ":{"ha":574,"x_min":0,"x_max":534,"o":"m 534 203 q 480 98 534 151 l 201 -175 q 42 -236 139 -236 q 0 -229 18 -236 q 75 -198 36 -220 q 157 -134 113 -177 l 361 64 q 414 149 414 115 q 380 222 414 156 l 351 283 q 316 376 316 353 q 349 455 316 418 l 433 536 q 424 483 424 504 q 453 400 424 458 l 498 311 q 534 203 534 237 m 347 785 q 312 713 347 767 q 244 765 286 747 q 214 798 214 777 q 294 878 214 814 q 303 853 294 866 q 321 829 312 841 q 339 806 331 817 q 347 785 347 795 m 437 655 q 401 583 437 637 q 334 635 376 618 q 304 668 304 648 q 383 749 304 684 q 393 724 384 736 q 411 700 401 711 q 429 676 420 688 q 437 655 437 665 m 280 655 q 245 583 280 637 q 177 635 219 618 q 147 668 147 648 q 227 749 147 684 q 236 724 227 736 q 254 700 245 711 q 272 676 264 688 q 280 655 280 665 z "},"ﮋ":{"ha":574,"x_min":0,"x_max":622,"o":"m 622 87 l 470 87 l 201 -175 q 42 -236 139 -236 q 0 -229 18 -236 q 75 -198 36 -220 q 157 -134 113 -177 l 361 64 q 414 149 414 115 q 380 222 414 156 l 351 283 q 316 376 316 353 q 349 455 316 418 l 433 536 q 424 483 424 504 q 453 400 424 458 l 498 311 q 534 203 534 237 q 533 189 534 192 l 622 189 l 622 87 m 347 785 q 312 713 347 767 q 244 765 286 747 q 214 798 214 777 q 294 878 214 814 q 303 853 294 866 q 321 829 312 841 q 339 806 331 817 q 347 785 347 795 m 437 655 q 401 583 437 637 q 334 635 376 618 q 304 668 304 648 q 383 749 304 684 q 393 724 384 736 q 411 700 401 711 q 429 676 420 688 q 437 655 437 665 m 280 655 q 245 583 280 637 q 177 635 219 618 q 147 668 147 648 q 227 749 147 684 q 236 724 227 736 q 254 700 245 711 q 272 676 264 688 q 280 655 280 665 z "},"ﮎ":{"ha":1545,"x_min":27,"x_max":1526,"o":"m 1526 117 q 1450 87 1495 87 l 27 87 l 407 460 l 437 390 q 523 336 460 336 l 682 336 l 637 290 q 613 266 623 275 q 593 252 603 257 q 571 246 583 248 q 541 244 559 244 l 444 244 q 404 247 419 244 q 377 257 388 250 q 357 278 366 264 q 337 313 348 292 l 290 262 q 269 232 269 236 q 274 217 269 224 q 286 203 278 210 q 302 193 293 197 q 321 189 311 189 l 1316 189 l 1289 244 l 798 244 q 773 249 785 244 q 753 263 762 254 q 739 284 744 272 q 734 313 734 297 q 795 384 734 324 l 1065 644 q 1121 741 1121 698 q 1023 844 1121 844 q 992 840 1009 844 q 957 829 975 836 q 918 813 938 822 q 880 796 899 805 l 1080 996 l 1148 861 q 1183 743 1183 793 q 1116 612 1183 675 l 1002 503 q 958 445 958 462 q 965 411 958 420 l 975 385 q 1037 346 990 346 l 1351 346 q 1392 295 1368 346 l 1438 197 q 1461 153 1451 169 q 1479 129 1470 137 q 1499 119 1489 121 q 1526 117 1510 117 z "},"ﮏ":{"ha":1482,"x_min":27,"x_max":1529,"o":"m 1529 87 l 27 87 l 407 460 l 437 390 q 523 336 460 336 l 682 336 l 637 290 q 613 266 623 275 q 593 252 603 257 q 571 246 583 248 q 541 244 559 244 l 444 244 q 404 247 419 244 q 377 257 388 250 q 357 278 366 264 q 337 313 348 292 l 290 262 q 269 232 269 236 q 274 217 269 224 q 286 203 278 210 q 302 193 293 197 q 321 189 311 189 l 1316 189 l 1289 244 l 798 244 q 773 249 785 244 q 753 263 762 254 q 739 284 744 272 q 734 313 734 297 q 795 384 734 324 l 1065 644 q 1121 741 1121 698 q 1023 844 1121 844 q 992 840 1009 844 q 957 829 975 836 q 918 813 938 822 q 880 796 899 805 l 1080 996 l 1148 861 q 1183 743 1183 793 q 1116 612 1183 675 l 1002 503 q 958 445 958 462 q 965 411 958 420 l 975 385 q 1037 346 990 346 l 1351 346 q 1392 295 1369 346 l 1441 189 l 1529 189 l 1529 87 z "},"ﮐ":{"ha":845,"x_min":0,"x_max":823,"o":"m 823 117 q 747 87 791 87 l 0 87 l 0 189 l 613 189 l 585 244 l 95 244 q 70 249 82 244 q 50 263 58 254 q 36 284 41 272 q 31 313 31 297 q 92 384 31 324 l 362 644 q 418 741 418 698 q 320 844 418 844 q 289 840 306 844 q 253 829 272 836 q 215 813 235 822 q 176 796 195 805 l 377 996 l 445 861 q 479 743 479 793 q 412 612 479 675 l 298 503 q 255 445 255 462 q 262 411 255 420 l 272 385 q 334 346 287 346 l 648 346 q 689 295 665 346 l 735 197 q 758 153 748 170 q 776 129 767 137 q 796 119 785 121 q 823 117 807 117 z "},"ﮑ":{"ha":779,"x_min":0,"x_max":826,"o":"m 826 87 l 0 87 l 0 189 l 613 189 l 585 244 l 95 244 q 70 249 82 244 q 50 263 58 254 q 36 284 41 272 q 31 313 31 297 q 92 384 31 324 l 362 644 q 418 741 418 698 q 320 844 418 844 q 289 840 306 844 q 253 829 272 836 q 215 813 235 822 q 176 796 195 805 l 377 996 l 445 861 q 479 743 479 793 q 412 612 479 675 l 298 503 q 255 445 255 462 q 262 411 255 420 l 272 385 q 334 346 287 346 l 648 346 q 689 295 665 346 l 738 189 l 826 189 l 826 87 z "},"ﮒ":{"ha":1545,"x_min":27,"x_max":1526,"o":"m 1526 117 q 1450 87 1510 101 l 27 87 l 407 460 l 437 390 q 523 336 460 336 l 682 336 l 637 290 q 613 266 623 275 q 593 252 603 257 q 571 246 583 248 q 541 244 559 244 l 444 244 q 404 247 419 244 q 377 257 388 250 q 357 278 366 264 q 337 313 348 292 l 290 262 q 269 232 269 236 q 274 217 269 224 q 286 203 278 210 q 302 193 293 197 q 321 189 311 189 l 1316 189 l 1289 244 l 798 244 q 773 249 785 244 q 753 263 762 254 q 739 284 744 272 q 734 313 734 297 q 795 384 734 324 l 1065 644 q 1121 741 1121 698 q 1023 844 1121 844 q 992 840 1009 844 q 957 829 975 836 q 918 813 938 822 q 880 796 899 805 l 1080 996 l 1148 861 q 1183 743 1183 793 q 1116 612 1183 675 l 1002 503 q 958 445 958 462 q 965 411 958 420 l 975 385 q 1037 346 990 346 l 1351 346 q 1392 295 1368 346 l 1438 197 q 1461 153 1451 169 q 1479 129 1470 137 q 1499 119 1489 121 q 1526 117 1510 117 m 1119 1088 l 728 825 l 710 851 l 1064 1170 l 1119 1088 z "},"ﮓ":{"ha":1482,"x_min":27,"x_max":1529,"o":"m 1529 87 l 27 87 l 407 460 l 437 390 q 523 336 460 336 l 682 336 l 637 290 q 613 266 623 275 q 593 252 603 257 q 571 246 583 248 q 541 244 559 244 l 444 244 q 404 247 419 244 q 377 257 388 250 q 357 278 366 264 q 337 313 348 292 l 290 262 q 269 232 269 236 q 274 217 269 224 q 286 203 278 210 q 302 193 293 197 q 321 189 311 189 l 1316 189 l 1289 244 l 798 244 q 773 249 785 244 q 753 263 762 254 q 739 284 744 272 q 734 313 734 297 q 795 384 734 324 l 1065 644 q 1121 741 1121 698 q 1023 844 1121 844 q 992 840 1009 844 q 957 829 975 836 q 918 813 938 822 q 880 796 899 805 l 1080 996 l 1148 861 q 1183 743 1183 793 q 1116 612 1183 675 l 1002 503 q 958 445 958 462 q 965 411 958 420 l 975 385 q 1037 346 990 346 l 1351 346 q 1392 295 1369 346 l 1441 189 l 1529 189 l 1529 87 m 1119 1088 l 728 825 l 710 851 l 1064 1170 l 1119 1088 z "},"ﮔ":{"ha":845,"x_min":0,"x_max":823,"o":"m 823 117 q 747 87 791 87 l 0 87 l 0 189 l 613 189 l 585 244 l 95 244 q 70 249 82 244 q 50 263 58 254 q 36 284 41 272 q 31 313 31 297 q 92 384 31 324 l 362 644 q 418 741 418 698 q 320 844 418 844 q 289 840 306 844 q 253 829 272 836 q 215 813 235 822 q 176 796 195 805 l 377 996 l 445 861 q 479 743 479 793 q 412 612 479 675 l 298 503 q 255 445 255 462 q 262 411 255 420 l 272 385 q 334 346 287 346 l 648 346 q 689 295 665 346 l 735 197 q 758 153 748 170 q 776 129 767 137 q 796 119 785 121 q 823 117 807 117 m 416 1088 l 24 825 l 7 851 l 361 1170 l 416 1088 z "},"ﮕ":{"ha":779,"x_min":0,"x_max":826,"o":"m 826 87 l 0 87 l 0 189 l 613 189 l 585 244 l 95 244 q 70 249 82 244 q 50 263 58 254 q 36 284 41 272 q 31 313 31 297 q 92 384 31 324 l 362 644 q 418 741 418 698 q 320 844 418 844 q 289 840 306 844 q 253 829 272 836 q 215 813 235 822 q 176 796 195 805 l 377 996 l 445 861 q 479 743 479 793 q 412 612 479 675 l 298 503 q 255 445 255 462 q 262 411 255 420 l 272 385 q 334 346 287 346 l 648 346 q 689 295 665 346 l 738 189 l 826 189 l 826 87 m 416 1088 l 24 825 l 7 851 l 361 1170 l 416 1088 z "},"ﯼ":{"ha":936,"x_min":47,"x_max":916,"o":"m 916 188 l 890 178 q 868 173 882 174 q 836 172 854 172 q 759 176 790 172 q 705 191 727 180 q 668 219 683 201 q 639 264 652 237 l 608 327 q 568 374 583 374 q 526 349 553 374 l 465 290 q 438 244 438 264 q 450 216 438 225 l 590 149 q 648 71 648 121 q 603 -8 648 35 l 464 -142 q 391 -182 421 -182 q 314 -142 354 -182 l 91 81 q 47 140 47 124 q 81 201 47 169 l 209 325 l 178 269 q 160 233 165 248 q 155 211 155 218 q 193 153 155 191 l 377 -32 q 438 -78 423 -78 q 488 -39 448 -78 l 522 -6 q 540 25 540 11 q 507 72 540 56 l 379 134 q 350 150 361 142 q 333 165 339 157 q 326 183 328 173 q 324 207 324 193 q 392 300 324 234 l 684 583 q 675 530 675 551 q 704 448 675 505 l 787 282 q 916 188 827 200 z "},"ﯽ":{"ha":868,"x_min":47,"x_max":916,"o":"m 916 87 l 802 87 q 690 161 727 87 l 608 327 q 568 374 583 374 q 526 349 553 374 l 465 290 q 438 244 438 264 q 450 216 438 225 l 590 149 q 648 71 648 121 q 603 -8 648 35 l 464 -142 q 391 -182 421 -182 q 314 -142 354 -182 l 91 81 q 47 140 47 124 q 81 201 47 169 l 209 325 l 178 269 q 160 233 165 248 q 155 211 155 218 q 193 153 155 191 l 377 -32 q 438 -78 423 -78 q 488 -39 448 -78 l 522 -6 q 540 25 540 11 q 507 72 540 56 l 379 134 q 350 150 361 142 q 333 165 339 157 q 326 183 328 173 q 324 207 324 193 q 392 300 324 234 l 684 583 q 675 530 675 551 q 704 448 675 505 l 807 241 q 884 189 833 189 l 916 189 l 916 87 z "},"ﳲ":{"ha":701,"x_min":0,"x_max":748,"o":"m 504 1143 q 457 1124 493 1140 q 360 1080 422 1108 q 224 1030 256 1030 l 156 1030 l 300 1096 q 435 1143 404 1143 l 504 1143 m 530 977 q 406 922 497 970 q 305 878 319 878 q 283 885 293 878 q 263 904 274 891 q 239 935 253 916 q 203 979 225 954 l 243 979 q 263 972 252 979 q 284 958 274 966 q 303 943 294 949 q 315 936 311 936 q 348 962 348 936 q 344 982 348 971 q 334 1002 340 992 q 320 1020 328 1012 q 304 1034 312 1029 l 346 1034 q 379 1013 365 1034 q 412 976 402 976 q 442 1008 442 976 q 407 1063 442 1044 l 441 1065 l 446 1065 q 491 1031 475 1065 q 530 977 507 994 m 748 87 l 0 87 l 0 189 l 748 189 l 748 87 z "},"ﳳ":{"ha":701,"x_min":0,"x_max":748,"o":"m 530 977 q 406 922 497 970 q 305 878 319 878 q 283 885 293 878 q 263 904 274 891 q 239 935 253 916 q 203 979 225 954 l 243 979 q 263 972 252 979 q 284 958 274 966 q 303 943 294 949 q 315 936 311 936 q 348 962 348 936 q 344 982 348 971 q 334 1002 340 992 q 320 1020 328 1012 q 304 1034 312 1029 l 346 1034 q 379 1013 365 1034 q 412 976 402 976 q 442 1008 442 976 q 438 1031 442 1023 q 427 1046 435 1039 q 406 1061 418 1053 q 376 1082 393 1069 l 309 1049 q 228 1026 264 1026 l 165 1026 q 340 1109 240 1054 l 322 1126 q 298 1171 298 1148 q 323 1216 298 1196 l 405 1280 q 435 1217 405 1263 q 465 1153 465 1171 q 414 1100 465 1122 l 454 1065 q 492 1030 477 1063 q 530 977 507 994 m 418 1160 q 380 1198 418 1198 q 345 1170 345 1198 q 382 1130 345 1159 q 418 1160 418 1152 m 748 87 l 0 87 l 0 189 l 748 189 l 748 87 z "},"ﳴ":{"ha":701,"x_min":0,"x_max":748,"o":"m 509 1044 q 385 989 477 1037 q 285 945 299 945 q 263 952 273 945 q 243 971 254 958 q 219 1002 233 983 q 183 1046 205 1021 l 223 1046 q 243 1040 232 1046 q 264 1025 254 1033 q 282 1010 274 1017 q 295 1003 291 1003 q 328 1029 328 1003 q 323 1049 328 1038 q 313 1069 319 1059 q 299 1087 307 1079 q 284 1101 292 1096 l 326 1101 q 359 1080 345 1101 q 391 1043 382 1043 q 422 1076 422 1043 q 387 1130 422 1111 l 421 1133 l 426 1133 q 471 1098 455 1133 q 509 1044 487 1061 m 570 991 q 523 972 559 988 q 426 928 488 956 q 290 878 322 878 l 222 878 l 366 944 q 501 991 470 991 l 570 991 m 748 87 l 0 87 l 0 189 l 748 189 l 748 87 z "},"ﴼ":{"ha":285,"x_min":-77,"x_max":332,"o":"m 332 87 l 125 87 l 125 642 q 47 823 125 686 q 197 943 94 823 l 197 267 q 205 247 197 260 q 226 220 214 233 q 250 198 237 208 q 269 189 262 189 l 332 189 l 332 87 m 271 1137 q 225 1118 260 1134 q 127 1074 189 1102 q -9 1024 24 1024 l -77 1024 l 67 1090 q 203 1137 172 1137 l 271 1137 m 297 1062 q 251 1043 286 1059 q 153 998 215 1027 q 17 949 50 949 l -51 949 l 93 1015 q 229 1062 195 1062 l 297 1062 z "},"ﴽ":{"ha":411,"x_min":-77,"x_max":397,"o":"m 397 105 q 298 87 384 87 q 216 94 249 87 q 162 116 182 100 q 134 156 142 131 q 125 218 125 181 l 125 642 q 47 823 125 686 q 197 943 100 823 l 197 293 q 203 234 197 259 q 224 190 210 209 q 264 155 239 170 q 326 126 289 140 q 356 118 338 123 q 397 105 374 113 m 271 1137 q 225 1118 260 1134 q 127 1074 189 1102 q -9 1024 24 1024 l -77 1024 l 67 1090 q 203 1137 172 1137 l 271 1137 m 297 1062 q 251 1043 286 1059 q 153 998 215 1027 q 17 949 50 949 l -51 949 l 93 1015 q 229 1062 195 1062 l 297 1062 z "},"﴾":{"ha":643,"x_min":58,"x_max":569,"o":"m 569 -90 q 542 -123 553 -109 q 524 -152 531 -138 q 515 -180 517 -165 q 512 -212 512 -194 q 513 -219 512 -212 q 515 -248 513 -227 q 521 -304 517 -269 q 531 -395 525 -340 l 359 -183 q 232 77 267 -70 q 155 73 195 77 q 71 61 115 68 q 161 135 120 98 q 227 208 202 172 q 205 230 213 218 q 132 163 166 202 q 58 73 97 125 q 75 241 75 163 l 75 345 q 58 513 75 422 q 132 422 97 460 q 205 356 166 384 q 228 379 215 369 q 162 452 204 414 q 71 526 120 489 q 232 509 161 509 q 359 769 267 656 l 531 981 q 522 899 526 943 q 512 807 517 856 l 512 798 q 515 766 512 780 q 524 738 517 751 q 542 709 531 724 q 569 675 553 694 q 442 650 479 675 q 357 509 396 618 q 510 526 419 509 q 418 451 458 487 q 353 379 378 414 q 376 356 366 369 q 413 387 395 371 q 449 422 431 404 q 485 463 467 441 q 523 513 503 486 q 511 427 515 469 q 507 345 507 386 l 507 241 q 511 159 507 200 q 523 73 515 117 q 449 165 484 125 q 376 230 413 205 q 353 208 367 218 q 418 136 378 172 q 510 61 458 100 q 428 73 466 68 q 357 77 390 77 q 442 -64 396 -33 q 569 -90 479 -90 m 496 709 q 478 808 478 730 q 481 834 479 819 q 486 871 483 850 l 386 748 q 260 479 291 631 q 213 480 235 479 q 173 482 192 481 q 218 438 198 458 q 255 393 239 418 q 290 399 271 399 q 326 393 309 399 q 361 436 340 414 q 408 482 382 458 q 365 480 389 481 q 312 479 341 479 q 422 677 355 628 q 496 709 468 709 m 479 176 q 477 207 478 191 q 477 241 477 223 l 477 345 q 477 379 477 363 q 479 410 478 395 q 431 361 454 382 q 391 328 409 341 q 397 293 397 312 q 391 258 397 274 q 436 221 416 241 q 479 176 456 201 m 368 293 q 361 322 368 309 q 345 347 355 336 q 320 364 334 358 q 290 370 306 370 q 261 364 275 370 q 236 348 247 358 q 219 323 226 337 q 213 293 213 309 q 219 263 213 277 q 236 239 225 250 q 260 222 246 229 q 290 216 275 216 q 320 222 307 216 q 345 239 334 229 q 361 264 355 250 q 368 293 368 277 m 190 257 q 184 293 184 274 q 190 328 184 312 q 145 365 165 346 q 102 410 125 385 q 104 375 103 391 q 105 345 105 359 l 105 241 q 104 211 105 227 q 102 176 103 195 q 147 222 126 202 q 190 257 168 243 m 496 -123 q 422 -91 468 -123 q 312 107 355 -42 q 369 106 345 107 q 408 104 393 106 q 361 150 382 128 q 326 193 340 172 q 290 187 309 187 q 255 193 271 187 q 222 153 242 175 q 173 104 201 130 q 210 106 188 106 q 260 107 231 107 q 386 -162 291 -45 l 486 -286 q 481 -256 484 -274 q 478 -214 478 -238 q 496 -123 478 -144 z "},"﴿":{"ha":643,"x_min":74,"x_max":585,"o":"m 585 73 q 511 163 546 125 q 438 230 477 202 q 416 208 430 218 q 482 135 441 172 q 572 61 523 98 q 488 73 528 68 q 411 77 448 77 q 283 -183 376 -70 l 112 -395 q 121 -313 117 -357 q 131 -221 126 -270 l 131 -212 q 128 -180 131 -194 q 119 -152 125 -165 q 101 -123 112 -138 q 74 -90 90 -109 q 201 -64 163 -90 q 286 77 246 -33 q 215 73 253 77 q 133 61 177 68 q 224 136 184 100 q 290 208 264 172 q 267 230 276 218 q 194 165 230 205 q 120 73 159 125 q 132 159 127 117 q 136 241 136 200 l 136 345 q 132 427 136 386 q 120 513 127 469 q 158 463 140 486 q 194 422 176 441 q 229 387 211 404 q 267 356 247 371 q 290 379 277 369 q 224 451 264 414 q 133 526 184 487 q 286 509 223 509 q 201 650 246 618 q 74 675 163 675 q 101 709 90 694 q 119 738 112 724 q 128 766 125 751 q 131 798 131 780 q 130 805 131 797 q 127 833 130 812 q 122 890 125 854 q 112 981 118 926 l 283 769 q 411 509 376 656 q 572 526 481 509 q 481 452 523 489 q 415 379 439 414 q 438 356 428 369 q 511 422 477 384 q 585 513 546 460 q 568 345 568 422 l 568 241 q 585 73 568 163 m 470 482 q 430 480 451 481 q 383 479 408 479 q 257 748 352 631 l 157 871 q 162 842 159 860 q 165 800 165 824 q 147 709 165 730 q 220 677 174 709 q 331 479 288 628 q 278 480 302 479 q 235 482 254 481 q 282 436 261 458 q 317 393 302 414 q 353 399 334 399 q 388 393 372 399 q 424 437 404 416 q 470 482 444 458 m 541 176 q 539 211 540 195 q 538 241 538 227 l 538 345 q 539 375 538 359 q 541 410 540 391 q 498 365 517 385 q 453 328 478 346 q 459 293 459 312 q 453 257 459 274 q 495 222 475 243 q 541 176 516 201 m 430 293 q 424 322 430 309 q 407 347 418 336 q 382 364 396 358 q 353 370 368 370 q 323 364 337 370 q 299 348 309 358 q 282 323 288 337 q 275 293 275 309 q 281 263 275 277 q 298 239 288 250 q 323 222 309 229 q 353 216 337 216 q 383 222 369 216 q 407 239 397 229 q 424 264 418 250 q 430 293 430 277 m 252 258 q 246 293 246 274 q 252 328 246 312 q 212 361 234 341 q 163 410 189 382 q 165 379 165 395 q 166 345 166 363 l 166 241 q 165 207 166 223 q 163 176 165 191 q 207 221 187 201 q 252 258 227 241 m 470 104 q 421 153 441 130 q 388 193 401 175 q 353 187 372 187 q 317 193 334 187 q 282 150 302 172 q 235 104 261 128 q 274 106 250 106 q 331 107 298 107 q 220 -91 288 -42 q 147 -123 174 -123 q 165 -222 165 -145 q 162 -249 163 -233 q 157 -286 160 -264 l 257 -162 q 383 107 352 -45 q 433 106 412 107 q 470 104 455 106 z "},"ﷲ":{"ha":928,"x_min":40,"x_max":913,"o":"m 913 125 q 831 87 881 87 l 40 87 q 68 135 68 123 q 64 152 68 141 q 55 177 60 163 q 45 205 50 191 q 41 232 41 220 q 77 317 41 281 l 190 430 l 149 508 l 241 595 l 280 521 l 326 566 q 311 488 311 526 q 358 368 311 460 l 450 189 l 507 189 q 519 193 513 189 q 531 203 526 197 q 539 216 536 209 q 543 231 543 224 l 543 441 q 465 622 543 484 q 614 741 511 622 l 614 267 q 622 247 614 260 q 642 221 631 234 q 666 199 654 208 q 685 189 677 189 l 732 189 q 745 193 738 189 q 757 203 751 197 q 766 216 763 209 q 770 231 770 223 l 770 570 q 692 751 770 614 q 841 871 738 751 l 841 224 q 844 180 841 197 q 855 153 847 163 q 877 137 863 143 q 913 125 891 131 m 576 780 q 452 725 544 772 q 352 681 366 681 q 330 687 340 681 q 310 706 321 694 q 286 738 300 719 q 250 782 272 757 l 290 782 q 310 775 299 782 q 331 760 321 768 q 350 745 341 752 q 362 739 358 739 q 395 765 395 739 q 391 784 395 774 q 380 805 387 795 q 367 823 374 814 q 351 836 359 831 l 393 836 q 426 815 412 836 q 458 779 449 779 q 489 811 489 779 q 454 865 489 846 l 488 868 l 493 868 q 538 833 524 868 q 576 780 553 798 m 479 898 q 427 889 472 889 q 382 892 400 889 q 355 903 365 895 q 340 922 345 910 q 336 952 336 935 l 336 1022 q 294 1109 336 1043 q 373 1168 322 1109 l 373 989 q 379 955 373 968 q 399 931 386 941 q 432 913 412 921 q 479 898 452 906 m 313 189 l 266 281 q 243 347 243 325 q 236 340 243 347 q 221 324 229 333 q 207 306 214 315 q 201 291 201 296 q 213 250 201 273 l 245 189 q 265 189 256 189 q 283 189 274 189 q 299 189 292 189 q 313 189 306 189 z "},"ﹰ":{"ha":395,"x_min":22,"x_max":395,"o":"m 370 1067 q 323 1047 359 1063 q 226 1003 288 1031 q 90 954 122 954 l 22 954 l 165 1019 q 301 1067 270 1067 l 370 1067 m 395 991 q 349 972 385 988 q 252 928 313 956 q 115 878 148 878 l 47 878 l 191 944 q 327 991 293 991 l 395 991 z "},"ﹱ":{"ha":701,"x_min":0,"x_max":748,"o":"m 511 1067 q 465 1047 500 1063 q 368 1003 429 1031 q 231 954 264 954 l 163 954 l 307 1019 q 443 1067 412 1067 l 511 1067 m 537 991 q 491 972 526 988 q 393 928 455 956 q 257 878 290 878 l 189 878 l 333 944 q 469 991 437 991 l 537 991 m 748 87 l 0 87 l 0 189 l 748 189 l 748 87 z "},"ﹲ":{"ha":391,"x_min":24,"x_max":391,"o":"m 391 1005 q 340 952 391 975 l 380 917 l 350 917 q 303 934 326 917 q 209 891 254 905 q 135 878 165 878 l 135 977 q 68 964 102 964 l 24 964 q 45 974 33 968 q 76 988 58 979 q 121 1010 95 998 q 182 1042 146 1023 l 182 932 q 224 943 200 934 q 267 961 248 951 l 248 978 q 224 1023 224 999 q 250 1068 224 1048 l 331 1133 q 361 1069 331 1115 q 391 1005 391 1023 m 344 1012 q 306 1050 344 1050 q 271 1022 271 1050 q 308 982 271 1011 q 344 1012 344 1004 z "},"ﹴ":{"ha":395,"x_min":22,"x_max":395,"o":"m 370 -156 q 323 -175 359 -159 q 226 -220 288 -191 q 90 -269 122 -269 l 22 -269 l 165 -203 q 301 -156 270 -156 l 370 -156 m 395 -231 q 349 -251 385 -235 q 252 -295 313 -267 q 115 -345 148 -345 l 47 -345 l 191 -279 q 327 -231 293 -231 l 395 -231 z "},"ﹶ":{"ha":395,"x_min":47,"x_max":395,"o":"m 395 991 q 349 972 385 988 q 252 928 313 956 q 115 878 148 878 l 47 878 l 191 944 q 327 991 293 991 l 395 991 z "},"ﹷ":{"ha":701,"x_min":0,"x_max":748,"o":"m 524 991 q 478 972 513 988 q 380 928 442 956 q 244 878 277 878 l 176 878 l 320 944 q 456 991 425 991 l 524 991 m 748 87 l 0 87 l 0 189 l 748 189 l 748 87 z "},"ﹸ":{"ha":347,"x_min":47,"x_max":347,"o":"m 347 1005 q 296 952 347 975 l 336 917 l 306 917 q 258 935 284 917 l 191 901 q 110 878 146 878 l 47 878 q 222 962 122 906 l 204 978 q 180 1023 180 1000 q 205 1068 180 1048 l 287 1133 q 317 1069 287 1115 q 347 1005 347 1023 m 300 1012 q 262 1050 300 1050 q 227 1022 227 1050 q 264 982 227 1011 q 300 1012 300 1004 z "},"ﹹ":{"ha":701,"x_min":0,"x_max":748,"o":"m 500 1005 q 450 952 500 975 l 489 917 l 459 917 q 412 935 437 917 l 345 901 q 263 878 299 878 l 201 878 q 375 962 275 906 l 357 978 q 333 1023 333 1000 q 359 1068 333 1048 l 440 1133 q 470 1069 440 1115 q 500 1005 500 1023 m 453 1012 q 415 1050 453 1050 q 380 1022 380 1050 q 417 982 380 1011 q 453 1012 453 1004 m 748 87 l 0 87 l 0 189 l 748 189 l 748 87 z "},"ﹺ":{"ha":395,"x_min":47,"x_max":395,"o":"m 395 -156 q 349 -175 385 -159 q 252 -220 313 -191 q 115 -269 148 -269 l 47 -269 l 191 -203 q 327 -156 293 -156 l 395 -156 z "},"ﹻ":{"ha":701,"x_min":0,"x_max":748,"o":"m 524 -156 q 478 -175 513 -159 q 380 -220 442 -191 q 244 -269 277 -269 l 176 -269 l 320 -203 q 456 -156 425 -156 l 524 -156 m 748 87 l 0 87 l 0 189 l 748 189 l 748 87 z "},"ﹼ":{"ha":374,"x_min":47,"x_max":374,"o":"m 374 977 q 250 922 341 970 q 149 878 163 878 q 127 885 137 878 q 107 904 118 891 q 83 935 97 916 q 47 979 69 954 l 87 979 q 107 972 96 979 q 128 958 118 966 q 147 943 138 949 q 159 936 155 936 q 192 962 192 936 q 188 982 192 971 q 178 1002 184 992 q 164 1020 172 1012 q 149 1034 156 1029 l 190 1034 q 223 1013 209 1034 q 256 976 246 976 q 286 1008 286 976 q 251 1063 286 1044 l 286 1065 l 290 1065 q 335 1031 321 1065 q 374 977 350 995 z "},"ﹽ":{"ha":701,"x_min":0,"x_max":748,"o":"m 513 977 q 389 922 481 970 q 289 878 303 878 q 267 885 277 878 q 247 904 258 891 q 223 935 237 916 q 187 979 209 954 l 227 979 q 247 972 236 979 q 268 958 258 966 q 287 943 278 949 q 299 936 295 936 q 332 962 332 936 q 328 982 332 971 q 317 1002 323 992 q 303 1020 311 1012 q 288 1034 296 1029 l 330 1034 q 363 1013 349 1034 q 395 976 386 976 q 426 1008 426 976 q 391 1063 426 1044 l 425 1065 l 430 1065 q 475 1031 459 1065 q 513 977 491 994 m 748 87 l 0 87 l 0 189 l 748 189 l 748 87 z "},"ﹾ":{"ha":221,"x_min":47,"x_max":221,"o":"m 221 958 q 214 927 221 941 q 195 901 207 912 q 168 884 183 890 q 134 878 152 878 q 100 884 116 878 q 73 900 85 890 q 54 923 61 910 q 47 951 47 937 q 91 1029 47 985 l 148 1088 q 184 1021 148 1057 q 221 958 221 984 m 176 952 q 172 967 176 960 q 161 983 168 975 q 147 1000 155 991 q 132 1016 139 1008 q 105 987 119 1002 q 92 958 92 972 q 133 920 92 920 q 148 922 140 920 q 162 929 156 925 q 172 940 168 934 q 176 952 176 946 z "},"ﹿ":{"ha":701,"x_min":0,"x_max":748,"o":"m 437 958 q 430 927 437 941 q 411 902 423 912 q 383 885 399 891 q 351 878 368 878 q 316 884 332 878 q 289 900 300 890 q 271 923 277 910 q 264 951 264 937 q 307 1029 264 985 l 364 1088 q 401 1021 364 1057 q 437 958 437 984 m 393 952 q 388 967 393 960 q 377 983 384 975 q 363 1000 371 991 q 348 1016 355 1008 q 321 987 334 1002 q 309 958 309 972 q 349 920 309 920 q 365 922 357 920 q 378 929 372 925 q 389 940 385 934 q 393 952 393 946 m 748 87 l 0 87 l 0 189 l 748 189 l 748 87 z "},"ﺀ":{"ha":444,"x_min":68,"x_max":410,"o":"m 410 189 l 396 129 q 346 87 386 87 l 68 87 l 124 140 q 118 153 124 142 q 103 181 111 165 q 89 218 96 198 q 83 255 83 237 q 199 388 83 326 q 242 416 222 400 q 280 450 262 432 q 315 488 298 468 q 349 527 332 507 l 349 375 q 348 359 349 365 q 342 348 347 353 q 327 339 337 343 q 300 330 317 335 l 228 307 q 198 288 208 300 q 189 262 189 277 q 193 239 189 252 q 206 215 198 227 q 224 197 214 204 q 245 189 235 189 l 410 189 z "},"ﺁ":{"ha":374,"x_min":-52,"x_max":360,"o":"m 360 105 q 261 87 347 87 q 178 94 212 87 q 125 116 145 100 q 97 156 105 131 q 88 218 88 181 l 88 642 q 10 823 88 686 q 159 943 62 823 l 159 293 q 166 234 159 259 q 187 190 172 209 q 227 155 202 170 q 288 126 252 140 q 319 118 301 123 q 360 105 337 113 m 246 1055 q 161 984 246 984 l 60 984 q -1 945 22 984 l -52 871 l -52 977 q 33 1048 -52 1048 l 131 1048 q 195 1087 174 1048 l 246 1160 l 246 1055 z "},"ﺂ":{"ha":248,"x_min":-52,"x_max":295,"o":"m 295 87 l 88 87 l 88 642 q 10 823 88 686 q 159 943 56 823 l 159 267 q 168 247 159 260 q 189 220 177 233 q 212 198 200 208 q 232 189 224 189 l 295 189 l 295 87 m 246 1055 q 161 984 246 984 l 60 984 q -1 945 22 984 l -52 871 l -52 977 q 33 1048 -52 1048 l 131 1048 q 195 1087 174 1048 l 246 1160 l 246 1055 z "},"ﺃ":{"ha":377,"x_min":-31,"x_max":363,"o":"m 363 105 q 264 87 350 87 q 182 94 215 87 q 129 116 149 100 q 100 156 109 131 q 92 218 92 181 l 92 642 q 14 823 92 686 q 163 943 66 823 l 163 293 q 169 234 163 259 q 191 190 176 209 q 230 155 205 170 q 292 126 255 140 q 322 118 304 123 q 363 105 340 113 m 124 1111 q 109 1101 118 1107 q 88 1084 100 1094 l 71 1062 q 62 1048 62 1052 q 71 1033 62 1041 l 102 1003 q 116 974 116 989 q 106 947 116 957 l 57 899 q -3 878 36 878 q -31 884 -18 878 q 2 905 -14 886 l 20 925 q 33 948 33 940 q 20 966 33 954 l -5 991 q -22 1023 -22 1008 q -4 1056 -22 1039 l 37 1095 q 98 1113 56 1113 q 124 1111 109 1113 z "},"ﺄ":{"ha":251,"x_min":-31,"x_max":298,"o":"m 298 87 l 92 87 l 92 642 q 14 823 92 686 q 163 943 60 823 l 163 267 q 172 247 163 260 q 192 220 180 233 q 216 198 203 208 q 235 189 228 189 l 298 189 l 298 87 m 124 1111 q 88 1084 111 1104 l 71 1062 q 62 1048 62 1052 q 71 1033 62 1041 l 102 1003 q 116 974 116 989 q 106 947 116 957 l 57 899 q -3 878 36 878 q -31 884 -18 878 q 2 905 -14 886 l 20 925 q 33 948 33 940 q 20 966 33 954 l -5 991 q -22 1023 -22 1008 q -4 1056 -22 1039 l 37 1095 q 98 1113 56 1113 q 124 1111 109 1113 z "},"ﺅ":{"ha":561,"x_min":0,"x_max":523,"o":"m 523 185 q 470 87 523 139 l 201 -175 q 42 -236 139 -236 q 0 -229 18 -236 q 36 -217 18 -224 q 74 -199 54 -210 q 114 -172 93 -188 q 157 -134 135 -156 l 275 -20 q 302 20 302 6 q 271 65 302 34 l 167 168 q 147 189 155 180 q 136 203 140 197 q 130 217 132 210 q 129 235 129 224 q 141 275 129 258 q 167 307 153 293 l 410 549 q 404 505 404 528 q 439 400 404 471 l 484 311 q 523 185 523 233 m 429 153 q 415 196 429 170 l 358 304 q 349 333 349 321 q 349 351 349 344 q 350 361 349 358 q 302 295 302 322 q 319 246 302 275 l 369 154 q 383 122 380 134 q 387 100 387 111 q 387 96 387 98 q 387 93 387 94 q 429 153 429 131 m 288 711 q 272 701 281 707 q 252 684 263 694 l 234 662 q 226 648 226 652 q 235 633 226 641 l 266 603 q 279 574 279 589 q 269 547 279 557 l 220 499 q 161 478 199 478 q 133 484 145 478 q 165 505 149 486 l 183 525 q 196 548 196 540 q 184 566 196 553 l 159 591 q 142 623 142 608 q 159 656 142 639 l 201 695 q 261 713 220 713 q 288 711 272 713 z "},"ﺆ":{"ha":547,"x_min":0,"x_max":595,"o":"m 595 87 l 470 87 l 201 -175 q 42 -236 139 -236 q 0 -229 18 -236 q 36 -217 18 -224 q 74 -199 54 -210 q 114 -172 93 -188 q 157 -134 135 -156 l 275 -20 q 302 20 302 6 q 271 65 302 35 l 169 165 q 147 188 155 179 q 135 204 139 197 q 130 219 131 212 q 129 239 129 227 q 167 307 129 269 l 410 549 q 404 505 404 528 q 439 400 404 471 l 484 311 q 520 203 520 237 q 519 189 520 192 l 595 189 l 595 87 m 429 153 q 415 196 429 170 l 358 304 q 349 333 349 321 q 349 351 349 344 q 350 361 349 358 q 302 295 302 322 q 319 246 302 275 l 369 154 q 383 122 380 134 q 387 100 387 111 q 387 96 387 98 q 387 93 387 94 q 429 153 429 131 m 288 711 q 272 701 281 707 q 252 684 263 694 l 234 662 q 226 648 226 652 q 235 633 226 641 l 266 603 q 279 574 279 589 q 269 547 279 557 l 220 499 q 161 478 199 478 q 133 484 145 478 q 165 505 149 486 l 183 525 q 196 548 196 540 q 184 566 196 553 l 159 591 q 142 623 142 608 q 159 656 142 639 l 201 695 q 261 713 220 713 q 288 711 272 713 z "},"ﺇ":{"ha":377,"x_min":14,"x_max":363,"o":"m 363 105 q 264 87 350 87 q 182 94 215 87 q 129 116 149 100 q 100 156 109 131 q 92 218 92 181 l 92 642 q 14 823 92 686 q 163 943 66 823 l 163 293 q 169 233 163 259 q 190 188 175 208 q 230 153 205 168 q 292 126 254 138 q 322 117 304 122 q 363 105 340 113 m 234 32 q 198 5 220 25 l 180 -17 q 172 -31 172 -27 q 181 -46 172 -38 l 212 -76 q 226 -105 226 -90 q 216 -132 226 -122 l 167 -180 q 107 -201 146 -201 q 79 -195 92 -201 q 112 -174 96 -193 l 130 -154 q 142 -131 142 -139 q 130 -113 142 -125 l 105 -88 q 88 -56 88 -71 q 106 -23 88 -40 l 147 16 q 208 34 166 34 q 234 32 218 34 z "},"ﺈ":{"ha":251,"x_min":14,"x_max":298,"o":"m 298 87 l 92 87 l 92 642 q 14 823 92 686 q 163 943 60 823 l 163 267 q 172 247 163 260 q 192 220 180 233 q 216 198 203 208 q 235 189 228 189 l 298 189 l 298 87 m 234 32 q 198 5 220 25 l 180 -17 q 172 -31 172 -27 q 181 -46 172 -38 l 212 -76 q 226 -105 226 -90 q 216 -132 226 -122 l 167 -180 q 107 -201 146 -201 q 79 -195 92 -201 q 112 -174 96 -193 l 130 -154 q 142 -131 142 -139 q 130 -113 142 -125 l 105 -88 q 88 -56 88 -71 q 106 -23 88 -40 l 147 16 q 208 34 166 34 q 234 32 218 34 z "},"ﺉ":{"ha":916,"x_min":-5,"x_max":966,"o":"m 966 188 l 941 178 q 919 173 932 174 q 887 172 905 172 q 809 176 841 172 q 756 191 778 180 q 719 219 734 201 q 690 264 703 237 l 659 327 q 619 374 634 374 q 577 349 604 374 l 516 290 q 489 244 489 264 q 500 216 489 225 l 641 149 q 699 71 699 121 q 654 -8 699 35 l 515 -142 q 441 -182 472 -182 q 365 -142 405 -182 l 142 81 q 98 140 98 124 q 132 201 98 169 l 260 325 l 229 269 q 211 233 216 248 q 205 211 205 218 q 244 153 205 191 l 428 -32 q 489 -78 474 -78 q 538 -39 498 -78 l 572 -6 q 591 25 591 11 q 557 72 591 56 l 430 134 q 401 150 412 142 q 384 165 390 157 q 377 183 378 173 q 375 207 375 193 q 443 300 375 234 l 735 583 q 726 530 726 551 q 755 448 726 505 l 838 282 q 966 188 878 200 m 149 453 q 134 443 143 450 q 113 426 125 436 l 96 404 q 87 391 87 394 q 96 375 87 383 l 127 345 q 141 316 141 332 q 131 289 141 299 l 82 241 q 22 220 61 220 q -5 226 7 220 q 27 247 11 229 l 45 267 q 58 290 58 282 q 45 308 58 296 l 20 333 q 3 365 3 350 q 21 398 3 381 l 62 437 q 123 455 81 455 q 149 453 134 455 z "},"ﺊ":{"ha":919,"x_min":-5,"x_max":966,"o":"m 966 87 l 853 87 q 741 161 778 87 l 659 327 q 619 374 634 374 q 577 349 604 374 l 516 290 q 489 244 489 264 q 500 216 489 225 l 641 149 q 699 71 699 121 q 654 -8 699 35 l 515 -142 q 441 -182 472 -182 q 365 -142 405 -182 l 142 81 q 98 140 98 124 q 132 201 98 169 l 260 325 l 229 269 q 211 233 216 248 q 205 211 205 218 q 244 153 205 191 l 428 -32 q 489 -78 474 -78 q 538 -39 498 -78 l 572 -6 q 591 25 591 11 q 557 72 591 56 l 430 134 q 401 150 412 142 q 384 165 390 157 q 377 183 378 173 q 375 207 375 193 q 443 300 375 234 l 735 583 q 726 530 726 551 q 755 448 726 505 l 858 241 q 935 189 884 189 l 966 189 l 966 87 m 149 453 q 134 443 143 450 q 113 426 125 436 l 96 404 q 87 391 87 394 q 96 375 87 383 l 127 345 q 141 316 141 332 q 131 289 141 299 l 82 241 q 22 220 61 220 q -5 226 7 220 q 27 247 11 229 l 45 267 q 58 290 58 282 q 45 308 58 296 l 20 333 q 3 365 3 350 q 21 398 3 381 l 62 437 q 123 455 81 455 q 149 453 134 455 z "},"ﺋ":{"ha":383,"x_min":0,"x_max":336,"o":"m 336 147 q 334 121 336 132 q 327 99 332 110 q 310 76 321 88 q 281 46 299 64 l 176 -53 q 157 -10 172 -35 q 123 36 142 14 q 83 73 104 58 q 47 87 63 87 l 0 87 l 0 189 l 45 189 q 130 128 70 189 l 200 56 q 212 87 212 72 q 189 146 212 100 l 159 207 q 125 300 125 277 q 158 379 125 342 l 242 460 q 233 407 233 428 q 262 324 233 382 l 307 235 q 336 147 336 175 m 225 711 q 210 701 219 707 q 189 684 201 694 l 172 662 q 163 648 163 652 q 172 633 163 641 l 203 603 q 217 574 217 589 q 207 547 217 557 l 158 499 q 98 478 137 478 q 71 484 83 478 q 103 505 87 486 l 121 525 q 134 548 134 540 q 121 566 134 553 l 96 591 q 79 623 79 608 q 97 656 79 639 l 138 695 q 199 713 157 713 q 225 711 210 713 z "},"ﺌ":{"ha":380,"x_min":0,"x_max":427,"o":"m 427 87 l 319 87 q 304 70 314 80 q 281 46 294 59 l 176 -53 q 157 -10 172 -35 q 123 36 142 14 q 83 73 104 58 q 47 87 63 87 l 0 87 l 0 189 l 45 189 q 130 128 70 189 l 200 56 q 212 87 212 72 q 189 146 212 100 l 159 207 q 125 300 125 277 q 158 379 125 342 l 242 460 q 233 407 233 428 q 262 324 233 382 l 307 235 q 319 208 314 219 q 328 189 325 197 l 427 189 l 427 87 m 225 711 q 210 701 219 707 q 189 684 201 694 l 172 662 q 163 648 163 652 q 172 633 163 641 l 203 603 q 217 574 217 589 q 207 547 217 557 l 158 499 q 98 478 137 478 q 71 484 83 478 q 103 505 87 486 l 121 525 q 134 548 134 540 q 121 566 134 553 l 96 591 q 79 623 79 608 q 97 656 79 639 l 138 695 q 199 713 157 713 q 225 711 210 713 z "},"ﺍ":{"ha":377,"x_min":14,"x_max":363,"o":"m 363 105 q 264 87 350 87 q 182 94 215 87 q 129 116 149 100 q 100 156 109 131 q 92 218 92 181 l 92 642 q 14 823 92 686 q 163 943 66 823 l 163 293 q 169 234 163 259 q 191 190 176 209 q 230 155 205 170 q 292 126 255 140 q 322 118 304 123 q 363 105 340 113 z "},"ﺎ":{"ha":251,"x_min":14,"x_max":298,"o":"m 298 87 l 92 87 l 92 642 q 14 823 92 686 q 163 943 60 823 l 163 267 q 172 247 163 260 q 192 220 180 233 q 216 198 203 208 q 235 189 228 189 l 298 189 l 298 87 z "},"ﺏ":{"ha":1051,"x_min":27,"x_max":1004,"o":"m 1004 147 q 1002 121 1004 132 q 995 99 1000 110 q 978 76 989 88 q 949 46 967 64 l 844 -53 q 823 -8 839 -33 q 787 38 808 16 q 744 73 766 59 q 704 87 722 87 l 27 87 l 407 460 l 437 390 q 523 336 460 336 l 682 336 l 637 290 q 613 266 623 275 q 593 252 603 257 q 571 246 583 248 q 541 244 559 244 l 444 244 q 404 247 419 244 q 377 257 388 250 q 357 278 366 264 q 337 313 348 292 l 290 262 q 269 232 269 236 q 274 217 269 224 q 286 203 278 210 q 302 193 293 197 q 321 189 311 189 l 702 189 q 790 136 734 189 q 829 96 810 117 q 868 56 848 76 q 880 87 880 72 q 857 146 880 100 l 827 207 q 793 300 793 277 q 826 379 793 342 l 910 460 q 901 407 901 428 q 930 324 901 382 l 975 235 q 1004 147 1004 175 m 625 -118 q 589 -190 625 -136 q 522 -138 564 -155 q 492 -105 492 -125 q 571 -24 492 -89 q 581 -49 572 -37 q 599 -74 589 -62 q 616 -97 608 -85 q 625 -118 625 -108 z "},"ﺐ":{"ha":1034,"x_min":27,"x_max":1082,"o":"m 1082 87 l 988 87 q 973 70 983 80 q 949 46 963 59 l 844 -53 q 824 -8 840 -33 q 788 38 808 16 q 745 73 767 59 q 705 87 722 87 l 27 87 l 407 460 l 437 390 q 523 336 460 336 l 682 336 l 637 290 q 613 266 623 275 q 593 252 603 257 q 571 246 583 248 q 541 244 559 244 l 444 244 q 404 247 419 244 q 377 257 388 250 q 357 278 366 264 q 337 313 348 292 l 290 262 q 269 232 269 241 q 274 217 269 224 q 286 203 278 210 q 302 193 293 197 q 321 189 311 189 l 703 189 q 791 136 734 189 q 830 96 811 117 q 869 56 849 76 q 880 87 880 72 q 858 146 880 100 l 828 207 q 793 300 793 277 q 827 379 793 342 l 911 460 q 901 407 901 428 q 930 324 901 382 l 975 235 q 996 189 991 202 l 1082 189 l 1082 87 m 625 -118 q 589 -190 625 -136 q 522 -138 564 -155 q 492 -105 492 -125 q 571 -24 492 -89 q 581 -49 572 -37 q 599 -74 589 -62 q 616 -97 608 -85 q 625 -118 625 -108 z "},"ﺑ":{"ha":383,"x_min":0,"x_max":336,"o":"m 336 147 q 334 121 336 132 q 327 99 332 110 q 310 76 321 88 q 281 46 299 64 l 176 -53 q 157 -10 172 -35 q 123 36 142 14 q 83 73 104 58 q 47 87 63 87 l 0 87 l 0 189 l 45 189 q 130 128 70 189 l 200 56 q 212 87 212 72 q 189 146 212 100 l 159 207 q 125 300 125 277 q 158 379 125 342 l 242 460 q 233 407 233 428 q 262 324 233 382 l 307 235 q 336 147 336 175 m 163 -118 q 128 -190 163 -136 q 60 -138 102 -155 q 31 -105 31 -125 q 110 -24 31 -89 q 119 -49 111 -37 q 138 -74 128 -62 q 155 -97 147 -85 q 163 -118 163 -108 z "},"ﺒ":{"ha":380,"x_min":0,"x_max":427,"o":"m 427 87 l 319 87 q 304 70 314 80 q 281 46 294 59 l 176 -53 q 157 -10 172 -35 q 123 36 142 14 q 83 73 104 58 q 47 87 63 87 l 0 87 l 0 189 l 45 189 q 130 128 70 189 l 200 56 q 212 87 212 72 q 189 146 212 100 l 159 207 q 125 300 125 277 q 158 379 125 342 l 242 460 q 233 407 233 428 q 262 324 233 382 l 307 235 q 319 208 314 219 q 328 189 325 197 l 427 189 l 427 87 m 163 -118 q 128 -190 163 -136 q 60 -138 102 -155 q 31 -105 31 -125 q 110 -24 31 -89 q 119 -49 111 -37 q 138 -74 128 -62 q 155 -97 147 -85 q 163 -118 163 -108 z "},"ﺓ":{"ha":524,"x_min":40,"x_max":503,"o":"m 503 87 l 40 87 q 68 135 68 123 q 64 152 68 141 q 55 177 60 163 q 45 205 50 191 q 41 232 41 220 q 77 317 41 281 l 190 430 l 149 508 l 241 595 l 280 521 l 326 566 q 311 488 311 526 q 358 368 311 459 l 503 87 m 313 189 l 266 281 q 243 347 243 325 q 236 340 243 347 q 221 324 229 333 q 207 306 214 315 q 201 291 201 296 q 213 250 201 273 l 245 189 q 265 189 256 189 q 283 189 274 189 q 299 189 292 189 q 313 189 306 189 m 378 671 q 342 600 378 654 q 275 652 317 634 q 245 684 245 664 q 324 765 245 701 q 334 740 325 753 q 352 716 342 728 q 370 693 361 704 q 378 671 378 682 m 221 671 q 186 600 221 654 q 118 652 160 634 q 88 684 88 664 q 168 765 88 701 q 177 740 168 753 q 195 716 186 728 q 213 693 205 704 q 221 671 221 682 z "},"ﺔ":{"ha":503,"x_min":40,"x_max":551,"o":"m 551 87 l 40 87 q 68 135 68 123 q 64 152 68 141 q 55 177 60 163 q 45 205 50 191 q 41 232 41 220 q 77 317 41 281 l 190 430 l 149 508 l 241 595 l 280 521 l 326 566 q 311 488 311 526 q 358 368 311 460 l 450 189 l 551 189 l 551 87 m 313 189 l 266 281 q 243 347 243 325 q 236 340 243 347 q 221 324 229 333 q 207 306 214 315 q 201 291 201 296 q 213 250 201 273 l 245 189 q 265 189 256 189 q 283 189 274 189 q 299 189 292 189 q 313 189 306 189 m 378 671 q 342 600 378 654 q 275 652 317 634 q 245 684 245 664 q 324 765 245 701 q 334 740 325 753 q 352 716 342 728 q 370 693 361 704 q 378 671 378 682 m 221 671 q 186 600 221 654 q 118 652 160 634 q 88 684 88 664 q 168 765 88 701 q 177 740 168 753 q 195 716 186 728 q 213 693 205 704 q 221 671 221 682 z "},"ﺕ":{"ha":1051,"x_min":27,"x_max":1004,"o":"m 1004 147 q 1002 121 1004 132 q 995 99 1000 110 q 978 76 989 88 q 949 46 967 64 l 844 -53 q 823 -8 839 -33 q 787 38 808 16 q 744 73 766 59 q 704 87 722 87 l 27 87 l 407 460 l 437 390 q 523 336 460 336 l 682 336 l 637 290 q 613 266 623 275 q 593 252 603 257 q 571 246 583 248 q 541 244 559 244 l 444 244 q 404 247 419 244 q 377 257 388 250 q 357 278 366 264 q 337 313 348 292 l 290 262 q 269 232 269 236 q 274 217 269 224 q 286 203 278 210 q 302 193 293 197 q 321 189 311 189 l 702 189 q 790 136 734 189 q 829 96 810 117 q 868 56 848 76 q 880 87 880 72 q 857 146 880 100 l 827 207 q 793 300 793 277 q 826 379 793 342 l 910 460 q 901 407 901 428 q 930 324 901 382 l 975 235 q 1004 147 1004 175 m 770 450 q 734 378 770 433 q 667 431 709 413 q 637 463 637 443 q 716 544 637 479 q 726 519 717 532 q 744 495 734 507 q 762 472 753 483 q 770 450 770 460 m 613 450 q 578 378 613 433 q 510 431 552 413 q 480 463 480 443 q 559 544 480 479 q 569 519 560 532 q 587 495 578 507 q 605 472 597 483 q 613 450 613 460 z "},"ﺖ":{"ha":1034,"x_min":27,"x_max":1082,"o":"m 1082 87 l 988 87 q 973 70 983 80 q 949 46 963 59 l 844 -53 q 824 -8 840 -33 q 788 38 808 16 q 745 73 767 59 q 705 87 722 87 l 27 87 l 407 460 l 437 390 q 523 336 460 336 l 682 336 l 637 290 q 613 266 623 275 q 593 252 603 257 q 571 246 583 248 q 541 244 559 244 l 444 244 q 404 247 419 244 q 377 257 388 250 q 357 278 366 264 q 337 313 348 292 l 290 262 q 269 232 269 241 q 274 217 269 224 q 286 203 278 210 q 302 193 293 197 q 321 189 311 189 l 703 189 q 791 136 734 189 q 830 96 811 117 q 869 56 849 76 q 880 87 880 72 q 858 146 880 100 l 828 207 q 793 300 793 277 q 827 379 793 342 l 911 460 q 901 407 901 428 q 930 324 901 382 l 975 235 q 996 189 991 202 l 1082 189 l 1082 87 m 770 450 q 734 378 770 433 q 667 431 709 413 q 637 463 637 443 q 716 544 637 479 q 726 519 717 532 q 744 495 734 507 q 762 472 753 483 q 770 450 770 460 m 613 450 q 578 378 613 433 q 510 431 552 413 q 480 463 480 443 q 559 544 480 479 q 569 519 560 532 q 587 495 578 507 q 605 472 597 483 q 613 450 613 460 z "},"ﺗ":{"ha":383,"x_min":0,"x_max":340,"o":"m 336 147 q 334 121 336 132 q 327 99 332 110 q 310 76 321 88 q 281 46 299 64 l 176 -53 q 157 -10 172 -35 q 123 36 142 14 q 83 73 104 58 q 47 87 63 87 l 0 87 l 0 189 l 45 189 q 130 128 70 189 l 200 56 q 212 87 212 72 q 189 146 212 100 l 159 207 q 125 300 125 277 q 158 379 125 342 l 242 460 q 233 407 233 428 q 262 324 233 382 l 307 235 q 336 147 336 175 m 340 550 q 305 478 340 532 q 237 530 279 513 q 208 563 208 543 q 287 644 208 579 q 296 619 288 631 q 315 594 305 606 q 332 571 324 583 q 340 550 340 560 m 184 550 q 149 478 184 532 q 81 530 123 513 q 51 563 51 543 q 130 644 51 579 q 140 619 131 631 q 158 594 149 606 q 176 571 168 583 q 184 550 184 560 z "},"ﺘ":{"ha":380,"x_min":0,"x_max":427,"o":"m 427 87 l 319 87 q 304 70 314 80 q 281 46 294 59 l 176 -53 q 157 -10 172 -35 q 123 36 142 14 q 83 73 104 58 q 47 87 63 87 l 0 87 l 0 189 l 45 189 q 130 128 70 189 l 200 56 q 212 87 212 72 q 189 146 212 100 l 159 207 q 125 300 125 277 q 158 379 125 342 l 242 460 q 233 407 233 428 q 262 324 233 382 l 307 235 q 319 208 314 219 q 328 189 325 197 l 427 189 l 427 87 m 340 550 q 305 478 340 532 q 237 530 279 513 q 208 563 208 543 q 287 644 208 579 q 296 619 288 631 q 315 594 305 606 q 332 571 324 583 q 340 550 340 560 m 184 550 q 149 478 184 532 q 81 530 123 513 q 51 563 51 543 q 130 644 51 579 q 140 619 131 631 q 158 594 149 606 q 176 571 168 583 q 184 550 184 560 z "},"ﺙ":{"ha":1051,"x_min":27,"x_max":1004,"o":"m 1004 147 q 1002 121 1004 132 q 995 99 1000 110 q 978 76 989 88 q 949 46 967 64 l 844 -53 q 823 -8 839 -33 q 787 38 808 16 q 744 73 766 59 q 704 87 722 87 l 27 87 l 407 460 l 437 390 q 523 336 460 336 l 682 336 l 637 290 q 613 266 623 275 q 593 252 603 257 q 571 246 583 248 q 541 244 559 244 l 444 244 q 404 247 419 244 q 377 257 388 250 q 357 278 366 264 q 337 313 348 292 l 290 262 q 269 232 269 236 q 274 217 269 224 q 286 203 278 210 q 302 193 293 197 q 321 189 311 189 l 702 189 q 790 136 734 189 q 829 96 810 117 q 868 56 848 76 q 880 87 880 72 q 857 146 880 100 l 827 207 q 793 300 793 277 q 826 379 793 342 l 910 460 q 901 407 901 428 q 930 324 901 382 l 975 235 q 1004 147 1004 175 m 770 450 q 734 378 770 433 q 667 431 709 413 q 637 463 637 443 q 716 544 637 479 q 726 519 717 532 q 744 495 734 507 q 762 472 753 483 q 770 450 770 460 m 613 450 q 578 378 613 433 q 510 431 552 413 q 480 463 480 443 q 559 544 480 479 q 569 519 560 532 q 587 495 578 507 q 605 472 597 483 q 613 450 613 460 m 680 580 q 645 508 680 562 q 577 560 619 543 q 547 593 547 572 q 627 673 547 609 q 636 649 627 661 q 654 624 645 636 q 672 601 664 612 q 680 580 680 590 z "},"ﺚ":{"ha":1034,"x_min":27,"x_max":1082,"o":"m 1082 87 l 988 87 q 973 70 983 80 q 949 46 963 59 l 844 -53 q 824 -8 840 -33 q 788 38 808 16 q 745 73 767 59 q 705 87 722 87 l 27 87 l 407 460 l 437 390 q 523 336 460 336 l 682 336 l 637 290 q 613 266 623 275 q 593 252 603 257 q 571 246 583 248 q 541 244 559 244 l 444 244 q 404 247 419 244 q 377 257 388 250 q 357 278 366 264 q 337 313 348 292 l 290 262 q 269 232 269 241 q 274 217 269 224 q 286 203 278 210 q 302 193 293 197 q 321 189 311 189 l 703 189 q 791 136 734 189 q 830 96 811 117 q 869 56 849 76 q 880 87 880 72 q 858 146 880 100 l 828 207 q 793 300 793 277 q 827 379 793 342 l 911 460 q 901 407 901 428 q 930 324 901 382 l 975 235 q 996 189 991 202 l 1082 189 l 1082 87 m 680 580 q 645 508 680 562 q 577 560 619 543 q 547 593 547 572 q 627 673 547 609 q 636 649 627 661 q 654 624 645 636 q 672 601 664 612 q 680 580 680 590 m 770 450 q 734 378 770 433 q 667 431 709 413 q 637 463 637 443 q 716 544 637 479 q 726 519 717 532 q 744 495 734 507 q 762 472 753 483 q 770 450 770 460 m 613 450 q 578 378 613 433 q 510 431 552 413 q 480 463 480 443 q 559 544 480 479 q 569 519 560 532 q 587 495 578 507 q 605 472 597 483 q 613 450 613 460 z "},"ﺛ":{"ha":383,"x_min":0,"x_max":340,"o":"m 336 147 q 334 121 336 132 q 327 99 332 110 q 310 76 321 88 q 281 46 299 64 l 176 -53 q 157 -10 172 -35 q 123 36 142 14 q 83 73 104 58 q 47 87 63 87 l 0 87 l 0 189 l 45 189 q 130 128 70 189 l 200 56 q 212 87 212 72 q 189 146 212 100 l 159 207 q 125 300 125 277 q 158 379 125 342 l 242 460 q 233 407 233 428 q 262 324 233 382 l 307 235 q 336 147 336 175 m 251 680 q 216 608 251 662 q 148 660 190 642 q 118 692 118 672 q 197 773 118 709 q 207 748 198 761 q 225 724 216 736 q 243 701 235 712 q 251 680 251 690 m 340 550 q 305 478 340 532 q 237 530 279 513 q 208 563 208 543 q 287 644 208 579 q 296 619 288 631 q 315 594 305 606 q 332 571 324 583 q 340 550 340 560 m 184 550 q 149 478 184 532 q 81 530 123 513 q 51 563 51 543 q 130 644 51 579 q 140 619 131 631 q 158 594 149 606 q 176 571 168 583 q 184 550 184 560 z "},"ﺜ":{"ha":380,"x_min":0,"x_max":427,"o":"m 427 87 l 319 87 q 304 70 314 80 q 281 46 294 59 l 176 -53 q 157 -10 172 -35 q 123 36 142 14 q 83 73 104 58 q 47 87 63 87 l 0 87 l 0 189 l 45 189 q 130 128 70 189 l 200 56 q 212 87 212 72 q 189 146 212 100 l 159 207 q 125 300 125 277 q 158 379 125 342 l 242 460 q 233 407 233 428 q 262 324 233 382 l 307 235 q 319 208 314 219 q 328 189 325 197 l 427 189 l 427 87 m 251 680 q 216 608 251 662 q 148 660 190 642 q 118 692 118 672 q 197 773 118 709 q 207 748 198 761 q 225 724 216 736 q 243 701 235 712 q 251 680 251 690 m 340 550 q 305 478 340 532 q 237 530 279 513 q 208 563 208 543 q 287 644 208 579 q 296 619 288 631 q 315 594 305 606 q 332 571 324 583 q 340 550 340 560 m 184 550 q 149 478 184 532 q 81 530 123 513 q 51 563 51 543 q 130 644 51 579 q 140 619 131 631 q 158 594 149 606 q 176 571 168 583 q 184 550 184 560 z "},"ﺝ":{"ha":652,"x_min":34,"x_max":618,"o":"m 618 -9 q 586 -17 606 -17 q 342 87 443 -17 l 205 87 q 181 83 193 87 q 159 71 169 78 q 144 54 150 63 q 138 35 138 45 q 184 -26 138 20 l 369 -210 q 427 -248 408 -248 q 449 -242 435 -248 q 486 -225 464 -237 l 541 -194 l 418 -321 q 357 -355 385 -355 q 297 -312 340 -355 l 74 -89 q 34 -12 34 -49 q 75 61 34 18 l 149 140 q 177 168 167 158 q 195 183 187 178 q 211 189 203 188 q 232 189 218 189 l 274 189 l 216 279 q 171 328 194 312 q 126 343 148 343 q 68 328 97 343 l 191 452 q 255 495 235 495 q 297 442 271 495 l 433 172 q 575 9 492 53 q 618 -9 593 4 m 401 -46 q 366 -118 401 -64 q 298 -66 340 -83 q 268 -33 268 -54 q 347 47 268 -17 q 357 23 348 35 q 375 -2 366 10 q 393 -25 385 -14 q 401 -46 401 -36 z "},"ﺞ":{"ha":529,"x_min":34,"x_max":576,"o":"m 576 87 l 205 87 q 181 83 193 87 q 159 71 169 78 q 144 54 150 63 q 138 35 138 45 q 184 -26 138 20 l 369 -210 q 427 -248 408 -248 q 449 -242 435 -248 q 486 -225 464 -237 l 541 -194 l 418 -321 q 357 -355 385 -355 q 297 -312 340 -355 l 74 -89 q 34 -12 34 -49 q 75 61 34 18 l 149 140 q 177 168 167 158 q 195 183 187 178 q 211 189 203 188 q 232 189 218 189 l 274 189 l 216 279 q 171 328 194 312 q 126 343 148 343 q 68 328 97 343 l 191 452 q 255 495 235 495 q 297 442 271 495 l 404 230 q 482 189 424 189 l 576 189 l 576 87 m 401 -46 q 366 -118 401 -64 q 298 -66 340 -83 q 268 -33 268 -54 q 347 47 268 -17 q 357 23 348 35 q 375 -2 366 10 q 393 -25 385 -14 q 401 -46 401 -36 z "},"ﺟ":{"ha":632,"x_min":0,"x_max":598,"o":"m 598 -9 q 566 -17 585 -17 q 322 87 422 -17 l 0 87 l 0 189 l 254 189 l 195 279 q 151 328 174 312 q 106 343 127 343 q 47 328 77 343 l 171 452 q 235 495 214 495 q 277 442 250 495 l 412 172 q 555 9 472 53 q 598 -9 572 4 m 267 -46 q 231 -118 267 -64 q 163 -66 205 -83 q 134 -33 134 -54 q 213 47 134 -17 q 222 23 214 35 q 241 -2 231 10 q 258 -25 250 -14 q 267 -46 267 -36 z "},"ﺠ":{"ha":509,"x_min":0,"x_max":598,"o":"m 598 -9 q 566 -17 585 -17 q 322 87 422 -17 l 0 87 l 0 189 l 254 189 l 195 279 q 151 328 174 312 q 106 343 127 343 q 47 328 77 343 l 171 452 q 235 495 214 495 q 277 442 250 495 l 404 189 l 556 189 l 556 87 l 462 87 q 555 9 496 41 q 598 -9 572 4 m 267 -46 q 231 -118 267 -64 q 163 -66 205 -83 q 134 -33 134 -54 q 213 47 134 -17 q 222 23 214 35 q 241 -2 231 10 q 258 -25 250 -14 q 267 -46 267 -36 z "},"ﺡ":{"ha":652,"x_min":34,"x_max":618,"o":"m 618 -9 q 586 -17 606 -17 q 342 87 443 -17 l 205 87 q 181 83 193 87 q 159 71 169 78 q 144 54 150 63 q 138 35 138 45 q 184 -26 138 20 l 369 -210 q 427 -248 408 -248 q 449 -242 435 -248 q 486 -225 464 -237 l 541 -194 l 418 -321 q 357 -355 385 -355 q 297 -312 340 -355 l 74 -89 q 34 -12 34 -49 q 75 61 34 18 l 149 140 q 177 168 167 158 q 195 183 187 178 q 211 189 203 188 q 232 189 218 189 l 274 189 l 216 279 q 171 328 194 312 q 126 343 148 343 q 68 328 97 343 l 191 452 q 255 495 235 495 q 297 442 271 495 l 433 172 q 575 9 492 53 q 618 -9 593 4 z "},"ﺢ":{"ha":529,"x_min":34,"x_max":576,"o":"m 576 87 l 205 87 q 181 83 193 87 q 159 71 169 78 q 144 54 150 63 q 138 35 138 45 q 184 -26 138 20 l 369 -210 q 427 -248 408 -248 q 449 -242 435 -248 q 486 -225 464 -237 l 541 -194 l 418 -321 q 357 -355 385 -355 q 297 -312 340 -355 l 74 -89 q 34 -12 34 -49 q 75 61 34 18 l 149 140 q 177 168 167 158 q 195 183 187 178 q 211 189 203 188 q 232 189 218 189 l 274 189 l 216 279 q 171 328 194 312 q 126 343 148 343 q 68 328 97 343 l 191 452 q 255 495 235 495 q 297 442 271 495 l 404 230 q 482 189 424 189 l 576 189 l 576 87 z "},"ﺣ":{"ha":632,"x_min":0,"x_max":598,"o":"m 598 -9 q 566 -17 585 -17 q 322 87 422 -17 l 0 87 l 0 189 l 254 189 l 195 279 q 151 328 174 312 q 106 343 127 343 q 47 328 77 343 l 171 452 q 235 495 214 495 q 277 442 250 495 l 412 172 q 555 9 472 53 q 598 -9 572 4 z "},"ﺤ":{"ha":509,"x_min":0,"x_max":598,"o":"m 598 -9 q 566 -17 585 -17 q 322 87 422 -17 l 0 87 l 0 189 l 254 189 l 195 279 q 151 328 174 312 q 106 343 127 343 q 47 328 77 343 l 171 452 q 235 495 214 495 q 277 442 250 495 l 404 189 l 556 189 l 556 87 l 462 87 q 555 9 496 41 q 598 -9 572 4 z "},"ﺥ":{"ha":652,"x_min":34,"x_max":618,"o":"m 618 -9 q 586 -17 606 -17 q 342 87 443 -17 l 205 87 q 181 83 193 87 q 159 71 169 78 q 144 54 150 63 q 138 35 138 45 q 184 -26 138 20 l 369 -210 q 427 -248 408 -248 q 449 -242 435 -248 q 486 -225 464 -237 l 541 -194 l 418 -321 q 357 -355 385 -355 q 297 -312 340 -355 l 74 -89 q 34 -12 34 -49 q 75 61 34 18 l 149 140 q 177 168 167 158 q 195 183 187 178 q 211 189 203 188 q 232 189 218 189 l 274 189 l 216 279 q 171 328 194 312 q 126 343 148 343 q 68 328 97 343 l 191 452 q 255 495 235 495 q 297 442 271 495 l 433 172 q 575 9 492 53 q 618 -9 593 4 m 183 550 q 148 478 183 532 q 80 530 122 513 q 50 563 50 543 q 130 644 50 579 q 139 619 130 631 q 157 594 148 606 q 175 571 167 583 q 183 550 183 560 z "},"ﺦ":{"ha":529,"x_min":34,"x_max":576,"o":"m 576 87 l 205 87 q 181 83 193 87 q 159 71 169 78 q 144 54 150 63 q 138 35 138 45 q 184 -26 138 20 l 369 -210 q 427 -248 408 -248 q 449 -242 435 -248 q 486 -225 464 -237 l 541 -194 l 418 -321 q 357 -355 385 -355 q 297 -312 340 -355 l 74 -89 q 34 -12 34 -49 q 75 61 34 18 l 149 140 q 177 168 167 158 q 195 183 187 178 q 211 189 203 188 q 232 189 218 189 l 274 189 l 216 279 q 171 328 194 312 q 126 343 148 343 q 68 328 97 343 l 191 452 q 255 495 235 495 q 297 442 271 495 l 404 230 q 482 189 424 189 l 576 189 l 576 87 m 177 550 q 142 478 177 532 q 74 530 116 513 q 44 563 44 543 q 123 644 44 579 q 133 619 124 631 q 151 594 142 606 q 169 571 161 583 q 177 550 177 560 z "},"ﺧ":{"ha":632,"x_min":0,"x_max":598,"o":"m 598 -9 q 566 -17 585 -17 q 322 87 422 -17 l 0 87 l 0 189 l 254 189 l 195 279 q 151 328 174 312 q 106 343 127 343 q 47 328 77 343 l 171 452 q 235 495 214 495 q 277 442 250 495 l 412 172 q 555 9 472 53 q 598 -9 572 4 m 163 550 q 127 478 163 532 q 60 530 102 513 q 30 563 30 543 q 109 644 30 579 q 119 619 110 631 q 137 594 127 606 q 155 571 146 583 q 163 550 163 560 z "},"ﺨ":{"ha":509,"x_min":0,"x_max":598,"o":"m 598 -9 q 566 -17 585 -17 q 322 87 422 -17 l 0 87 l 0 189 l 254 189 l 195 279 q 151 328 174 312 q 106 343 127 343 q 47 328 77 343 l 171 452 q 235 495 214 495 q 277 442 250 495 l 404 189 l 556 189 l 556 87 l 462 87 q 555 9 496 41 q 598 -9 572 4 m 163 550 q 127 478 163 532 q 60 530 102 513 q 30 563 30 543 q 109 644 30 579 q 119 619 110 631 q 137 594 127 606 q 155 571 146 583 q 163 550 163 560 z "},"ﺩ":{"ha":804,"x_min":79,"x_max":777,"o":"m 777 117 q 701 87 745 87 l 81 87 l 81 254 q 260 189 170 189 l 567 189 l 539 244 l 278 244 q 177 328 218 244 l 123 435 q 79 476 109 461 l 168 564 l 253 393 q 317 346 276 346 l 602 346 q 643 295 618 346 l 689 197 q 711 153 702 170 q 730 129 721 137 q 750 119 739 121 q 777 117 761 117 z "},"ﺪ":{"ha":732,"x_min":79,"x_max":780,"o":"m 780 87 l 81 87 l 81 254 q 260 189 170 189 l 567 189 l 539 244 l 278 244 q 177 328 218 244 l 123 435 q 79 476 109 461 l 168 564 l 253 393 q 317 346 276 346 l 602 346 q 643 295 619 346 l 692 189 l 780 189 l 780 87 z "},"ﺫ":{"ha":804,"x_min":68,"x_max":777,"o":"m 777 117 q 701 87 745 87 l 81 87 l 81 254 q 260 189 170 189 l 567 189 l 539 244 l 278 244 q 177 328 218 244 l 123 435 q 79 476 109 461 l 168 564 l 253 393 q 317 346 276 346 l 602 346 q 643 295 618 346 l 689 197 q 711 153 702 170 q 730 129 721 137 q 750 119 739 121 q 777 117 761 117 m 201 658 q 166 586 201 640 q 98 638 140 621 q 68 671 68 650 q 148 751 68 687 q 157 727 149 739 q 176 702 166 714 q 193 679 185 690 q 201 658 201 668 z "},"ﺬ":{"ha":732,"x_min":68,"x_max":780,"o":"m 780 87 l 81 87 l 81 254 q 260 189 170 189 l 567 189 l 539 244 l 278 244 q 177 328 218 244 l 123 435 q 79 476 109 461 l 168 564 l 253 393 q 317 346 276 346 l 602 346 q 643 295 619 346 l 692 189 l 780 189 l 780 87 m 201 658 q 166 586 201 640 q 98 638 140 621 q 68 671 68 650 q 148 751 68 687 q 157 727 149 739 q 176 702 166 714 q 193 679 185 690 q 201 658 201 668 z "},"ﺭ":{"ha":574,"x_min":0,"x_max":534,"o":"m 534 203 q 480 98 534 151 l 201 -175 q 42 -236 139 -236 q 0 -229 18 -236 q 75 -198 36 -220 q 157 -134 113 -177 l 361 64 q 414 149 414 115 q 380 222 414 156 l 351 283 q 316 376 316 353 q 349 455 316 418 l 433 536 q 424 483 424 504 q 453 400 424 458 l 498 311 q 534 203 534 237 z "},"ﺮ":{"ha":574,"x_min":0,"x_max":622,"o":"m 622 87 l 470 87 l 201 -175 q 42 -236 139 -236 q 0 -229 18 -236 q 75 -198 36 -220 q 157 -134 113 -177 l 361 64 q 414 149 414 115 q 380 222 414 156 l 351 283 q 316 376 316 353 q 349 455 316 418 l 433 536 q 424 483 424 504 q 453 400 424 458 l 498 311 q 534 203 534 237 q 533 189 534 192 l 622 189 l 622 87 z "},"ﺯ":{"ha":574,"x_min":0,"x_max":534,"o":"m 534 203 q 480 98 534 151 l 201 -175 q 42 -236 139 -236 q 0 -229 18 -236 q 75 -198 36 -220 q 157 -134 113 -177 l 361 64 q 414 149 414 115 q 380 222 414 156 l 351 283 q 316 376 316 353 q 349 455 316 418 l 433 536 q 424 483 424 504 q 453 400 424 458 l 498 311 q 534 203 534 237 m 352 574 q 317 502 352 556 q 249 554 291 536 q 219 587 219 566 q 298 667 219 603 q 308 643 299 655 q 326 618 317 630 q 344 595 336 606 q 352 574 352 584 z "},"ﺰ":{"ha":574,"x_min":0,"x_max":622,"o":"m 622 87 l 470 87 l 201 -175 q 42 -236 139 -236 q 0 -229 18 -236 q 75 -198 36 -220 q 157 -134 113 -177 l 361 64 q 414 149 414 115 q 380 222 414 156 l 351 283 q 316 376 316 353 q 349 455 316 418 l 433 536 q 424 483 424 504 q 453 400 424 458 l 498 311 q 534 203 534 237 q 533 189 534 192 l 622 189 l 622 87 m 352 574 q 317 502 352 556 q 249 554 291 536 q 219 587 219 566 q 298 667 219 603 q 308 643 299 655 q 326 618 317 630 q 344 595 336 606 q 352 574 352 584 z "},"ﺱ":{"ha":1112,"x_min":47,"x_max":1090,"o":"m 1090 117 q 1014 87 1059 87 l 684 87 q 652 86 665 87 q 630 81 640 85 q 612 71 621 77 q 593 54 604 64 l 418 -116 q 345 -157 376 -157 q 268 -117 308 -157 l 91 60 q 47 120 47 104 q 81 181 47 149 l 209 304 l 178 249 q 160 213 165 227 q 155 191 155 198 q 193 132 155 171 l 331 -6 q 392 -52 377 -52 q 441 -13 401 -52 l 520 63 q 547 123 547 88 q 538 163 547 143 l 524 201 q 480 241 513 225 l 569 330 l 639 189 l 715 189 l 680 259 q 636 300 666 285 l 725 388 l 823 189 l 899 189 l 834 319 q 791 359 821 345 l 880 448 l 1010 182 q 1029 148 1021 161 q 1047 128 1038 135 q 1066 119 1056 121 q 1090 117 1076 117 z "},"ﺲ":{"ha":1065,"x_min":47,"x_max":1112,"o":"m 1112 87 l 684 87 q 652 86 665 87 q 630 81 640 85 q 612 71 621 77 q 593 54 604 64 l 418 -116 q 345 -157 376 -157 q 268 -117 308 -157 l 91 60 q 47 120 47 104 q 81 181 47 149 l 209 304 l 178 249 q 160 213 165 227 q 155 191 155 198 q 193 132 155 171 l 331 -6 q 392 -52 377 -52 q 441 -13 401 -52 l 520 63 q 547 123 547 88 q 538 163 547 143 l 524 201 q 480 241 513 225 l 569 330 l 639 189 l 715 189 l 680 259 q 636 300 666 285 l 725 388 l 823 189 l 899 189 l 834 319 q 791 359 821 345 l 880 448 l 1007 189 l 1112 189 l 1112 87 z "},"ﺳ":{"ha":678,"x_min":0,"x_max":656,"o":"m 656 117 q 580 87 625 87 l 0 87 l 0 189 l 95 189 l 90 201 q 46 241 77 227 l 135 330 l 205 189 l 281 189 l 245 259 q 202 300 232 285 l 291 388 l 389 189 l 465 189 l 400 319 q 357 359 387 345 l 446 448 l 576 182 q 595 148 587 161 q 613 128 604 135 q 632 119 622 121 q 656 117 642 117 z "},"ﺴ":{"ha":631,"x_min":0,"x_max":678,"o":"m 678 87 l 0 87 l 0 189 l 95 189 l 90 201 q 46 241 77 227 l 135 330 l 205 189 l 281 189 l 245 259 q 202 300 232 285 l 291 388 l 389 189 l 465 189 l 400 319 q 357 359 387 345 l 446 448 l 573 189 l 678 189 l 678 87 z "},"ﺵ":{"ha":1112,"x_min":47,"x_max":1090,"o":"m 1090 117 q 1014 87 1059 87 l 684 87 q 652 86 665 87 q 630 81 640 85 q 612 71 621 77 q 593 54 604 64 l 418 -116 q 345 -157 376 -157 q 268 -117 308 -157 l 91 60 q 47 120 47 104 q 81 181 47 149 l 209 304 l 178 249 q 160 213 165 227 q 155 191 155 198 q 193 132 155 171 l 331 -6 q 392 -52 377 -52 q 441 -13 401 -52 l 520 63 q 547 123 547 88 q 538 163 547 143 l 524 201 q 480 241 513 225 l 569 330 l 639 189 l 715 189 l 680 259 q 636 300 666 285 l 725 388 l 823 189 l 899 189 l 834 319 q 791 359 821 345 l 880 448 l 1010 182 q 1029 148 1021 161 q 1047 128 1038 135 q 1066 119 1056 121 q 1090 117 1076 117 m 701 602 q 666 530 701 584 q 598 582 640 564 q 568 614 568 594 q 648 695 568 631 q 657 670 648 683 q 675 646 666 658 q 693 623 685 634 q 701 602 701 612 m 791 472 q 755 400 791 454 q 688 452 730 435 q 658 485 658 465 q 737 566 658 501 q 747 541 738 553 q 765 516 755 528 q 783 493 774 505 q 791 472 791 482 m 634 472 q 599 400 634 454 q 531 452 573 435 q 501 485 501 465 q 581 566 501 501 q 590 541 581 553 q 608 516 599 528 q 626 493 618 505 q 634 472 634 482 z "},"ﺶ":{"ha":1065,"x_min":47,"x_max":1112,"o":"m 1112 87 l 684 87 q 652 86 665 87 q 630 81 640 85 q 612 71 621 77 q 593 54 604 64 l 418 -116 q 345 -157 376 -157 q 268 -117 308 -157 l 91 60 q 47 120 47 104 q 81 181 47 149 l 209 304 l 178 249 q 160 213 165 227 q 155 191 155 198 q 193 132 155 171 l 331 -6 q 392 -52 377 -52 q 441 -13 401 -52 l 520 63 q 547 123 547 88 q 538 163 547 143 l 524 201 q 480 241 513 225 l 569 330 l 639 189 l 715 189 l 680 259 q 636 300 666 285 l 725 388 l 823 189 l 899 189 l 834 319 q 791 359 821 345 l 880 448 l 1007 189 l 1112 189 l 1112 87 m 701 602 q 666 530 701 584 q 598 582 640 564 q 568 614 568 594 q 648 695 568 631 q 657 670 648 683 q 675 646 666 658 q 693 623 685 634 q 701 602 701 612 m 791 472 q 755 400 791 454 q 688 452 730 435 q 658 485 658 465 q 737 566 658 501 q 747 541 738 553 q 765 516 755 528 q 783 493 774 505 q 791 472 791 482 m 634 472 q 599 400 634 454 q 531 452 573 435 q 501 485 501 465 q 581 566 501 501 q 590 541 581 553 q 608 516 599 528 q 626 493 618 505 q 634 472 634 482 z "},"ﺷ":{"ha":678,"x_min":0,"x_max":656,"o":"m 656 117 q 580 87 625 87 l 0 87 l 0 189 l 95 189 l 90 201 q 46 241 77 227 l 135 330 l 205 189 l 281 189 l 245 259 q 202 300 232 285 l 291 388 l 389 189 l 465 189 l 400 319 q 357 359 387 345 l 446 448 l 576 182 q 595 148 587 161 q 613 128 604 135 q 632 119 622 121 q 656 117 642 117 m 267 602 q 232 530 267 584 q 164 582 206 564 q 134 614 134 594 q 214 695 134 631 q 223 670 214 683 q 241 646 232 658 q 259 623 251 634 q 267 602 267 612 m 357 472 q 321 400 357 454 q 254 452 296 435 q 224 485 224 465 q 303 566 224 501 q 313 541 304 553 q 331 516 321 528 q 349 493 340 505 q 357 472 357 482 m 200 472 q 165 400 200 454 q 97 452 139 435 q 67 485 67 465 q 146 566 67 501 q 156 541 147 553 q 174 516 165 528 q 192 493 184 505 q 200 472 200 482 z "},"ﺸ":{"ha":631,"x_min":0,"x_max":678,"o":"m 678 87 l 0 87 l 0 189 l 95 189 l 90 201 q 46 241 77 227 l 135 330 l 205 189 l 281 189 l 245 259 q 202 300 232 285 l 291 388 l 389 189 l 465 189 l 400 319 q 357 359 387 345 l 446 448 l 573 189 l 678 189 l 678 87 m 267 602 q 232 530 267 584 q 164 582 206 564 q 134 614 134 594 q 214 695 134 631 q 223 670 214 683 q 241 646 232 658 q 259 623 251 634 q 267 602 267 612 m 357 472 q 321 400 357 454 q 254 452 296 435 q 224 485 224 465 q 303 566 224 501 q 313 541 304 553 q 331 516 321 528 q 349 493 340 505 q 357 472 357 482 m 200 472 q 165 400 200 454 q 97 452 139 435 q 67 485 67 465 q 146 566 67 501 q 156 541 147 553 q 174 516 165 528 q 192 493 184 505 q 200 472 200 482 z "},"ﺹ":{"ha":1277,"x_min":47,"x_max":1255,"o":"m 1255 117 q 1179 87 1223 87 l 684 87 q 651 86 664 87 q 630 82 639 85 q 612 71 621 78 q 593 54 604 64 l 418 -116 q 345 -157 376 -157 q 268 -117 308 -157 l 91 60 q 47 120 47 104 q 81 181 47 149 l 209 304 l 178 249 q 160 213 165 227 q 155 191 155 198 q 193 132 155 171 l 331 -6 q 392 -52 377 -52 q 441 -13 401 -52 l 520 63 q 547 123 547 88 q 536 163 547 142 l 498 237 q 455 278 485 263 l 581 401 l 609 346 l 1076 346 q 1118 302 1096 346 l 1167 197 q 1190 153 1180 169 q 1208 129 1199 137 q 1228 119 1217 121 q 1255 117 1239 117 m 1045 189 l 1017 244 l 657 244 l 684 189 l 1045 189 z "},"ﺺ":{"ha":1211,"x_min":47,"x_max":1258,"o":"m 1258 87 l 684 87 q 652 86 665 87 q 630 81 640 85 q 612 71 621 77 q 593 54 604 64 l 418 -116 q 345 -157 376 -157 q 268 -117 308 -157 l 91 60 q 47 120 47 104 q 81 181 47 149 l 209 304 l 178 249 q 160 213 165 227 q 155 191 155 198 q 193 132 155 171 l 331 -6 q 392 -52 377 -52 q 441 -13 401 -52 l 520 63 q 547 123 547 88 q 536 163 547 142 l 498 237 q 455 278 485 263 l 581 401 l 609 346 l 1076 346 q 1118 302 1096 346 l 1171 189 l 1258 189 l 1258 87 m 1045 189 l 1017 244 l 657 244 l 684 189 l 1045 189 z "},"ﺻ":{"ha":871,"x_min":0,"x_max":844,"o":"m 844 117 q 768 87 813 87 l 0 87 l 0 189 l 111 189 l 91 237 q 47 278 81 262 l 173 401 l 199 346 l 665 346 q 707 302 686 346 l 757 197 q 779 153 770 169 q 798 129 789 137 q 818 119 807 121 q 844 117 829 117 m 635 189 l 606 244 l 247 244 l 274 189 l 635 189 z "},"ﺼ":{"ha":800,"x_min":0,"x_max":848,"o":"m 848 87 l 0 87 l 0 189 l 111 189 l 88 237 q 45 278 76 263 l 170 401 l 199 346 l 665 346 q 707 302 686 346 l 761 189 l 848 189 l 848 87 m 635 189 l 606 244 l 247 244 l 274 189 l 635 189 z "},"ﺽ":{"ha":1277,"x_min":47,"x_max":1255,"o":"m 1255 117 q 1179 87 1223 87 l 684 87 q 651 86 664 87 q 630 82 639 85 q 612 71 621 78 q 593 54 604 64 l 418 -116 q 345 -157 376 -157 q 268 -117 308 -157 l 91 60 q 47 120 47 104 q 81 181 47 149 l 209 304 l 178 249 q 160 213 165 227 q 155 191 155 198 q 193 132 155 171 l 331 -6 q 392 -52 377 -52 q 441 -13 401 -52 l 520 63 q 547 123 547 88 q 536 163 547 142 l 498 237 q 455 278 485 263 l 581 401 l 609 346 l 1076 346 q 1118 302 1096 346 l 1167 197 q 1190 153 1180 169 q 1208 129 1199 137 q 1228 119 1217 121 q 1255 117 1239 117 m 1045 189 l 1017 244 l 657 244 l 684 189 l 1045 189 m 886 486 q 851 414 886 468 q 783 466 825 448 q 753 498 753 478 q 833 579 753 515 q 842 554 833 567 q 861 530 851 542 q 878 507 870 518 q 886 486 886 496 z "},"ﺾ":{"ha":1211,"x_min":47,"x_max":1258,"o":"m 1258 87 l 684 87 q 652 86 665 87 q 630 81 640 85 q 612 71 621 77 q 593 54 604 64 l 418 -116 q 345 -157 376 -157 q 268 -117 308 -157 l 91 60 q 47 120 47 104 q 81 181 47 149 l 209 304 l 178 249 q 160 213 165 227 q 155 191 155 198 q 193 132 155 171 l 331 -6 q 392 -52 377 -52 q 441 -13 401 -52 l 520 63 q 547 123 547 88 q 536 163 547 142 l 498 237 q 455 278 485 263 l 581 401 l 609 346 l 1076 346 q 1118 302 1096 346 l 1171 189 l 1258 189 l 1258 87 m 1045 189 l 1017 244 l 657 244 l 684 189 l 1045 189 m 886 486 q 851 414 886 468 q 783 466 825 448 q 753 498 753 478 q 833 579 753 515 q 842 554 833 567 q 861 530 851 542 q 878 507 870 518 q 886 486 886 496 z "},"ﺿ":{"ha":871,"x_min":0,"x_max":844,"o":"m 844 117 q 768 87 813 87 l 0 87 l 0 189 l 111 189 l 88 237 q 45 278 76 263 l 170 401 l 199 346 l 665 346 q 707 302 686 346 l 757 197 q 779 153 770 169 q 798 129 789 137 q 818 119 807 121 q 844 117 829 117 m 635 189 l 606 244 l 247 244 l 274 189 l 635 189 m 476 486 q 441 414 476 468 q 373 466 415 448 q 343 498 343 478 q 422 579 343 515 q 432 554 423 567 q 450 530 441 542 q 468 507 460 518 q 476 486 476 496 z "},"ﻀ":{"ha":800,"x_min":0,"x_max":848,"o":"m 848 87 l 0 87 l 0 189 l 111 189 l 88 237 q 45 278 76 263 l 170 401 l 199 346 l 665 346 q 707 302 686 346 l 761 189 l 848 189 l 848 87 m 635 189 l 606 244 l 247 244 l 274 189 l 635 189 m 476 486 q 441 414 476 468 q 373 466 415 448 q 343 498 343 478 q 422 579 343 515 q 432 554 423 567 q 450 530 441 542 q 468 507 460 518 q 476 486 476 496 z "},"ﻁ":{"ha":802,"x_min":27,"x_max":774,"o":"m 774 117 q 699 87 743 87 l 147 87 q 99 96 121 87 q 61 121 77 105 q 36 159 45 137 q 27 208 27 182 q 117 189 58 189 l 147 189 l 147 642 q 69 823 147 686 q 218 943 115 823 l 218 346 l 595 346 q 637 302 616 346 l 687 197 q 709 153 700 169 q 728 129 719 137 q 748 119 737 121 q 774 117 759 117 m 565 189 l 536 244 l 279 244 l 306 189 l 565 189 z "},"ﻂ":{"ha":730,"x_min":27,"x_max":778,"o":"m 778 87 l 147 87 q 99 96 121 87 q 61 121 77 105 q 36 159 45 137 q 27 208 27 182 q 117 189 58 189 l 147 189 l 147 642 q 69 823 147 686 q 218 943 115 823 l 218 346 l 595 346 q 637 302 616 346 l 691 189 l 778 189 l 778 87 m 565 189 l 536 244 l 279 244 l 306 189 l 565 189 z "},"ﻃ":{"ha":756,"x_min":0,"x_max":729,"o":"m 729 117 q 653 87 698 87 l 0 87 l 0 189 l 102 189 l 102 642 q 24 823 102 686 q 173 943 70 823 l 173 346 l 550 346 q 592 302 570 346 l 642 197 q 664 153 654 169 q 683 129 673 137 q 703 119 692 121 q 729 117 713 117 m 519 189 l 491 244 l 233 244 l 260 189 l 519 189 z "},"ﻄ":{"ha":685,"x_min":0,"x_max":732,"o":"m 732 87 l 0 87 l 0 189 l 102 189 l 102 642 q 24 823 102 686 q 173 943 70 823 l 173 346 l 550 346 q 592 302 570 346 l 646 189 l 732 189 l 732 87 m 519 189 l 491 244 l 233 244 l 260 189 l 519 189 z "}}}
